solid 
facet normal 0 -0 -1
 outer loop
  vertex 2.0438764 2.7709613 -2.1966598
  vertex -8.113153e-09 5.234815 -2.1966598
  vertex 0.014941736 5.24715 -2.1966598
 endloop
endfacet
facet normal -0 -0 -1
 outer loop
  vertex 2.0438764 2.7709613 -2.1966598
  vertex 0.014941736 5.24715 -2.1966598
  vertex 2.0529459 2.7784483 -2.1966598
 endloop
endfacet
facet normal -0.6366282 -0.77117085 -0
 outer loop
  vertex -2.0497487 2.763848 -2.186775
  vertex -2.0497487 2.763848 2.186775
  vertex -2.0568616 2.76972 2.186775
 endloop
endfacet
facet normal -0.6366282 -0.77117085 0
 outer loop
  vertex -2.0497487 2.763848 -2.186775
  vertex -2.0568616 2.76972 2.186775
  vertex -2.0568616 2.76972 -2.186775
 endloop
endfacet
facet normal -0 -0 -1
 outer loop
  vertex -1.1397321 3.7830946 -1.0256665
  vertex -1.1397321 4.754153 -1.0256665
  vertex -0.72346956 4.754153 -1.0256665
 endloop
endfacet
facet normal -0 0 -1
 outer loop
  vertex -1.1397321 3.7830946 -1.0256665
  vertex -0.72346956 4.754153 -1.0256665
  vertex -0.72346956 3.7830946 -1.0256665
 endloop
endfacet
facet normal -0 1 0
 outer loop
  vertex -0.7876117 4.7633767 -0.6695807
  vertex -1.07559 4.7633767 -0.6695807
  vertex -1.1397321 4.7633767 -0.6008412
 endloop
endfacet
facet normal 0 1 0
 outer loop
  vertex -0.7876117 4.7633767 -0.6695807
  vertex -1.1397321 4.7633767 -0.6008412
  vertex -0.72346956 4.7633767 -0.6008412
 endloop
endfacet
facet normal 1 -0 0
 outer loop
  vertex -1.0663662 4.754153 -0.9272724
  vertex -1.0663662 4.754153 -0.6893505
  vertex -1.0663662 4.354708 -0.6893505
 endloop
endfacet
facet normal 1 -0 0
 outer loop
  vertex -1.0663662 4.754153 -0.9272724
  vertex -1.0663662 4.354708 -0.6893505
  vertex -1.0663662 4.354708 -0.9272724
 endloop
endfacet
facet normal -1 0 0
 outer loop
  vertex -0.79683554 4.754153 -0.6893505
  vertex -0.79683554 4.754153 -0.9272724
  vertex -0.79683554 4.354708 -0.9272724
 endloop
endfacet
facet normal -1 0 0
 outer loop
  vertex -0.79683554 4.754153 -0.6893505
  vertex -0.79683554 4.354708 -0.9272724
  vertex -0.79683554 4.354708 -0.6893505
 endloop
endfacet
facet normal 1 0 0
 outer loop
  vertex -0.71424574 3.7830946 -1.0157816
  vertex -0.71424574 4.754153 -1.0157816
  vertex -0.71424574 4.754153 -0.6008412
 endloop
endfacet
facet normal 1 -0 0
 outer loop
  vertex -0.71424574 3.7830946 -1.0157816
  vertex -0.71424574 4.754153 -0.6008412
  vertex -0.71424574 3.7830946 -0.6008412
 endloop
endfacet
facet normal -1 0 0
 outer loop
  vertex -1.148956 3.7830946 -0.6008412
  vertex -1.148956 4.754153 -0.6008412
  vertex -1.148956 4.754153 -1.0157816
 endloop
endfacet
facet normal -1 0 0
 outer loop
  vertex -1.148956 3.7830946 -0.6008412
  vertex -1.148956 4.754153 -1.0157816
  vertex -1.148956 3.7830946 -1.0157816
 endloop
endfacet
facet normal 0 0 1
 outer loop
  vertex -0.80605936 4.754153 -0.9371573
  vertex -1.0571424 4.754153 -0.9371573
  vertex -1.0571424 4.354708 -0.9371573
 endloop
endfacet
facet normal 0 -0 1
 outer loop
  vertex -0.80605936 4.754153 -0.9371573
  vertex -1.0571424 4.354708 -0.9371573
  vertex -0.80605936 4.354708 -0.9371573
 endloop
endfacet
facet normal 0 0 -1
 outer loop
  vertex -1.0571424 4.754153 -0.6794656
  vertex -0.80605936 4.754153 -0.6794656
  vertex -0.80605936 4.354708 -0.6794656
 endloop
endfacet
facet normal 0 0 -1
 outer loop
  vertex -1.0571424 4.754153 -0.6794656
  vertex -0.80605936 4.354708 -0.6794656
  vertex -1.0571424 4.354708 -0.6794656
 endloop
endfacet
facet normal 0 1 -0
 outer loop
  vertex -1.0571424 4.3454843 -0.6893505
  vertex -0.80605936 4.3454843 -0.6893505
  vertex -0.80605936 4.3454843 -0.9272724
 endloop
endfacet
facet normal 0 1 -0
 outer loop
  vertex -1.0571424 4.3454843 -0.6893505
  vertex -0.80605936 4.3454843 -0.9272724
  vertex -1.0571424 4.3454843 -0.9272724
 endloop
endfacet
facet normal -0 0 1
 outer loop
  vertex -0.72346956 3.7830946 -0.59095633
  vertex -0.72346956 4.754153 -0.59095633
  vertex -1.1397321 4.754153 -0.59095633
 endloop
endfacet
facet normal -0 0 1
 outer loop
  vertex -0.72346956 3.7830946 -0.59095633
  vertex -1.1397321 4.754153 -0.59095633
  vertex -1.1397321 3.7830946 -0.59095633
 endloop
endfacet
facet normal -0 0 1
 outer loop
  vertex 1.9003681 2.839871 2.1966598
  vertex 0 5.1418495 2.1966598
  vertex -1.9003682 2.839871 2.1966598
 endloop
endfacet
facet normal 0 1 0
 outer loop
  vertex -1.07559 4.7633767 -0.6695807
  vertex -1.07559 4.7633767 -0.94704217
  vertex -1.1397321 4.7633767 -1.0157816
 endloop
endfacet
facet normal -0 1 0
 outer loop
  vertex -1.07559 4.7633767 -0.6695807
  vertex -1.1397321 4.7633767 -1.0157816
  vertex -1.1397321 4.7633767 -0.6008412
 endloop
endfacet
facet normal 0 1 0
 outer loop
  vertex -0.7876117 4.7633767 -0.94704217
  vertex -0.7876117 4.7633767 -0.6695807
  vertex -0.72346956 4.7633767 -0.6008412
 endloop
endfacet
facet normal 0 1 -0
 outer loop
  vertex -0.7876117 4.7633767 -0.94704217
  vertex -0.72346956 4.7633767 -0.6008412
  vertex -0.72346956 4.7633767 -1.0157816
 endloop
endfacet
facet normal 0 1 0
 outer loop
  vertex -1.07559 4.7633767 -0.94704217
  vertex -0.7876117 4.7633767 -0.94704217
  vertex -0.72346956 4.7633767 -1.0157816
 endloop
endfacet
facet normal 0 1 -0
 outer loop
  vertex -1.07559 4.7633767 -0.94704217
  vertex -0.72346956 4.7633767 -1.0157816
  vertex -1.1397321 4.7633767 -1.0157816
 endloop
endfacet
facet normal -0 0 1
 outer loop
  vertex 0 5.1418495 2.1966598
  vertex -9.067642e-09 5.234815 2.1966598
  vertex -2.0438764 2.7709613 2.1966598
 endloop
endfacet
facet normal 0 0 1
 outer loop
  vertex -2.0438764 2.7709613 2.1966598
  vertex -2.0414047 2.7677796 2.1966598
  vertex -1.9163268 2.8267157 2.1966598
 endloop
endfacet
facet normal 0 0 1
 outer loop
  vertex -1.9163268 2.8267157 2.1966598
  vertex -1.9003682 2.839871 2.1966598
  vertex 0 5.1418495 2.1966598
 endloop
endfacet
facet normal 0 0 1
 outer loop
  vertex -2.0438764 2.7709613 2.1966598
  vertex -1.9163268 2.8267157 2.1966598
  vertex 0 5.1418495 2.1966598
 endloop
endfacet
facet normal 0 0 1
 outer loop
  vertex -2.0438764 2.7709613 2.1966598
  vertex -9.067642e-09 5.234815 2.1966598
  vertex -0.0129853105 5.245535 2.1966598
 endloop
endfacet
facet normal -0 0 1
 outer loop
  vertex -2.0438764 2.7709613 2.1966598
  vertex -0.0129853105 5.245535 2.1966598
  vertex -2.0509894 2.7768333 2.1966598
 endloop
endfacet
facet normal 0.77117 -0.6366292 6.606277e-08
 outer loop
  vertex -1.9079827 2.8306472 -2.186775
  vertex -0.005872163 5.1347365 -2.186775
  vertex -0.0058721676 5.1347365 -2.132417
 endloop
endfacet
facet normal 0.77117 -0.6366292 0
 outer loop
  vertex -1.9079827 2.8306472 -2.186775
  vertex -0.0058721676 5.1347365 -2.132417
  vertex -1.9079827 2.8306472 -2.1225321
 endloop
endfacet
facet normal 0 1 0
 outer loop
  vertex -0.007113141 5.2526484 2.186775
  vertex -0.007113141 5.2526484 -2.186775
  vertex -0.007113143 5.2526484 -2.186775
 endloop
endfacet
facet normal -0 1 0
 outer loop
  vertex -0.007113141 5.2526484 2.186775
  vertex -0.007113143 5.2526484 -2.186775
  vertex -0.007113143 5.2526484 2.186775
 endloop
endfacet
facet normal -0.6366178 0.77117944 4.0669237e-10
 outer loop
  vertex 0.007113148 5.2526484 -2.186775
  vertex 0.007113151 5.2526484 2.186775
  vertex 0.00906957 5.2542634 2.186775
 endloop
endfacet
facet normal -0.6366178 0.7711795 4.0669237e-10
 outer loop
  vertex 0.007113148 5.2526484 -2.186775
  vertex 0.00906957 5.2542634 2.186775
  vertex 0.009069568 5.2542634 -2.186775
 endloop
endfacet
facet normal 0 -1 0
 outer loop
  vertex 1.9079828 2.8306472 -2.1225321
  vertex 1.9079827 2.8306472 2.186775
  vertex -1.9079828 2.8306472 2.186775
 endloop
endfacet
facet normal 0 -1 0
 outer loop
  vertex 1.9079828 2.8306472 -2.1225321
  vertex -1.9079828 2.8306472 2.186775
  vertex -1.9079827 2.8306472 -2.1225321
 endloop
endfacet
facet normal -0.77116996 0.6366293 9.852976e-10
 outer loop
  vertex -2.0581026 2.7827055 2.186775
  vertex -0.020098448 5.251407 2.186775
  vertex -0.020098453 5.251407 -2.186775
 endloop
endfacet
facet normal -0.77116996 0.6366293 0
 outer loop
  vertex -2.0581026 2.7827055 2.186775
  vertex -0.020098453 5.251407 -2.186775
  vertex -2.0581026 2.7827055 -2.186775
 endloop
endfacet
facet normal -0.922291 0.38649645 1.2570759e-07
 outer loop
  vertex -0.37533823 3.4112499 -2.132417
  vertex -0.003564979 4.298407 -2.132417
  vertex -0.0035649848 4.298407 -2.1751227
 endloop
endfacet
facet normal -0.922291 0.38649642 -7.254891e-07
 outer loop
  vertex -0.37533823 3.4112499 -2.132417
  vertex -0.0035649848 4.298407 -2.1751227
  vertex -0.3753382 3.4112499 -2.1751227
 endloop
endfacet
facet normal -0.77116996 -0.6366293 -0
 outer loop
  vertex 0.0058721686 5.1347365 -2.186775
  vertex 1.9079828 2.8306472 -2.186775
  vertex 1.9079828 2.8306472 -2.1225321
 endloop
endfacet
facet normal -0.77117 -0.63662934 0
 outer loop
  vertex 0.0058721686 5.1347365 -2.186775
  vertex 1.9079828 2.8306472 -2.1225321
  vertex 0.005872164 5.1347365 -2.132417
 endloop
endfacet
facet normal 0.7711699 0.6366293 -6.56865e-10
 outer loop
  vertex 2.0600593 2.7843206 -2.186775
  vertex 0.022054883 5.253022 -2.186775
  vertex 0.022054886 5.253022 2.186775
 endloop
endfacet
facet normal 0.7711699 0.6366293 0
 outer loop
  vertex 2.0600593 2.7843206 -2.186775
  vertex 0.022054886 5.253022 2.186775
  vertex 2.0600593 2.7843206 2.186775
 endloop
endfacet
facet normal 0 0 -1
 outer loop
  vertex -1.9275581 2.8214235 -2.1966598
  vertex -2.0414047 2.7677796 -2.1966598
  vertex -2.0438764 2.7709613 -2.1966598
 endloop
endfacet
facet normal -0 0 -1
 outer loop
  vertex -2.0438764 2.7709613 -2.1966598
  vertex -8.113153e-09 5.234815 -2.1966598
  vertex 0 5.156338 -2.1966598
 endloop
endfacet
facet normal -0 0 -1
 outer loop
  vertex -2.0438764 2.7709613 -2.1966598
  vertex 0 5.156338 -2.1966598
  vertex -1.9275581 2.8214235 -2.1966598
 endloop
endfacet
facet normal 0 -1 0
 outer loop
  vertex -0.72346956 3.773871 -0.6008412
  vertex -1.1397321 3.773871 -0.6008412
  vertex -1.1397321 3.773871 -1.0157816
 endloop
endfacet
facet normal 0 -1 0
 outer loop
  vertex -0.72346956 3.773871 -0.6008412
  vertex -1.1397321 3.773871 -1.0157816
  vertex -0.72346956 3.773871 -1.0157816
 endloop
endfacet
facet normal 0 0 1
 outer loop
  vertex -9.067642e-09 5.234815 2.1966598
  vertex 2.0438764 2.7709613 2.1966598
  vertex 2.0529459 2.7784483 2.1966598
 endloop
endfacet
facet normal 0 0 1
 outer loop
  vertex -9.067642e-09 5.234815 2.1966598
  vertex 2.0529459 2.7784483 2.1966598
  vertex 0.014941737 5.24715 2.1966598
 endloop
endfacet
facet normal 0.9222909 -0.38649637 1.0207983e-07
 outer loop
  vertex -0.26698548 3.4833255 -2.1751227
  vertex -0.0035649503 4.1119223 -2.1751227
  vertex -0.0035649561 4.1119223 -2.1225321
 endloop
endfacet
facet normal 0.9222909 -0.3864963 -4.1572653e-07
 outer loop
  vertex -0.26698548 3.4833255 -2.1751227
  vertex -0.0035649561 4.1119223 -2.1225321
  vertex -0.26698545 3.4833255 -2.1225321
 endloop
endfacet
facet normal 0 0 1
 outer loop
  vertex 1.9163266 2.8267157 2.1966598
  vertex 2.0414047 2.7677796 2.1966598
  vertex 2.0438764 2.7709613 2.1966598
 endloop
endfacet
facet normal -0 -0 1
 outer loop
  vertex 2.0438764 2.7709613 2.1966598
  vertex -9.067642e-09 5.234815 2.1966598
  vertex 0 5.1418495 2.1966598
 endloop
endfacet
facet normal 0 0 1
 outer loop
  vertex 0 5.1418495 2.1966598
  vertex 1.9003681 2.839871 2.1966598
  vertex 1.9163266 2.8267157 2.1966598
 endloop
endfacet
facet normal -0 -0 1
 outer loop
  vertex 2.0438764 2.7709613 2.1966598
  vertex 0 5.1418495 2.1966598
  vertex 1.9163266 2.8267157 2.1966598
 endloop
endfacet
facet normal -0 -0 -1
 outer loop
  vertex 0 5.156338 -2.1966598
  vertex -8.113153e-09 5.234815 -2.1966598
  vertex 2.0438764 2.7709613 -2.1966598
 endloop
endfacet
facet normal 0 0 -1
 outer loop
  vertex 2.0438764 2.7709613 -2.1966598
  vertex 2.0414047 2.7677796 -2.1966598
  vertex 1.9275582 2.8214235 -2.1966598
 endloop
endfacet
facet normal 0 0 -1
 outer loop
  vertex 2.0438764 2.7709613 -2.1966598
  vertex 1.9275582 2.8214235 -2.1966598
  vertex 0 5.156338 -2.1966598
 endloop
endfacet
facet normal 0 0 -1
 outer loop
  vertex -8.113153e-09 5.234815 -2.1966598
  vertex -2.0438764 2.7709613 -2.1966598
  vertex -2.0509894 2.7768333 -2.1966598
 endloop
endfacet
facet normal 0 -0 -1
 outer loop
  vertex -8.113153e-09 5.234815 -2.1966598
  vertex -2.0509894 2.7768333 -2.1966598
  vertex -0.01298531 5.245535 -2.1966598
 endloop
endfacet
facet normal 0 -1 0
 outer loop
  vertex 0.36967948 3.4027429 -2.132417
  vertex -0.36967936 3.4027429 -2.132417
  vertex -0.36967936 3.4027429 -2.1751227
 endloop
endfacet
facet normal 0 -1 0
 outer loop
  vertex 0.36967948 3.4027429 -2.132417
  vertex -0.36967936 3.4027429 -2.1751227
  vertex 0.36967948 3.4027429 -2.1751227
 endloop
endfacet
facet normal 0 0 -1
 outer loop
  vertex 0 4.3333917 -2.1225321
  vertex -0.39211398 3.3978002 -2.1225321
  vertex -1.8892014 2.8376741 -2.1225321
 endloop
endfacet
facet normal 0 -0 -1
 outer loop
  vertex 0 4.3333917 -2.1225321
  vertex -1.8892014 2.8376741 -2.1225321
  vertex 0 5.1261735 -2.1225321
 endloop
endfacet
facet normal 0.92229086 0.3864965 6.436228e-07
 outer loop
  vertex 0.003564986 4.298407 -2.132417
  vertex 0.37533835 3.4112499 -2.132417
  vertex 0.37533838 3.4112499 -2.1751227
 endloop
endfacet
facet normal 0.92229086 0.38649657 0
 outer loop
  vertex 0.003564986 4.298407 -2.132417
  vertex 0.37533838 3.4112499 -2.1751227
  vertex 0.0035649799 4.298407 -2.1751227
 endloop
endfacet
facet normal 0 0 -1
 outer loop
  vertex 0.2844169 3.4655948 -2.1850078
  vertex 2.5078828e-08 4.1442947 -2.1850078
  vertex 3.6804453e-09 4.2830486 -2.1850078
 endloop
endfacet
facet normal -0 -0 -1
 outer loop
  vertex 0.2844169 3.4655948 -2.1850078
  vertex 3.6804453e-09 4.2830486 -2.1850078
  vertex 0.36503696 3.4119668 -2.1850078
 endloop
endfacet
facet normal 0 0 -1
 outer loop
  vertex 0.39211413 3.3978002 -2.1225321
  vertex 0 4.3333917 -2.1225321
  vertex 0 5.1261735 -2.1225321
 endloop
endfacet
facet normal -0 -0 -1
 outer loop
  vertex 0.39211413 3.3978002 -2.1225321
  vertex 0 5.1261735 -2.1225321
  vertex 1.8892015 2.8376741 -2.1225321
 endloop
endfacet
facet normal 0 0 -1
 outer loop
  vertex -0.39211398 3.3978002 -2.1225321
  vertex 0.39211413 3.3978002 -2.1225321
  vertex 1.8892015 2.8376741 -2.1225321
 endloop
endfacet
facet normal 0 0 -1
 outer loop
  vertex -0.39211398 3.3978002 -2.1225321
  vertex 1.8892015 2.8376741 -2.1225321
  vertex -1.8892014 2.8376741 -2.1225321
 endloop
endfacet
facet normal -0.9222909 -0.38649642 1.0452974e-06
 outer loop
  vertex 0.0035650146 4.1119223 -2.1751227
  vertex 0.26698557 3.4833255 -2.1751227
  vertex 0.26698563 3.4833255 -2.1225321
 endloop
endfacet
facet normal -0.92229086 -0.38649645 0
 outer loop
  vertex 0.0035650146 4.1119223 -2.1751227
  vertex 0.26698563 3.4833255 -2.1225321
  vertex 0.0035650092 4.1119223 -2.1225321
 endloop
endfacet
facet normal -0 1 0
 outer loop
  vertex 0.26132673 3.4748187 -2.1751227
  vertex -0.2613266 3.4748187 -2.1751227
  vertex -0.2613266 3.4748187 -2.1225321
 endloop
endfacet
facet normal 0 1 0
 outer loop
  vertex 0.26132673 3.4748187 -2.1751227
  vertex -0.2613266 3.4748187 -2.1225321
  vertex 0.26132673 3.4748187 -2.1225321
 endloop
endfacet
facet normal 0 0 -1
 outer loop
  vertex -0.2844168 3.4655948 -2.1850078
  vertex 0.2844169 3.4655948 -2.1850078
  vertex 0.36503696 3.4119668 -2.1850078
 endloop
endfacet
facet normal 0 0 -1
 outer loop
  vertex -0.2844168 3.4655948 -2.1850078
  vertex 0.36503696 3.4119668 -2.1850078
  vertex -0.36503685 3.4119668 -2.1850078
 endloop
endfacet
facet normal 0 0 -1
 outer loop
  vertex 2.5078828e-08 4.1442947 -2.1850078
  vertex -0.2844168 3.4655948 -2.1850078
  vertex -0.36503685 3.4119668 -2.1850078
 endloop
endfacet
facet normal 0 -0 -1
 outer loop
  vertex 2.5078828e-08 4.1442947 -2.1850078
  vertex -0.36503685 3.4119668 -2.1850078
  vertex 3.6804453e-09 4.2830486 -2.1850078
 endloop
endfacet
facet normal 0.5838966 -0.45359725 -0.67328626
 outer loop
  vertex 2.0438764 2.7709613 -2.1966598
  vertex 2.0497487 2.763848 -2.186775
  vertex 2.0414047 2.7677796 -2.1966598
 endloop
endfacet
facet normal 0 0.48479876 -0.87462574
 outer loop
  vertex 0.007113148 5.2526484 -2.186775
  vertex -8.113153e-09 5.234815 -2.1966598
  vertex -0.007113141 5.2526484 -2.186775
 endloop
endfacet
facet normal 0.5838966 -0.45359725 0.67328626
 outer loop
  vertex 2.0497487 2.763848 2.186775
  vertex 2.0438764 2.7709613 2.1966598
  vertex 2.0414047 2.7677796 2.1966598
 endloop
endfacet
facet normal -0 0.48479882 0.87462574
 outer loop
  vertex 0.007113151 5.2526484 2.186775
  vertex -0.007113141 5.2526484 2.186775
  vertex -9.067642e-09 5.234815 2.1966598
 endloop
endfacet
facet normal -0.5838966 -0.45359725 -0.67328626
 outer loop
  vertex -2.0497487 2.763848 -2.186775
  vertex -2.0438764 2.7709613 -2.1966598
  vertex -2.0414047 2.7677796 -2.1966598
 endloop
endfacet
facet normal -0.5838966 -0.45359725 0.67328626
 outer loop
  vertex -2.0438764 2.7709613 2.1966598
  vertex -2.0497487 2.763848 2.186775
  vertex -2.0414047 2.7677796 2.1966598
 endloop
endfacet
facet normal 0.59020376 -0.5902114 -0.5507359
 outer loop
  vertex -0.72346956 3.773871 -1.0157816
  vertex -0.72346956 3.7830946 -1.0256665
  vertex -0.71424574 3.7830946 -1.0157816
 endloop
endfacet
facet normal -0.3033022 0.9098948 0.28301814
 outer loop
  vertex -0.79683554 4.754153 -0.9272724
  vertex -0.7876117 4.7633767 -0.94704217
  vertex -0.80605936 4.754153 -0.9371573
 endloop
endfacet
facet normal 0.59020483 -0.59021246 0.55073357
 outer loop
  vertex -0.72346956 3.773871 -0.6008412
  vertex -0.71424574 3.7830946 -0.6008412
  vertex -0.72346956 3.7830946 -0.59095633
 endloop
endfacet
facet normal -0.3033022 0.9098948 -0.28301814
 outer loop
  vertex -0.79683554 4.754153 -0.6893505
  vertex -0.80605936 4.754153 -0.6794656
  vertex -0.7876117 4.7633767 -0.6695807
 endloop
endfacet
facet normal -0.59020376 -0.5902114 -0.5507359
 outer loop
  vertex -1.1397321 3.773871 -1.0157816
  vertex -1.148956 3.7830946 -1.0157816
  vertex -1.1397321 3.7830946 -1.0256665
 endloop
endfacet
facet normal 0.3033022 0.9098948 0.28301814
 outer loop
  vertex -1.0663662 4.754153 -0.9272724
  vertex -1.0571424 4.754153 -0.9371573
  vertex -1.07559 4.7633767 -0.94704217
 endloop
endfacet
facet normal -0.59020483 -0.59021246 0.55073357
 outer loop
  vertex -1.1397321 3.773871 -0.6008412
  vertex -1.1397321 3.7830946 -0.59095633
  vertex -1.148956 3.7830946 -0.6008412
 endloop
endfacet
facet normal 0.3033022 0.9098948 -0.28301814
 outer loop
  vertex -1.0571424 4.754153 -0.6794656
  vertex -1.0663662 4.754153 -0.6893505
  vertex -1.07559 4.7633767 -0.6695807
 endloop
endfacet
facet normal 0.59020907 0.59020144 -0.55074084
 outer loop
  vertex -0.72346956 4.754153 -1.0256665
  vertex -0.72346956 4.7633767 -1.0157816
  vertex -0.71424574 4.754153 -1.0157816
 endloop
endfacet
facet normal 0.59021014 0.5902025 0.55073845
 outer loop
  vertex -0.72346956 4.7633767 -0.6008412
  vertex -0.72346956 4.754153 -0.59095633
  vertex -0.71424574 4.754153 -0.6008412
 endloop
endfacet
facet normal -0.59021014 0.5902025 0.55073845
 outer loop
  vertex -1.1397321 4.7633767 -0.6008412
  vertex -1.148956 4.754153 -0.6008412
  vertex -1.1397321 4.754153 -0.59095633
 endloop
endfacet
facet normal -0.59020907 0.59020144 -0.55074084
 outer loop
  vertex -1.1397321 4.7633767 -1.0157816
  vertex -1.1397321 4.754153 -1.0256665
  vertex -1.148956 4.754153 -1.0157816
 endloop
endfacet
facet normal -0.59021014 0.5902025 0.55073845
 outer loop
  vertex -0.79683554 4.354708 -0.9272724
  vertex -0.80605936 4.354708 -0.9371573
  vertex -0.80605936 4.3454843 -0.9272724
 endloop
endfacet
facet normal -0.59021014 0.5902025 -0.55073845
 outer loop
  vertex -0.79683554 4.354708 -0.6893505
  vertex -0.80605936 4.3454843 -0.6893505
  vertex -0.80605936 4.354708 -0.6794656
 endloop
endfacet
facet normal 0.59021014 0.5902025 -0.55073845
 outer loop
  vertex -1.0571424 4.354708 -0.6794656
  vertex -1.0571424 4.3454843 -0.6893505
  vertex -1.0663662 4.354708 -0.6893505
 endloop
endfacet
facet normal 0.59021014 0.5902025 0.55073845
 outer loop
  vertex -1.0663662 4.354708 -0.9272724
  vertex -1.0571424 4.3454843 -0.9272724
  vertex -1.0571424 4.354708 -0.9371573
 endloop
endfacet
facet normal -0.6198906 -0.7519867 0.224169
 outer loop
  vertex 1.9003681 2.839871 2.1966598
  vertex 1.9079827 2.8306472 2.186775
  vertex 1.9163266 2.8267157 2.1966598
 endloop
endfacet
facet normal 0.6198906 -0.7519867 0.22416897
 outer loop
  vertex -1.9079828 2.8306472 2.186775
  vertex -1.9003682 2.839871 2.1966598
  vertex -1.9163268 2.8267157 2.1966598
 endloop
endfacet
facet normal 0 -0.4161003 -0.90931875
 outer loop
  vertex -0.005872163 5.1347365 -2.186775
  vertex 0 5.156338 -2.1966598
  vertex 0.0058721686 5.1347365 -2.186775
 endloop
endfacet
facet normal -0.348917 -0.23209958 -0.90795743
 outer loop
  vertex -0.37533823 3.4112499 -2.132417
  vertex -0.36967936 3.4027429 -2.132417
  vertex -0.39211398 3.3978002 -2.1225321
 endloop
endfacet
facet normal 0 0.27190316 -0.9623247
 outer loop
  vertex -0.003564979 4.298407 -2.132417
  vertex 0 4.3333917 -2.1225321
  vertex 0.003564986 4.298407 -2.132417
 endloop
endfacet
facet normal 0.34891665 -0.23209935 -0.9079576
 outer loop
  vertex 0.36967948 3.4027429 -2.132417
  vertex 0.37533835 3.4112499 -2.132417
  vertex 0.39211413 3.3978002 -2.1225321
 endloop
endfacet
facet normal -0.07942033 0.8308827 -0.5507507
 outer loop
  vertex -0.007113143 5.2526484 -2.186775
  vertex -0.01298531 5.245535 -2.1966598
  vertex -0.020098453 5.251407 -2.186775
 endloop
endfacet
facet normal -0.079420365 0.8308827 0.5507507
 outer loop
  vertex -0.007113143 5.2526484 2.186775
  vertex -0.020098448 5.251407 2.186775
  vertex -0.0129853105 5.245535 2.1966598
 endloop
endfacet
facet normal -0.83088887 -0.07940469 -0.5507437
 outer loop
  vertex -2.0568616 2.76972 -2.186775
  vertex -2.0581026 2.7827055 -2.186775
  vertex -2.0509894 2.7768333 -2.1966598
 endloop
endfacet
facet normal -0.83088887 -0.07940469 0.5507437
 outer loop
  vertex -2.0568616 2.76972 2.186775
  vertex -2.0509894 2.7768333 2.1966598
  vertex -2.0581026 2.7827055 2.186775
 endloop
endfacet
facet normal 0.83088315 -0.079420865 0.55075
 outer loop
  vertex 2.058818 2.7713354 2.186775
  vertex 2.0600593 2.7843206 2.186775
  vertex 2.0529459 2.7784483 2.1966598
 endloop
endfacet
facet normal 0.83088315 -0.079420865 -0.55075
 outer loop
  vertex 2.058818 2.7713354 -2.186775
  vertex 2.0529459 2.7784483 -2.1966598
  vertex 2.0600593 2.7843206 -2.186775
 endloop
endfacet
facet normal 0.0794203 0.83088267 -0.5507507
 outer loop
  vertex 0.014941736 5.24715 -2.1966598
  vertex 0.009069568 5.2542634 -2.186775
  vertex 0.022054883 5.253022 -2.186775
 endloop
endfacet
facet normal 0.07942029 0.8308827 0.5507506
 outer loop
  vertex 0.00906957 5.2542634 2.186775
  vertex 0.014941737 5.24715 2.1966598
  vertex 0.022054886 5.253022 2.186775
 endloop
endfacet
facet normal -0 -0.7558334 -0.65476394
 outer loop
  vertex -0.0058721676 5.1347365 -2.132417
  vertex 0.005872164 5.1347365 -2.132417
  vertex 0 5.1261735 -2.1225321
 endloop
endfacet
facet normal 0 -0.29204246 -0.9564054
 outer loop
  vertex -0.0035649503 4.1119223 -2.1751227
  vertex 2.5078828e-08 4.1442947 -2.1850078
  vertex 0.0035650146 4.1119223 -2.1751227
 endloop
endfacet
facet normal 0.31335884 0.20845212 -0.92647386
 outer loop
  vertex -0.26698548 3.4833255 -2.1751227
  vertex -0.2613266 3.4748187 -2.1751227
  vertex -0.2844168 3.4655948 -2.1850078
 endloop
endfacet
facet normal -0.3133592 0.20845127 -0.926474
 outer loop
  vertex 0.26132673 3.4748187 -2.1751227
  vertex 0.26698557 3.4833255 -2.1751227
  vertex 0.2844169 3.4655948 -2.1850078
 endloop
endfacet
facet normal 0 0.54121405 -0.84088486
 outer loop
  vertex -0.0035649848 4.298407 -2.1751227
  vertex 0.0035649799 4.298407 -2.1751227
  vertex 3.6804453e-09 4.2830486 -2.1850078
 endloop
endfacet
facet normal -0.6164668 -0.41007155 -0.6721682
 outer loop
  vertex -0.36503685 3.4119668 -2.1850078
  vertex -0.36967936 3.4027429 -2.1751227
  vertex -0.3753382 3.4112499 -2.1751227
 endloop
endfacet
facet normal 0.616464 -0.410074 -0.67216915
 outer loop
  vertex 0.36503696 3.4119668 -2.1850078
  vertex 0.37533838 3.4112499 -2.1751227
  vertex 0.36967948 3.4027429 -2.1751227
 endloop
endfacet
facet normal 0 1 0
 outer loop
  vertex -0.007113141 5.2526484 -2.186775
  vertex -0.007113141 5.2526484 2.186775
  vertex 0.007113151 5.2526484 2.186775
 endloop
endfacet
facet normal 0 1 -0
 outer loop
  vertex -0.007113141 5.2526484 -2.186775
  vertex 0.007113151 5.2526484 2.186775
  vertex 0.007113148 5.2526484 -2.186775
 endloop
endfacet
facet normal 0.7071022 -0.70711136 0
 outer loop
  vertex -0.72346956 3.773871 -0.6008412
  vertex -0.72346956 3.773871 -1.0157816
  vertex -0.71424574 3.7830946 -1.0157816
 endloop
endfacet
facet normal 0.7071022 -0.70711136 0
 outer loop
  vertex -0.72346956 3.773871 -0.6008412
  vertex -0.71424574 3.7830946 -1.0157816
  vertex -0.71424574 3.7830946 -0.6008412
 endloop
endfacet
facet normal 0.73113006 0 -0.68223816
 outer loop
  vertex -0.72346956 3.7830946 -1.0256665
  vertex -0.72346956 4.754153 -1.0256665
  vertex -0.71424574 4.754153 -1.0157816
 endloop
endfacet
facet normal 0.73113006 0 -0.68223816
 outer loop
  vertex -0.72346956 3.7830946 -1.0256665
  vertex -0.71424574 4.754153 -1.0157816
  vertex -0.71424574 3.7830946 -1.0157816
 endloop
endfacet
facet normal 0.70711136 0.70710224 0
 outer loop
  vertex -0.72346956 4.7633767 -1.0157816
  vertex -0.72346956 4.7633767 -0.6008412
  vertex -0.71424574 4.754153 -0.6008412
 endloop
endfacet
facet normal 0.70711136 0.70710224 -0
 outer loop
  vertex -0.72346956 4.7633767 -1.0157816
  vertex -0.71424574 4.754153 -0.6008412
  vertex -0.71424574 4.754153 -1.0157816
 endloop
endfacet
facet normal 0.7311321 -0 0.68223596
 outer loop
  vertex -0.72346956 4.754153 -0.59095633
  vertex -0.72346956 3.7830946 -0.59095633
  vertex -0.71424574 3.7830946 -0.6008412
 endloop
endfacet
facet normal 0.7311321 0 0.68223596
 outer loop
  vertex -0.72346956 4.754153 -0.59095633
  vertex -0.71424574 3.7830946 -0.6008412
  vertex -0.71424574 4.754153 -0.6008412
 endloop
endfacet
facet normal 0 -0.7311365 0.68223125
 outer loop
  vertex -1.1397321 3.773871 -0.6008412
  vertex -0.72346956 3.773871 -0.6008412
  vertex -0.72346956 3.7830946 -0.59095633
 endloop
endfacet
facet normal 0 -0.7311365 0.68223125
 outer loop
  vertex -1.1397321 3.773871 -0.6008412
  vertex -0.72346956 3.7830946 -0.59095633
  vertex -1.1397321 3.7830946 -0.59095633
 endloop
endfacet
facet normal -0 0.73112774 0.68224066
 outer loop
  vertex -0.72346956 4.7633767 -0.6008412
  vertex -1.1397321 4.7633767 -0.6008412
  vertex -1.1397321 4.754153 -0.59095633
 endloop
endfacet
facet normal 0 0.73112774 0.68224066
 outer loop
  vertex -0.72346956 4.7633767 -0.6008412
  vertex -1.1397321 4.754153 -0.59095633
  vertex -0.72346956 4.754153 -0.59095633
 endloop
endfacet
facet normal -0.7311321 0 0.68223596
 outer loop
  vertex -1.148956 4.754153 -0.6008412
  vertex -1.148956 3.7830946 -0.6008412
  vertex -1.1397321 3.7830946 -0.59095633
 endloop
endfacet
facet normal -0.7311321 0 0.68223596
 outer loop
  vertex -1.148956 4.754153 -0.6008412
  vertex -1.1397321 3.7830946 -0.59095633
  vertex -1.1397321 4.754153 -0.59095633
 endloop
endfacet
facet normal -0.7071022 -0.70711136 -0
 outer loop
  vertex -1.1397321 3.773871 -1.0157816
  vertex -1.1397321 3.773871 -0.6008412
  vertex -1.148956 3.7830946 -0.6008412
 endloop
endfacet
facet normal -0.7071022 -0.70711136 0
 outer loop
  vertex -1.1397321 3.773871 -1.0157816
  vertex -1.148956 3.7830946 -0.6008412
  vertex -1.148956 3.7830946 -1.0157816
 endloop
endfacet
facet normal -0.70711136 0.70710224 0
 outer loop
  vertex -1.1397321 4.7633767 -0.6008412
  vertex -1.1397321 4.7633767 -1.0157816
  vertex -1.148956 4.754153 -1.0157816
 endloop
endfacet
facet normal -0.70711136 0.70710224 0
 outer loop
  vertex -1.1397321 4.7633767 -0.6008412
  vertex -1.148956 4.754153 -1.0157816
  vertex -1.148956 4.754153 -0.6008412
 endloop
endfacet
facet normal -0.73113006 0 -0.68223816
 outer loop
  vertex -1.1397321 4.754153 -1.0256665
  vertex -1.1397321 3.7830946 -1.0256665
  vertex -1.148956 3.7830946 -1.0157816
 endloop
endfacet
facet normal -0.73113006 -0 -0.68223816
 outer loop
  vertex -1.1397321 4.754153 -1.0256665
  vertex -1.148956 3.7830946 -1.0157816
  vertex -1.148956 4.754153 -1.0157816
 endloop
endfacet
facet normal 0 -0.7311345 -0.68223345
 outer loop
  vertex -0.72346956 3.773871 -1.0157816
  vertex -1.1397321 3.773871 -1.0157816
  vertex -1.1397321 3.7830946 -1.0256665
 endloop
endfacet
facet normal -0 -0.7311345 -0.68223345
 outer loop
  vertex -0.72346956 3.773871 -1.0157816
  vertex -1.1397321 3.7830946 -1.0256665
  vertex -0.72346956 3.7830946 -1.0256665
 endloop
endfacet
facet normal 0 0.73112565 -0.6822428
 outer loop
  vertex -1.1397321 4.7633767 -1.0157816
  vertex -0.72346956 4.7633767 -1.0157816
  vertex -0.72346956 4.754153 -1.0256665
 endloop
endfacet
facet normal 0 0.73112565 -0.6822428
 outer loop
  vertex -1.1397321 4.7633767 -1.0157816
  vertex -0.72346956 4.754153 -1.0256665
  vertex -1.1397321 4.754153 -1.0256665
 endloop
endfacet
facet normal -0.70711136 0.7071022 0
 outer loop
  vertex -0.79683554 4.754153 -0.9272724
  vertex -0.79683554 4.754153 -0.6893505
  vertex -0.7876117 4.7633767 -0.6695807
 endloop
endfacet
facet normal -0.7071113 0.7071022 0
 outer loop
  vertex -0.79683554 4.754153 -0.9272724
  vertex -0.7876117 4.7633767 -0.6695807
  vertex -0.7876117 4.7633767 -0.94704217
 endloop
endfacet
facet normal 0 0.73112774 -0.68224066
 outer loop
  vertex -0.80605936 4.754153 -0.6794656
  vertex -1.0571424 4.754153 -0.6794656
  vertex -1.07559 4.7633767 -0.6695807
 endloop
endfacet
facet normal 0 0.73112774 -0.68224066
 outer loop
  vertex -0.80605936 4.754153 -0.6794656
  vertex -1.07559 4.7633767 -0.6695807
  vertex -0.7876117 4.7633767 -0.6695807
 endloop
endfacet
facet normal 0.70711136 0.7071022 -0
 outer loop
  vertex -1.0663662 4.754153 -0.6893505
  vertex -1.0663662 4.754153 -0.9272724
  vertex -1.07559 4.7633767 -0.94704217
 endloop
endfacet
facet normal 0.7071113 0.7071022 0
 outer loop
  vertex -1.0663662 4.754153 -0.6893505
  vertex -1.07559 4.7633767 -0.94704217
  vertex -1.07559 4.7633767 -0.6695807
 endloop
endfacet
facet normal 0 0.73112774 0.68224066
 outer loop
  vertex -1.0571424 4.754153 -0.9371573
  vertex -0.80605936 4.754153 -0.9371573
  vertex -0.7876117 4.7633767 -0.94704217
 endloop
endfacet
facet normal -0 0.73112774 0.68224066
 outer loop
  vertex -1.0571424 4.754153 -0.9371573
  vertex -0.7876117 4.7633767 -0.94704217
  vertex -1.07559 4.7633767 -0.94704217
 endloop
endfacet
facet normal -0.70711136 0.7071022 0
 outer loop
  vertex -0.80605936 4.3454843 -0.9272724
  vertex -0.80605936 4.3454843 -0.6893505
  vertex -0.79683554 4.354708 -0.6893505
 endloop
endfacet
facet normal -0.70711136 0.7071022 0
 outer loop
  vertex -0.80605936 4.3454843 -0.9272724
  vertex -0.79683554 4.354708 -0.6893505
  vertex -0.79683554 4.354708 -0.9272724
 endloop
endfacet
facet normal 0 0.73112774 -0.68224066
 outer loop
  vertex -0.80605936 4.3454843 -0.6893505
  vertex -1.0571424 4.3454843 -0.6893505
  vertex -1.0571424 4.354708 -0.6794656
 endloop
endfacet
facet normal 0 0.73112774 -0.68224066
 outer loop
  vertex -0.80605936 4.3454843 -0.6893505
  vertex -1.0571424 4.354708 -0.6794656
  vertex -0.80605936 4.354708 -0.6794656
 endloop
endfacet
facet normal 0.70711136 0.7071022 -0
 outer loop
  vertex -1.0571424 4.3454843 -0.6893505
  vertex -1.0571424 4.3454843 -0.9272724
  vertex -1.0663662 4.354708 -0.9272724
 endloop
endfacet
facet normal 0.70711136 0.7071022 0
 outer loop
  vertex -1.0571424 4.3454843 -0.6893505
  vertex -1.0663662 4.354708 -0.9272724
  vertex -1.0663662 4.354708 -0.6893505
 endloop
endfacet
facet normal 0 0.73112774 0.68224066
 outer loop
  vertex -1.0571424 4.3454843 -0.9272724
  vertex -0.80605936 4.3454843 -0.9272724
  vertex -0.80605936 4.354708 -0.9371573
 endloop
endfacet
facet normal -0 0.73112774 0.68224066
 outer loop
  vertex -1.0571424 4.3454843 -0.9272724
  vertex -0.80605936 4.354708 -0.9371573
  vertex -1.0571424 4.354708 -0.9371573
 endloop
endfacet
facet normal -0.73113215 0 -0.68223596
 outer loop
  vertex -0.79683554 4.754153 -0.6893505
  vertex -0.79683554 4.354708 -0.6893505
  vertex -0.80605936 4.354708 -0.6794656
 endloop
endfacet
facet normal -0.73113215 -0 -0.68223596
 outer loop
  vertex -0.79683554 4.754153 -0.6893505
  vertex -0.80605936 4.354708 -0.6794656
  vertex -0.80605936 4.754153 -0.6794656
 endloop
endfacet
facet normal 0.73113215 0 -0.68223596
 outer loop
  vertex -1.0663662 4.354708 -0.6893505
  vertex -1.0663662 4.754153 -0.6893505
  vertex -1.0571424 4.754153 -0.6794656
 endloop
endfacet
facet normal 0.73113215 0 -0.68223596
 outer loop
  vertex -1.0663662 4.354708 -0.6893505
  vertex -1.0571424 4.754153 -0.6794656
  vertex -1.0571424 4.354708 -0.6794656
 endloop
endfacet
facet normal 0.73113215 0 0.68223596
 outer loop
  vertex -1.0571424 4.354708 -0.9371573
  vertex -1.0571424 4.754153 -0.9371573
  vertex -1.0663662 4.754153 -0.9272724
 endloop
endfacet
facet normal 0.73113215 -0 0.68223596
 outer loop
  vertex -1.0571424 4.354708 -0.9371573
  vertex -1.0663662 4.754153 -0.9272724
  vertex -1.0663662 4.354708 -0.9272724
 endloop
endfacet
facet normal -0.73113215 0 0.68223596
 outer loop
  vertex -0.80605936 4.754153 -0.9371573
  vertex -0.80605936 4.354708 -0.9371573
  vertex -0.79683554 4.354708 -0.9272724
 endloop
endfacet
facet normal -0.73113215 0 0.68223596
 outer loop
  vertex -0.80605936 4.754153 -0.9371573
  vertex -0.79683554 4.354708 -0.9272724
  vertex -0.79683554 4.754153 -0.9272724
 endloop
endfacet
facet normal 0.5638246 -0.465458 -0.6822394
 outer loop
  vertex -0.005872163 5.1347365 -2.186775
  vertex -1.9079827 2.8306472 -2.186775
  vertex -1.9275581 2.8214235 -2.1966598
 endloop
endfacet
facet normal 0.56382173 -0.46545562 -0.68224335
 outer loop
  vertex -0.005872163 5.1347365 -2.186775
  vertex -1.9275581 2.8214235 -2.1966598
  vertex 0 5.156338 -2.1966598
 endloop
endfacet
facet normal -0.5638255 -0.46545878 -0.6822382
 outer loop
  vertex 1.9079828 2.8306472 -2.186775
  vertex 0.0058721686 5.1347365 -2.186775
  vertex 0 5.156338 -2.1966598
 endloop
endfacet
facet normal -0.56382173 -0.46545565 -0.68224335
 outer loop
  vertex 1.9079828 2.8306472 -2.186775
  vertex 0 5.156338 -2.1966598
  vertex 1.9275582 2.8214235 -2.1966598
 endloop
endfacet
facet normal 0 0 -1
 outer loop
  vertex 0 5.1261735 -2.1225321
  vertex -1.8892014 2.8376741 -2.1225321
  vertex -1.9079827 2.8306472 -2.1225321
 endloop
endfacet
facet normal 0.540924 -0.44960222 -0.7108157
 outer loop
  vertex 0 5.1261735 -2.1225321
  vertex -1.9079827 2.8306472 -2.1225321
  vertex -0.0058721676 5.1347365 -2.132417
 endloop
endfacet
facet normal 0 -0 -1
 outer loop
  vertex 1.9079828 2.8306472 -2.1225321
  vertex -1.9079827 2.8306472 -2.1225321
  vertex -1.8892014 2.8376741 -2.1225321
 endloop
endfacet
facet normal -0 -0 -1
 outer loop
  vertex 1.9079828 2.8306472 -2.1225321
  vertex -1.8892014 2.8376741 -2.1225321
  vertex 1.8892015 2.8376741 -2.1225321
 endloop
endfacet
facet normal -0.5426885 -0.44800013 -0.7104823
 outer loop
  vertex 1.8892015 2.8376741 -2.1225321
  vertex 0 5.1261735 -2.1225321
  vertex 0.005872164 5.1347365 -2.132417
 endloop
endfacet
facet normal -0.0023224242 -0.006207289 -0.999978
 outer loop
  vertex 1.8892015 2.8376741 -2.1225321
  vertex 0.005872164 5.1347365 -2.132417
  vertex 1.9079828 2.8306472 -2.1225321
 endloop
endfacet
facet normal 0 -1 0
 outer loop
  vertex -0.0058721676 5.1347365 -2.132417
  vertex -0.005872163 5.1347365 -2.186775
  vertex 0.0058721686 5.1347365 -2.186775
 endloop
endfacet
facet normal -0 -1 -0
 outer loop
  vertex -0.0058721676 5.1347365 -2.132417
  vertex 0.0058721686 5.1347365 -2.186775
  vertex 0.005872164 5.1347365 -2.132417
 endloop
endfacet
facet normal 0 -0.7311344 0.6822334
 outer loop
  vertex -1.9079828 2.8306472 2.186775
  vertex 1.9079827 2.8306472 2.186775
  vertex 1.9003681 2.839871 2.1966598
 endloop
endfacet
facet normal 0 -0.7311344 0.6822334
 outer loop
  vertex -1.9079828 2.8306472 2.186775
  vertex 1.9003681 2.839871 2.1966598
  vertex -1.9003682 2.839871 2.1966598
 endloop
endfacet
facet normal -0.09515183 0.9954628 1.2157224e-10
 outer loop
  vertex -0.020098453 5.251407 -2.186775
  vertex -0.020098448 5.251407 2.186775
  vertex -0.007113143 5.2526484 2.186775
 endloop
endfacet
facet normal -0.09515178 0.9954628 0
 outer loop
  vertex -0.020098453 5.251407 -2.186775
  vertex -0.007113143 5.2526484 2.186775
  vertex -0.007113143 5.2526484 -2.186775
 endloop
endfacet
facet normal -0.9954647 -0.09513254 -0
 outer loop
  vertex -2.0568616 2.76972 -2.186775
  vertex -2.0568616 2.76972 2.186775
  vertex -2.0581026 2.7827055 2.186775
 endloop
endfacet
facet normal -0.9954647 -0.09513254 0
 outer loop
  vertex -2.0568616 2.76972 -2.186775
  vertex -2.0581026 2.7827055 2.186775
  vertex -2.0581026 2.7827055 -2.186775
 endloop
endfacet
facet normal -0.5638219 0.46545577 0.6822431
 outer loop
  vertex -0.020098448 5.251407 2.186775
  vertex -2.0581026 2.7827055 2.186775
  vertex -2.0509894 2.7768333 2.1966598
 endloop
endfacet
facet normal -0.5638214 0.46545532 0.6822439
 outer loop
  vertex -0.020098448 5.251407 2.186775
  vertex -2.0509894 2.7768333 2.1966598
  vertex -0.0129853105 5.245535 2.1966598
 endloop
endfacet
facet normal -0.5638219 0.46545577 -0.6822431
 outer loop
  vertex -0.01298531 5.245535 -2.1966598
  vertex -2.0509894 2.7768333 -2.1966598
  vertex -2.0581026 2.7827055 -2.186775
 endloop
endfacet
facet normal -0.5638214 0.46545532 -0.6822439
 outer loop
  vertex -0.01298531 5.245535 -2.1966598
  vertex -2.0581026 2.7827055 -2.186775
  vertex -0.020098453 5.251407 -2.186775
 endloop
endfacet
facet normal -0 0.8116754 0.5841087
 outer loop
  vertex -0.007113141 5.2526484 2.186775
  vertex -0.007113143 5.2526484 2.186775
  vertex -0.0129853105 5.245535 2.1966598
 endloop
endfacet
facet normal 0.46545088 0.5638196 0.6822484
 outer loop
  vertex -0.007113141 5.2526484 2.186775
  vertex -0.0129853105 5.245535 2.1966598
  vertex -9.067642e-09 5.234815 2.1966598
 endloop
endfacet
facet normal -0.46545506 -0.56382257 0.6822432
 outer loop
  vertex -2.0568616 2.76972 2.186775
  vertex -2.0497487 2.763848 2.186775
  vertex -2.0438764 2.7709613 2.1966598
 endloop
endfacet
facet normal -0.46545506 -0.56382257 0.6822433
 outer loop
  vertex -2.0568616 2.76972 2.186775
  vertex -2.0438764 2.7709613 2.1966598
  vertex -2.0509894 2.7768333 2.1966598
 endloop
endfacet
facet normal -0.46545506 -0.56382257 -0.6822432
 outer loop
  vertex -2.0497487 2.763848 -2.186775
  vertex -2.0568616 2.76972 -2.186775
  vertex -2.0509894 2.7768333 -2.1966598
 endloop
endfacet
facet normal -0.46545506 -0.56382257 -0.6822432
 outer loop
  vertex -2.0497487 2.763848 -2.186775
  vertex -2.0509894 2.7768333 -2.1966598
  vertex -2.0438764 2.7709613 -2.1966598
 endloop
endfacet
facet normal 0 0.48479882 -0.87462574
 outer loop
  vertex -0.007113143 5.2526484 -2.186775
  vertex -0.007113141 5.2526484 -2.186775
  vertex -8.113153e-09 5.234815 -2.1966598
 endloop
endfacet
facet normal 0.46545094 0.5638197 -0.6822483
 outer loop
  vertex -0.007113143 5.2526484 -2.186775
  vertex -8.113153e-09 5.234815 -2.1966598
  vertex -0.01298531 5.245535 -2.1966598
 endloop
endfacet
facet normal 0.9954628 -0.09515238 0
 outer loop
  vertex 2.058818 2.7713354 2.186775
  vertex 2.058818 2.7713354 -2.186775
  vertex 2.0600593 2.7843206 -2.186775
 endloop
endfacet
facet normal 0.9954628 -0.09515238 0
 outer loop
  vertex 2.058818 2.7713354 2.186775
  vertex 2.0600593 2.7843206 -2.186775
  vertex 2.0600593 2.7843206 2.186775
 endloop
endfacet
facet normal 0.56382346 0.4654571 -0.682241
 outer loop
  vertex 2.0529459 2.7784483 -2.1966598
  vertex 0.014941736 5.24715 -2.1966598
  vertex 0.022054883 5.253022 -2.186775
 endloop
endfacet
facet normal 0.56381714 0.4654519 -0.6822498
 outer loop
  vertex 2.0529459 2.7784483 -2.1966598
  vertex 0.022054883 5.253022 -2.186775
  vertex 2.0600593 2.7843206 -2.186775
 endloop
endfacet
facet normal 0.095151745 0.9954628 -6.078607e-11
 outer loop
  vertex 0.009069568 5.2542634 -2.186775
  vertex 0.00906957 5.2542634 2.186775
  vertex 0.022054886 5.253022 2.186775
 endloop
endfacet
facet normal 0.09515175 0.9954628 -8.10481e-11
 outer loop
  vertex 0.009069568 5.2542634 -2.186775
  vertex 0.022054886 5.253022 2.186775
  vertex 0.022054883 5.253022 -2.186775
 endloop
endfacet
facet normal 0.5638167 0.46545148 0.68225044
 outer loop
  vertex 0.014941737 5.24715 2.1966598
  vertex 2.0529459 2.7784483 2.1966598
  vertex 2.0600593 2.7843206 2.186775
 endloop
endfacet
facet normal 0.5638214 0.46545538 0.6822439
 outer loop
  vertex 0.014941737 5.24715 2.1966598
  vertex 2.0600593 2.7843206 2.186775
  vertex 0.022054886 5.253022 2.186775
 endloop
endfacet
facet normal 0.46545637 -0.5638302 -0.6822359
 outer loop
  vertex 2.0438764 2.7709613 -2.1966598
  vertex 2.0529459 2.7784483 -2.1966598
  vertex 2.058818 2.7713354 -2.186775
 endloop
endfacet
facet normal 0.46546087 -0.56381774 -0.6822432
 outer loop
  vertex 2.0438764 2.7709613 -2.1966598
  vertex 2.058818 2.7713354 -2.186775
  vertex 2.0497487 2.763848 -2.186775
 endloop
endfacet
facet normal 0.46545205 -0.563825 0.68224317
 outer loop
  vertex 2.0529459 2.7784483 2.1966598
  vertex 2.0438764 2.7709613 2.1966598
  vertex 2.0497487 2.763848 2.186775
 endloop
endfacet
facet normal 0.46546522 -0.563823 0.68223596
 outer loop
  vertex 2.0529459 2.7784483 2.1966598
  vertex 2.0497487 2.763848 2.186775
  vertex 2.058818 2.7713354 2.186775
 endloop
endfacet
facet normal -0.46544 0.5638199 0.68225557
 outer loop
  vertex 0.00906957 5.2542634 2.186775
  vertex 0.007113151 5.2526484 2.186775
  vertex -9.067642e-09 5.234815 2.1966598
 endloop
endfacet
facet normal -0.4654496 0.5638208 0.6822484
 outer loop
  vertex 0.00906957 5.2542634 2.186775
  vertex -9.067642e-09 5.234815 2.1966598
  vertex 0.014941737 5.24715 2.1966598
 endloop
endfacet
facet normal -0.4654443 0.5638251 -0.6822485
 outer loop
  vertex 0.007113148 5.2526484 -2.186775
  vertex 0.009069568 5.2542634 -2.186775
  vertex 0.014941736 5.24715 -2.1966598
 endloop
endfacet
facet normal -0.46544904 0.56382006 -0.68224937
 outer loop
  vertex 0.007113148 5.2526484 -2.186775
  vertex 0.014941736 5.24715 -2.1966598
  vertex -8.113153e-09 5.234815 -2.1966598
 endloop
endfacet
facet normal -0.63945305 0.26797 -0.72061914
 outer loop
  vertex -0.003564979 4.298407 -2.132417
  vertex -0.37533823 3.4112499 -2.132417
  vertex -0.39211398 3.3978002 -2.1225321
 endloop
endfacet
facet normal -0.64070606 0.26852512 -0.71929824
 outer loop
  vertex -0.003564979 4.298407 -2.132417
  vertex -0.39211398 3.3978002 -2.1225321
  vertex 0 4.3333917 -2.1225321
 endloop
endfacet
facet normal 0 -0.89441854 -0.44723085
 outer loop
  vertex 0.39211413 3.3978002 -2.1225321
  vertex -0.39211398 3.3978002 -2.1225321
  vertex -0.36967936 3.4027429 -2.132417
 endloop
endfacet
facet normal -0 -0.8944186 -0.44723088
 outer loop
  vertex 0.39211413 3.3978002 -2.1225321
  vertex -0.36967936 3.4027429 -2.132417
  vertex 0.36967948 3.4027429 -2.132417
 endloop
endfacet
facet normal 0.6407606 0.26851806 -0.71925235
 outer loop
  vertex 0.37533835 3.4112499 -2.132417
  vertex 0.003564986 4.298407 -2.132417
  vertex 0 4.3333917 -2.1225321
 endloop
endfacet
facet normal 0.6394656 0.26800534 -0.7205948
 outer loop
  vertex 0.37533835 3.4112499 -2.132417
  vertex 0 4.3333917 -2.1225321
  vertex 0.39211413 3.3978002 -2.1225321
 endloop
endfacet
facet normal -0.6743243 0.28258336 -0.6822268
 outer loop
  vertex 3.6804453e-09 4.2830486 -2.1850078
  vertex -0.36503685 3.4119668 -2.1850078
  vertex -0.3753382 3.4112499 -2.1751227
 endloop
endfacet
facet normal -0.6743189 0.2825809 -0.6822331
 outer loop
  vertex 3.6804453e-09 4.2830486 -2.1850078
  vertex -0.3753382 3.4112499 -2.1751227
  vertex -0.0035649848 4.298407 -2.1751227
 endloop
endfacet
facet normal 0 -0.7311338 -0.68223405
 outer loop
  vertex 0.36967948 3.4027429 -2.1751227
  vertex -0.36967936 3.4027429 -2.1751227
  vertex -0.36503685 3.4119668 -2.1850078
 endloop
endfacet
facet normal -0 -0.7311339 -0.68223405
 outer loop
  vertex 0.36967948 3.4027429 -2.1751227
  vertex -0.36503685 3.4119668 -2.1850078
  vertex 0.36503696 3.4119668 -2.1850078
 endloop
endfacet
facet normal 0.67431813 0.28258088 -0.6822339
 outer loop
  vertex 0.36503696 3.4119668 -2.1850078
  vertex 3.6804453e-09 4.2830486 -2.1850078
  vertex 0.0035649799 4.298407 -2.1751227
 endloop
endfacet
facet normal 0.674322 0.28258237 -0.6822294
 outer loop
  vertex 0.36503696 3.4119668 -2.1850078
  vertex 0.0035649799 4.298407 -2.1751227
  vertex 0.37533838 3.4112499 -2.1751227
 endloop
endfacet
facet normal 0.8326122 -0.5538565 0
 outer loop
  vertex 0.36967948 3.4027429 -2.132417
  vertex 0.36967948 3.4027429 -2.1751227
  vertex 0.37533838 3.4112499 -2.1751227
 endloop
endfacet
facet normal 0.8326135 -0.55385447 5.810412e-07
 outer loop
  vertex 0.36967948 3.4027429 -2.132417
  vertex 0.37533838 3.4112499 -2.1751227
  vertex 0.37533835 3.4112499 -2.132417
 endloop
endfacet
facet normal 0 1 0
 outer loop
  vertex -0.0035649848 4.298407 -2.1751227
  vertex -0.003564979 4.298407 -2.132417
  vertex 0.003564986 4.298407 -2.132417
 endloop
endfacet
facet normal 0 1 -0
 outer loop
  vertex -0.0035649848 4.298407 -2.1751227
  vertex 0.003564986 4.298407 -2.132417
  vertex 0.0035649799 4.298407 -2.1751227
 endloop
endfacet
facet normal -0.83261484 -0.55385244 -5.810422e-07
 outer loop
  vertex -0.37533823 3.4112499 -2.132417
  vertex -0.3753382 3.4112499 -2.1751227
  vertex -0.36967936 3.4027429 -2.1751227
 endloop
endfacet
facet normal -0.8326135 -0.55385447 -0
 outer loop
  vertex -0.37533823 3.4112499 -2.132417
  vertex -0.36967936 3.4027429 -2.1751227
  vertex -0.36967936 3.4027429 -2.132417
 endloop
endfacet
facet normal 0.67431974 -0.28258124 -0.68223226
 outer loop
  vertex -0.0035649503 4.1119223 -2.1751227
  vertex -0.26698548 3.4833255 -2.1751227
  vertex -0.2844168 3.4655948 -2.1850078
 endloop
endfacet
facet normal 0.67432 -0.28258133 -0.68223196
 outer loop
  vertex -0.0035649503 4.1119223 -2.1751227
  vertex -0.2844168 3.4655948 -2.1850078
  vertex 2.5078828e-08 4.1442947 -2.1850078
 endloop
endfacet
facet normal 0 0.7311338 -0.68223405
 outer loop
  vertex 0.2844169 3.4655948 -2.1850078
  vertex -0.2844168 3.4655948 -2.1850078
  vertex -0.2613266 3.4748187 -2.1751227
 endloop
endfacet
facet normal 0 0.7311339 -0.6822341
 outer loop
  vertex 0.2844169 3.4655948 -2.1850078
  vertex -0.2613266 3.4748187 -2.1751227
  vertex 0.26132673 3.4748187 -2.1751227
 endloop
endfacet
facet normal -0.67431986 -0.28258133 -0.682232
 outer loop
  vertex 0.26698557 3.4833255 -2.1751227
  vertex 0.0035650146 4.1119223 -2.1751227
  vertex 2.5078828e-08 4.1442947 -2.1850078
 endloop
endfacet
facet normal -0.67431927 -0.2825811 -0.68223274
 outer loop
  vertex 0.26698557 3.4833255 -2.1751227
  vertex 2.5078828e-08 4.1442947 -2.1850078
  vertex 0.2844169 3.4655948 -2.1850078
 endloop
endfacet
facet normal -0.832605 0.5538672 0
 outer loop
  vertex 0.26132673 3.4748187 -2.1751227
  vertex 0.26132673 3.4748187 -2.1225321
  vertex 0.26698563 3.4833255 -2.1225321
 endloop
endfacet
facet normal -0.8326077 0.55386317 9.4365305e-07
 outer loop
  vertex 0.26132673 3.4748187 -2.1751227
  vertex 0.26698563 3.4833255 -2.1225321
  vertex 0.26698557 3.4833255 -2.1751227
 endloop
endfacet
facet normal 0 -1 0
 outer loop
  vertex -0.0035649561 4.1119223 -2.1225321
  vertex -0.0035649503 4.1119223 -2.1751227
  vertex 0.0035650146 4.1119223 -2.1751227
 endloop
endfacet
facet normal -0 -1 -0
 outer loop
  vertex -0.0035649561 4.1119223 -2.1225321
  vertex 0.0035650146 4.1119223 -2.1751227
  vertex 0.0035650092 4.1119223 -2.1225321
 endloop
endfacet
facet normal 0.8326077 0.5538632 -4.7182652e-07
 outer loop
  vertex -0.26698548 3.4833255 -2.1751227
  vertex -0.26698545 3.4833255 -2.1225321
  vertex -0.2613266 3.4748187 -2.1225321
 endloop
endfacet
facet normal 0.8326063 0.5538652 -0
 outer loop
  vertex -0.26698548 3.4833255 -2.1751227
  vertex -0.2613266 3.4748187 -2.1225321
  vertex -0.2613266 3.4748187 -2.1751227
 endloop
endfacet
facet normal 0.63663626 -0.77116424 0
 outer loop
  vertex 2.0497487 2.763848 2.186775
  vertex 2.0497487 2.763848 -2.186775
  vertex 2.058818 2.7713354 -2.186775
 endloop
endfacet
facet normal 0.63663626 -0.77116424 0
 outer loop
  vertex 2.0497487 2.763848 2.186775
  vertex 2.058818 2.7713354 -2.186775
  vertex 2.058818 2.7713354 2.186775
 endloop
endfacet
endsolid 
