solid 
facet normal -0.38268197 0 0.9238801
 outer loop
  vertex -2.1250672 0.4863515 3.343481
  vertex -2.1250672 1.619621 3.343481
  vertex -2.2200642 1.619621 3.3041322
 endloop
endfacet
facet normal -0.38268197 0 0.9238801
 outer loop
  vertex -2.1250672 0.4863515 3.343481
  vertex -2.2200642 1.619621 3.3041322
  vertex -2.2200642 0.4863515 3.3041322
 endloop
endfacet
facet normal -0.9238796 0 0.38268313
 outer loop
  vertex -2.2200642 0.4863515 3.3041322
  vertex -2.2200642 1.619621 3.3041322
  vertex -2.2594132 1.619621 3.209135
 endloop
endfacet
facet normal -0.9238796 0 0.38268313
 outer loop
  vertex -2.2200642 0.4863515 3.3041322
  vertex -2.2594132 1.619621 3.209135
  vertex -2.2594132 0.4863515 3.209135
 endloop
endfacet
facet normal -0.9238796 -0 -0.38268313
 outer loop
  vertex -2.2594132 0.4863515 3.209135
  vertex -2.2594132 1.619621 3.209135
  vertex -2.2200642 1.619621 3.114138
 endloop
endfacet
facet normal -0.9238796 0 -0.38268313
 outer loop
  vertex -2.2594132 0.4863515 3.209135
  vertex -2.2200642 1.619621 3.114138
  vertex -2.2200642 0.4863515 3.114138
 endloop
endfacet
facet normal -0.38268197 -0 -0.9238801
 outer loop
  vertex -2.2200642 0.4863515 3.114138
  vertex -2.2200642 1.619621 3.114138
  vertex -2.1250672 1.619621 3.074789
 endloop
endfacet
facet normal -0.38268197 0 -0.9238801
 outer loop
  vertex -2.2200642 0.4863515 3.114138
  vertex -2.1250672 1.619621 3.074789
  vertex -2.1250672 0.4863515 3.074789
 endloop
endfacet
facet normal 0.38268033 0 -0.9238808
 outer loop
  vertex -2.1250672 0.4863515 3.074789
  vertex -2.1250672 1.619621 3.074789
  vertex -2.0300698 1.619621 3.114138
 endloop
endfacet
facet normal 0.38268033 0 -0.9238808
 outer loop
  vertex -2.1250672 0.4863515 3.074789
  vertex -2.0300698 1.619621 3.114138
  vertex -2.0300698 0.4863515 3.114138
 endloop
endfacet
facet normal 0.9238796 0 -0.38268313
 outer loop
  vertex -2.0300698 0.4863515 3.114138
  vertex -2.0300698 1.619621 3.114138
  vertex -1.9907207 1.619621 3.209135
 endloop
endfacet
facet normal 0.9238796 0 -0.38268313
 outer loop
  vertex -2.0300698 0.4863515 3.114138
  vertex -1.9907207 1.619621 3.209135
  vertex -1.9907207 0.4863515 3.209135
 endloop
endfacet
facet normal 0.9238796 0 0.38268313
 outer loop
  vertex -1.9907207 0.4863515 3.209135
  vertex -1.9907207 1.619621 3.209135
  vertex -2.0300698 1.619621 3.3041322
 endloop
endfacet
facet normal 0.9238796 -0 0.38268313
 outer loop
  vertex -1.9907207 0.4863515 3.209135
  vertex -2.0300698 1.619621 3.3041322
  vertex -2.0300698 0.4863515 3.3041322
 endloop
endfacet
facet normal 0.38268033 0 0.9238808
 outer loop
  vertex -2.0300698 0.4863515 3.3041322
  vertex -2.0300698 1.619621 3.3041322
  vertex -2.1250672 1.619621 3.343481
 endloop
endfacet
facet normal 0.38268033 -0 0.9238808
 outer loop
  vertex -2.0300698 0.4863515 3.3041322
  vertex -2.1250672 1.619621 3.343481
  vertex -2.1250672 0.4863515 3.343481
 endloop
endfacet
facet normal -0.38268322 0 0.9238796
 outer loop
  vertex 3.3909526 0.41238493 -1.129636
  vertex 3.3909526 2.0263617 -1.129636
  vertex 3.2089176 2.0263617 -1.2050374
 endloop
endfacet
facet normal -0.38268322 0 0.9238796
 outer loop
  vertex 3.3909526 0.41238493 -1.129636
  vertex 3.2089176 2.0263617 -1.2050374
  vertex 3.2089176 0.41238493 -1.2050374
 endloop
endfacet
facet normal -0.9238794 0 0.3826838
 outer loop
  vertex 3.2089176 0.41238493 -1.2050374
  vertex 3.2089176 2.0263617 -1.2050374
  vertex 3.133516 2.0263617 -1.3870726
 endloop
endfacet
facet normal -0.9238794 0 0.3826838
 outer loop
  vertex 3.2089176 0.41238493 -1.2050374
  vertex 3.133516 2.0263617 -1.3870726
  vertex 3.133516 0.41238493 -1.3870726
 endloop
endfacet
facet normal -0.92387956 -0 -0.3826834
 outer loop
  vertex 3.133516 0.41238493 -1.3870726
  vertex 3.133516 2.0263617 -1.3870726
  vertex 3.2089176 2.0263617 -1.569108
 endloop
endfacet
facet normal -0.92387956 0 -0.3826834
 outer loop
  vertex 3.133516 0.41238493 -1.3870726
  vertex 3.2089176 2.0263617 -1.569108
  vertex 3.2089176 0.41238493 -1.569108
 endloop
endfacet
facet normal -0.38268322 -0 -0.9238796
 outer loop
  vertex 3.2089176 0.41238493 -1.569108
  vertex 3.2089176 2.0263617 -1.569108
  vertex 3.3909526 2.0263617 -1.6445093
 endloop
endfacet
facet normal -0.38268322 0 -0.9238796
 outer loop
  vertex 3.2089176 0.41238493 -1.569108
  vertex 3.3909526 2.0263617 -1.6445093
  vertex 3.3909526 0.41238493 -1.6445093
 endloop
endfacet
facet normal 0.3826828 0 -0.9238798
 outer loop
  vertex 3.3909526 0.41238493 -1.6445093
  vertex 3.3909526 2.0263617 -1.6445093
  vertex 3.5729878 2.0263617 -1.569108
 endloop
endfacet
facet normal 0.3826828 0 -0.9238798
 outer loop
  vertex 3.3909526 0.41238493 -1.6445093
  vertex 3.5729878 2.0263617 -1.569108
  vertex 3.5729878 0.41238493 -1.569108
 endloop
endfacet
facet normal 0.92387956 0 -0.3826834
 outer loop
  vertex 3.5729878 0.41238493 -1.569108
  vertex 3.5729878 2.0263617 -1.569108
  vertex 3.6483893 2.0263617 -1.3870726
 endloop
endfacet
facet normal 0.92387956 0 -0.3826834
 outer loop
  vertex 3.5729878 0.41238493 -1.569108
  vertex 3.6483893 2.0263617 -1.3870726
  vertex 3.6483893 0.41238493 -1.3870726
 endloop
endfacet
facet normal 0.9238794 0 0.3826838
 outer loop
  vertex 3.6483893 0.41238493 -1.3870726
  vertex 3.6483893 2.0263617 -1.3870726
  vertex 3.5729878 2.0263617 -1.2050374
 endloop
endfacet
facet normal 0.9238794 -0 0.3826838
 outer loop
  vertex 3.6483893 0.41238493 -1.3870726
  vertex 3.5729878 2.0263617 -1.2050374
  vertex 3.5729878 0.41238493 -1.2050374
 endloop
endfacet
facet normal 0.3826828 0 0.9238798
 outer loop
  vertex 3.5729878 0.41238493 -1.2050374
  vertex 3.5729878 2.0263617 -1.2050374
  vertex 3.3909526 2.0263617 -1.129636
 endloop
endfacet
facet normal 0.3826828 -0 0.9238798
 outer loop
  vertex 3.5729878 0.41238493 -1.2050374
  vertex 3.3909526 2.0263617 -1.129636
  vertex 3.3909526 0.41238493 -1.129636
 endloop
endfacet
facet normal -0.3826838 0 0.9238794
 outer loop
  vertex 3.3569372 0.4123848 1.8791802
  vertex 3.3569372 2.0263615 1.8791802
  vertex 3.174902 2.0263615 1.8037786
 endloop
endfacet
facet normal -0.3826838 0 0.9238794
 outer loop
  vertex 3.3569372 0.4123848 1.8791802
  vertex 3.174902 2.0263615 1.8037786
  vertex 3.174902 0.4123848 1.8037786
 endloop
endfacet
facet normal -0.9238794 0 0.3826838
 outer loop
  vertex 3.174902 0.4123848 1.8037786
  vertex 3.174902 2.0263615 1.8037786
  vertex 3.0995004 2.0263615 1.6217434
 endloop
endfacet
facet normal -0.9238794 0 0.3826838
 outer loop
  vertex 3.174902 0.4123848 1.8037786
  vertex 3.0995004 2.0263615 1.6217434
  vertex 3.0995004 0.4123848 1.6217434
 endloop
endfacet
facet normal -0.9238793 -0 -0.38268408
 outer loop
  vertex 3.0995004 0.4123848 1.6217434
  vertex 3.0995004 2.0263615 1.6217434
  vertex 3.174902 2.0263615 1.4397084
 endloop
endfacet
facet normal -0.9238793 0 -0.38268408
 outer loop
  vertex 3.0995004 0.4123848 1.6217434
  vertex 3.174902 2.0263615 1.4397084
  vertex 3.174902 0.4123848 1.4397084
 endloop
endfacet
facet normal -0.38268328 -0 -0.9238795
 outer loop
  vertex 3.174902 0.4123848 1.4397084
  vertex 3.174902 2.0263615 1.4397084
  vertex 3.3569372 2.0263615 1.3643069
 endloop
endfacet
facet normal -0.38268328 0 -0.9238795
 outer loop
  vertex 3.174902 0.4123848 1.4397084
  vertex 3.3569372 2.0263615 1.3643069
  vertex 3.3569372 0.4123848 1.3643069
 endloop
endfacet
facet normal 0.38268328 0 -0.9238795
 outer loop
  vertex 3.3569372 0.4123848 1.3643069
  vertex 3.3569372 2.0263615 1.3643069
  vertex 3.5389724 2.0263615 1.4397084
 endloop
endfacet
facet normal 0.38268328 0 -0.9238795
 outer loop
  vertex 3.3569372 0.4123848 1.3643069
  vertex 3.5389724 2.0263615 1.4397084
  vertex 3.5389724 0.4123848 1.4397084
 endloop
endfacet
facet normal 0.9238797 0 -0.382683
 outer loop
  vertex 3.5389724 0.4123848 1.4397084
  vertex 3.5389724 2.0263615 1.4397084
  vertex 3.6143737 2.0263615 1.6217434
 endloop
endfacet
facet normal 0.9238797 0 -0.382683
 outer loop
  vertex 3.5389724 0.4123848 1.4397084
  vertex 3.6143737 2.0263615 1.6217434
  vertex 3.6143737 0.4123848 1.6217434
 endloop
endfacet
facet normal 0.9238798 0 0.3826828
 outer loop
  vertex 3.6143737 0.4123848 1.6217434
  vertex 3.6143737 2.0263615 1.6217434
  vertex 3.5389724 2.0263615 1.8037786
 endloop
endfacet
facet normal 0.9238798 -0 0.3826828
 outer loop
  vertex 3.6143737 0.4123848 1.6217434
  vertex 3.5389724 2.0263615 1.8037786
  vertex 3.5389724 0.4123848 1.8037786
 endloop
endfacet
facet normal 0.3826838 0 0.9238794
 outer loop
  vertex 3.5389724 0.4123848 1.8037786
  vertex 3.5389724 2.0263615 1.8037786
  vertex 3.3569372 2.0263615 1.8791802
 endloop
endfacet
facet normal 0.3826838 -0 0.9238794
 outer loop
  vertex 3.5389724 0.4123848 1.8037786
  vertex 3.3569372 2.0263615 1.8791802
  vertex 3.3569372 0.4123848 1.8791802
 endloop
endfacet
facet normal 0 0 1
 outer loop
  vertex -0.322613 0.15500051 -2.0713947
  vertex 0.32261276 0.15500051 -2.0713947
  vertex 0.32261276 2.049058 -2.0713947
 endloop
endfacet
facet normal -0 0 1
 outer loop
  vertex -0.322613 0.15500051 -2.0713947
  vertex 0.32261276 2.049058 -2.0713947
  vertex -0.322613 2.049058 -2.0713947
 endloop
endfacet
facet normal -0 -0 -1
 outer loop
  vertex -0.322613 0.2354877 -1.9391732
  vertex -0.322613 2.129545 -1.9391732
  vertex 0.32261276 2.129545 -1.9391732
 endloop
endfacet
facet normal -0 0 -1
 outer loop
  vertex -0.322613 0.2354877 -1.9391732
  vertex 0.32261276 2.129545 -1.9391732
  vertex 0.32261276 0.2354877 -1.9391732
 endloop
endfacet
facet normal -1 0 -0
 outer loop
  vertex 0.32261276 2.049058 -2.0713947
  vertex 0.32261276 0.15500051 -2.0713947
  vertex 0.32261276 0.2354877 -1.9391732
 endloop
endfacet
facet normal -1 -0 -0
 outer loop
  vertex 0.32261276 2.049058 -2.0713947
  vertex 0.32261276 0.2354877 -1.9391732
  vertex 0.32261276 2.129545 -1.9391732
 endloop
endfacet
facet normal 0 0.85418546 -0.51996845
 outer loop
  vertex 0.32261276 0.15500051 -2.0713947
  vertex -0.322613 0.15500051 -2.0713947
  vertex -0.322613 0.2354877 -1.9391732
 endloop
endfacet
facet normal 0 0.85418546 -0.51996845
 outer loop
  vertex 0.32261276 0.15500051 -2.0713947
  vertex -0.322613 0.2354877 -1.9391732
  vertex 0.32261276 0.2354877 -1.9391732
 endloop
endfacet
facet normal 0 -0.854186 0.5199676
 outer loop
  vertex -0.322613 2.049058 -2.0713947
  vertex 0.32261276 2.049058 -2.0713947
  vertex 0.32261276 2.129545 -1.9391732
 endloop
endfacet
facet normal 0 -0.854186 0.5199676
 outer loop
  vertex -0.322613 2.049058 -2.0713947
  vertex 0.32261276 2.129545 -1.9391732
  vertex -0.322613 2.129545 -1.9391732
 endloop
endfacet
facet normal 1 0 0
 outer loop
  vertex -0.322613 0.15500051 -2.0713947
  vertex -0.322613 2.049058 -2.0713947
  vertex -0.322613 2.129545 -1.9391732
 endloop
endfacet
facet normal 1 -0 0
 outer loop
  vertex -0.322613 0.15500051 -2.0713947
  vertex -0.322613 2.129545 -1.9391732
  vertex -0.322613 0.2354877 -1.9391732
 endloop
endfacet
endsolid 
