solid 
facet normal -0.09368284 0.29409128 0.951175
 outer loop
  vertex -1.1006655e-08 -0.55763936 5.965593
  vertex 0 0.5710442 5.616618
  vertex -1.095748 0.5710442 5.508696
 endloop
endfacet
facet normal -0.09368266 0.2940914 0.9511749
 outer loop
  vertex -1.1006655e-08 -0.55763936 5.965593
  vertex -1.095748 0.5710442 5.508696
  vertex -1.1638296 -0.55763936 5.8509655
 endloop
endfacet
facet normal -0.2774474 0.29409146 0.9146219
 outer loop
  vertex -1.1638296 -0.55763936 5.8509655
  vertex -1.095748 0.5710442 5.508696
  vertex -2.149387 0.5710442 5.1890783
 endloop
endfacet
facet normal -0.27744797 0.294091 0.9146219
 outer loop
  vertex -1.1638296 -0.55763936 5.8509655
  vertex -2.149387 0.5710442 5.1890783
  vertex -2.2829337 -0.55763936 5.5114884
 endloop
endfacet
facet normal -0.45055026 0.29409096 0.8429204
 outer loop
  vertex -2.2829337 -0.55763936 5.5114884
  vertex -2.149387 0.5710442 5.1890783
  vertex -3.120426 0.5710442 4.6700473
 endloop
endfacet
facet normal -0.4505501 0.29409108 0.84292054
 outer loop
  vertex -2.2829337 -0.55763936 5.5114884
  vertex -3.120426 0.5710442 4.6700473
  vertex -3.3143058 -0.55763936 4.960209
 endloop
endfacet
facet normal -0.60633856 0.2940911 0.7388261
 outer loop
  vertex -3.3143058 -0.55763936 4.960209
  vertex -3.120426 0.5710442 4.6700473
  vertex -3.971549 0.5710442 3.971549
 endloop
endfacet
facet normal -0.6063385 0.29409117 0.7388261
 outer loop
  vertex -3.3143058 -0.55763936 4.960209
  vertex -3.971549 0.5710442 3.971549
  vertex -4.2183113 -0.55763936 4.2183113
 endloop
endfacet
facet normal -0.73882604 0.29409117 0.6063385
 outer loop
  vertex -4.2183113 -0.55763936 4.2183113
  vertex -3.971549 0.5710442 3.971549
  vertex -4.6700473 0.5710442 3.120426
 endloop
endfacet
facet normal -0.73882633 0.294091 0.6063384
 outer loop
  vertex -4.2183113 -0.55763936 4.2183113
  vertex -4.6700473 0.5710442 3.120426
  vertex -4.960209 -0.55763936 3.3143055
 endloop
endfacet
facet normal -0.8429204 0.294091 0.45055026
 outer loop
  vertex -4.960209 -0.55763936 3.3143055
  vertex -4.6700473 0.5710442 3.120426
  vertex -5.1890783 0.5710442 2.149387
 endloop
endfacet
facet normal -0.8429205 0.294091 0.45055023
 outer loop
  vertex -4.960209 -0.55763936 3.3143055
  vertex -5.1890783 0.5710442 2.149387
  vertex -5.5114884 -0.55763936 2.2829337
 endloop
endfacet
facet normal -0.914622 0.2940909 0.27744743
 outer loop
  vertex -5.5114884 -0.55763936 2.2829337
  vertex -5.1890783 0.5710442 2.149387
  vertex -5.508696 0.5710442 1.095748
 endloop
endfacet
facet normal -0.9146217 0.2940914 0.2774479
 outer loop
  vertex -5.5114884 -0.55763936 2.2829337
  vertex -5.508696 0.5710442 1.095748
  vertex -5.8509655 -0.55763936 1.1638296
 endloop
endfacet
facet normal -0.9511749 0.29409143 0.09368283
 outer loop
  vertex -5.8509655 -0.55763936 1.1638296
  vertex -5.508696 0.5710442 1.095748
  vertex -5.616618 0.5710442 0
 endloop
endfacet
facet normal -0.95117503 0.2940913 0.09368269
 outer loop
  vertex -5.8509655 -0.55763936 1.1638296
  vertex -5.616618 0.5710442 0
  vertex -5.965593 -0.55763936 0
 endloop
endfacet
facet normal -0.951175 0.29409128 -0.09368284
 outer loop
  vertex -5.965593 -0.55763936 0
  vertex -5.616618 0.5710442 0
  vertex -5.508696 0.5710442 -1.095748
 endloop
endfacet
facet normal -0.9511749 0.2940914 -0.09368266
 outer loop
  vertex -5.965593 -0.55763936 0
  vertex -5.508696 0.5710442 -1.095748
  vertex -5.8509655 -0.55763936 -1.1638296
 endloop
endfacet
facet normal -0.9146219 0.29409146 -0.2774474
 outer loop
  vertex -5.8509655 -0.55763936 -1.1638296
  vertex -5.508696 0.5710442 -1.095748
  vertex -5.1890783 0.5710442 -2.149387
 endloop
endfacet
facet normal -0.9146219 0.294091 -0.27744797
 outer loop
  vertex -5.8509655 -0.55763936 -1.1638296
  vertex -5.1890783 0.5710442 -2.149387
  vertex -5.5114884 -0.55763936 -2.2829337
 endloop
endfacet
facet normal -0.8429204 0.29409096 -0.45055026
 outer loop
  vertex -5.5114884 -0.55763936 -2.2829337
  vertex -5.1890783 0.5710442 -2.149387
  vertex -4.6700473 0.5710442 -3.120426
 endloop
endfacet
facet normal -0.8429205 0.294091 -0.45055023
 outer loop
  vertex -5.5114884 -0.55763936 -2.2829337
  vertex -4.6700473 0.5710442 -3.120426
  vertex -4.960209 -0.55763936 -3.3143055
 endloop
endfacet
facet normal -0.7388261 0.294091 -0.60633856
 outer loop
  vertex -4.960209 -0.55763936 -3.3143055
  vertex -4.6700473 0.5710442 -3.120426
  vertex -3.971549 0.5710442 -3.971549
 endloop
endfacet
facet normal -0.7388262 0.2940912 -0.60633844
 outer loop
  vertex -4.960209 -0.55763936 -3.3143055
  vertex -3.971549 0.5710442 -3.971549
  vertex -4.2183113 -0.55763936 -4.2183113
 endloop
endfacet
facet normal -0.6063385 0.29409117 -0.73882604
 outer loop
  vertex -4.2183113 -0.55763936 -4.2183113
  vertex -3.971549 0.5710442 -3.971549
  vertex -3.120426 0.5710442 -4.6700473
 endloop
endfacet
facet normal -0.60633844 0.29409108 -0.7388261
 outer loop
  vertex -4.2183113 -0.55763936 -4.2183113
  vertex -3.120426 0.5710442 -4.6700473
  vertex -3.3143058 -0.55763936 -4.960209
 endloop
endfacet
facet normal -0.45055026 0.29409108 -0.8429204
 outer loop
  vertex -3.3143058 -0.55763936 -4.960209
  vertex -3.120426 0.5710442 -4.6700473
  vertex -2.149387 0.5710442 -5.1890783
 endloop
endfacet
facet normal -0.45055017 0.29409096 -0.84292054
 outer loop
  vertex -3.3143058 -0.55763936 -4.960209
  vertex -2.149387 0.5710442 -5.1890783
  vertex -2.2829337 -0.55763936 -5.5114884
 endloop
endfacet
facet normal -0.27744746 0.29409093 -0.91462207
 outer loop
  vertex -2.2829337 -0.55763936 -5.5114884
  vertex -2.149387 0.5710442 -5.1890783
  vertex -1.095748 0.5710442 -5.508696
 endloop
endfacet
facet normal -0.2774479 0.2940914 -0.9146217
 outer loop
  vertex -2.2829337 -0.55763936 -5.5114884
  vertex -1.095748 0.5710442 -5.508696
  vertex -1.1638296 -0.55763936 -5.8509655
 endloop
endfacet
facet normal -0.09368283 0.29409143 -0.9511749
 outer loop
  vertex -1.1638296 -0.55763936 -5.8509655
  vertex -1.095748 0.5710442 -5.508696
  vertex 0 0.5710442 -5.616618
 endloop
endfacet
facet normal -0.09368269 0.2940913 -0.95117503
 outer loop
  vertex -1.1638296 -0.55763936 -5.8509655
  vertex 0 0.5710442 -5.616618
  vertex -1.1006655e-08 -0.55763936 -5.965593
 endloop
endfacet
facet normal 0.09368284 0.29409128 -0.951175
 outer loop
  vertex -1.1006655e-08 -0.55763936 -5.965593
  vertex 0 0.5710442 -5.616618
  vertex 1.095748 0.5710442 -5.508696
 endloop
endfacet
facet normal 0.09368266 0.2940914 -0.9511749
 outer loop
  vertex -1.1006655e-08 -0.55763936 -5.965593
  vertex 1.095748 0.5710442 -5.508696
  vertex 1.1638296 -0.55763936 -5.8509655
 endloop
endfacet
facet normal 0.2774474 0.29409146 -0.9146219
 outer loop
  vertex 1.1638296 -0.55763936 -5.8509655
  vertex 1.095748 0.5710442 -5.508696
  vertex 2.149387 0.5710442 -5.1890783
 endloop
endfacet
facet normal 0.27744797 0.294091 -0.9146219
 outer loop
  vertex 1.1638296 -0.55763936 -5.8509655
  vertex 2.149387 0.5710442 -5.1890783
  vertex 2.2829337 -0.55763936 -5.5114884
 endloop
endfacet
facet normal 0.45055026 0.29409096 -0.8429204
 outer loop
  vertex 2.2829337 -0.55763936 -5.5114884
  vertex 2.149387 0.5710442 -5.1890783
  vertex 3.120426 0.5710442 -4.6700473
 endloop
endfacet
facet normal 0.45055023 0.294091 -0.8429205
 outer loop
  vertex 2.2829337 -0.55763936 -5.5114884
  vertex 3.120426 0.5710442 -4.6700473
  vertex 3.3143055 -0.55763936 -4.960209
 endloop
endfacet
facet normal 0.60633856 0.294091 -0.7388261
 outer loop
  vertex 3.3143055 -0.55763936 -4.960209
  vertex 3.120426 0.5710442 -4.6700473
  vertex 3.971549 0.5710442 -3.971549
 endloop
endfacet
facet normal 0.60633844 0.2940912 -0.7388262
 outer loop
  vertex 3.3143055 -0.55763936 -4.960209
  vertex 3.971549 0.5710442 -3.971549
  vertex 4.2183113 -0.55763936 -4.2183113
 endloop
endfacet
facet normal 0.73882604 0.29409117 -0.6063385
 outer loop
  vertex 4.2183113 -0.55763936 -4.2183113
  vertex 3.971549 0.5710442 -3.971549
  vertex 4.6700473 0.5710442 -3.120426
 endloop
endfacet
facet normal 0.73882633 0.294091 -0.6063384
 outer loop
  vertex 4.2183113 -0.55763936 -4.2183113
  vertex 4.6700473 0.5710442 -3.120426
  vertex 4.960209 -0.55763936 -3.3143055
 endloop
endfacet
facet normal 0.8429204 0.294091 -0.45055026
 outer loop
  vertex 4.960209 -0.55763936 -3.3143055
  vertex 4.6700473 0.5710442 -3.120426
  vertex 5.1890783 0.5710442 -2.149387
 endloop
endfacet
facet normal 0.8429205 0.294091 -0.45055023
 outer loop
  vertex 4.960209 -0.55763936 -3.3143055
  vertex 5.1890783 0.5710442 -2.149387
  vertex 5.5114884 -0.55763936 -2.2829337
 endloop
endfacet
facet normal 0.914622 0.2940909 -0.27744743
 outer loop
  vertex 5.5114884 -0.55763936 -2.2829337
  vertex 5.1890783 0.5710442 -2.149387
  vertex 5.508696 0.5710442 -1.095748
 endloop
endfacet
facet normal 0.9146217 0.2940914 -0.2774479
 outer loop
  vertex 5.5114884 -0.55763936 -2.2829337
  vertex 5.508696 0.5710442 -1.095748
  vertex 5.8509655 -0.55763936 -1.1638296
 endloop
endfacet
facet normal 0.9511749 0.29409143 -0.09368283
 outer loop
  vertex 5.8509655 -0.55763936 -1.1638296
  vertex 5.508696 0.5710442 -1.095748
  vertex 5.616618 0.5710442 0
 endloop
endfacet
facet normal 0.95117503 0.2940913 -0.09368269
 outer loop
  vertex 5.8509655 -0.55763936 -1.1638296
  vertex 5.616618 0.5710442 0
  vertex 5.965593 -0.55763936 0
 endloop
endfacet
facet normal 0.951175 0.29409128 0.09368284
 outer loop
  vertex 5.965593 -0.55763936 0
  vertex 5.616618 0.5710442 0
  vertex 5.508696 0.5710442 1.095748
 endloop
endfacet
facet normal 0.9511749 0.2940914 0.09368266
 outer loop
  vertex 5.965593 -0.55763936 0
  vertex 5.508696 0.5710442 1.095748
  vertex 5.8509655 -0.55763936 1.1638296
 endloop
endfacet
facet normal 0.9146219 0.29409146 0.2774474
 outer loop
  vertex 5.8509655 -0.55763936 1.1638296
  vertex 5.508696 0.5710442 1.095748
  vertex 5.1890783 0.5710442 2.149387
 endloop
endfacet
facet normal 0.9146219 0.294091 0.27744797
 outer loop
  vertex 5.8509655 -0.55763936 1.1638296
  vertex 5.1890783 0.5710442 2.149387
  vertex 5.5114884 -0.55763936 2.2829337
 endloop
endfacet
facet normal 0.8429204 0.29409096 0.45055026
 outer loop
  vertex 5.5114884 -0.55763936 2.2829337
  vertex 5.1890783 0.5710442 2.149387
  vertex 4.6700473 0.5710442 3.120426
 endloop
endfacet
facet normal 0.8429205 0.294091 0.45055023
 outer loop
  vertex 5.5114884 -0.55763936 2.2829337
  vertex 4.6700473 0.5710442 3.120426
  vertex 4.960209 -0.55763936 3.3143055
 endloop
endfacet
facet normal 0.7388261 0.294091 0.60633856
 outer loop
  vertex 4.960209 -0.55763936 3.3143055
  vertex 4.6700473 0.5710442 3.120426
  vertex 3.971549 0.5710442 3.971549
 endloop
endfacet
facet normal 0.7388262 0.2940912 0.60633844
 outer loop
  vertex 4.960209 -0.55763936 3.3143055
  vertex 3.971549 0.5710442 3.971549
  vertex 4.2183113 -0.55763936 4.2183113
 endloop
endfacet
facet normal 0.6063385 0.29409117 0.73882604
 outer loop
  vertex 4.2183113 -0.55763936 4.2183113
  vertex 3.971549 0.5710442 3.971549
  vertex 3.120426 0.5710442 4.6700473
 endloop
endfacet
facet normal 0.6063384 0.294091 0.73882633
 outer loop
  vertex 4.2183113 -0.55763936 4.2183113
  vertex 3.120426 0.5710442 4.6700473
  vertex 3.3143055 -0.55763936 4.960209
 endloop
endfacet
facet normal 0.45055026 0.294091 0.8429204
 outer loop
  vertex 3.3143055 -0.55763936 4.960209
  vertex 3.120426 0.5710442 4.6700473
  vertex 2.149387 0.5710442 5.1890783
 endloop
endfacet
facet normal 0.45055023 0.294091 0.8429205
 outer loop
  vertex 3.3143055 -0.55763936 4.960209
  vertex 2.149387 0.5710442 5.1890783
  vertex 2.2829337 -0.55763936 5.5114884
 endloop
endfacet
facet normal 0.27744746 0.29409093 0.91462207
 outer loop
  vertex 2.2829337 -0.55763936 5.5114884
  vertex 2.149387 0.5710442 5.1890783
  vertex 1.095748 0.5710442 5.508696
 endloop
endfacet
facet normal 0.2774479 0.2940914 0.9146217
 outer loop
  vertex 2.2829337 -0.55763936 5.5114884
  vertex 1.095748 0.5710442 5.508696
  vertex 1.1638296 -0.55763936 5.8509655
 endloop
endfacet
facet normal 0.09368283 0.29409143 0.9511749
 outer loop
  vertex 1.1638296 -0.55763936 5.8509655
  vertex 1.095748 0.5710442 5.508696
  vertex 0 0.5710442 5.616618
 endloop
endfacet
facet normal 0.09368269 0.2940913 0.95117503
 outer loop
  vertex 1.1638296 -0.55763936 5.8509655
  vertex 0 0.5710442 5.616618
  vertex -1.1006655e-08 -0.55763936 5.965593
 endloop
endfacet
facet normal 0 1 0
 outer loop
  vertex 2.6739341e-08 0.5710442 3.3424175e-08
  vertex -1.095748 0.5710442 5.508696
  vertex 0 0.5710442 5.616618
 endloop
endfacet
facet normal 0 1 0
 outer loop
  vertex 2.6739341e-08 0.5710442 3.3424175e-08
  vertex -2.149387 0.5710442 5.1890783
  vertex -1.095748 0.5710442 5.508696
 endloop
endfacet
facet normal 0 1 0
 outer loop
  vertex 2.6739341e-08 0.5710442 3.3424175e-08
  vertex -3.120426 0.5710442 4.6700473
  vertex -2.149387 0.5710442 5.1890783
 endloop
endfacet
facet normal 0 1 0
 outer loop
  vertex 2.6739341e-08 0.5710442 3.3424175e-08
  vertex -3.971549 0.5710442 3.971549
  vertex -3.120426 0.5710442 4.6700473
 endloop
endfacet
facet normal 0 1 0
 outer loop
  vertex 2.6739341e-08 0.5710442 3.3424175e-08
  vertex -4.6700473 0.5710442 3.120426
  vertex -3.971549 0.5710442 3.971549
 endloop
endfacet
facet normal 0 1 0
 outer loop
  vertex 2.6739341e-08 0.5710442 3.3424175e-08
  vertex -5.1890783 0.5710442 2.149387
  vertex -4.6700473 0.5710442 3.120426
 endloop
endfacet
facet normal 0 1 0
 outer loop
  vertex 2.6739341e-08 0.5710442 3.3424175e-08
  vertex -5.508696 0.5710442 1.095748
  vertex -5.1890783 0.5710442 2.149387
 endloop
endfacet
facet normal -0 1 0
 outer loop
  vertex 2.6739341e-08 0.5710442 3.3424175e-08
  vertex -5.616618 0.5710442 0
  vertex -5.508696 0.5710442 1.095748
 endloop
endfacet
facet normal -0 1 0
 outer loop
  vertex 2.6739341e-08 0.5710442 3.3424175e-08
  vertex -5.508696 0.5710442 -1.095748
  vertex -5.616618 0.5710442 0
 endloop
endfacet
facet normal -0 1 0
 outer loop
  vertex 2.6739341e-08 0.5710442 3.3424175e-08
  vertex -5.1890783 0.5710442 -2.149387
  vertex -5.508696 0.5710442 -1.095748
 endloop
endfacet
facet normal -0 1 0
 outer loop
  vertex 2.6739341e-08 0.5710442 3.3424175e-08
  vertex -4.6700473 0.5710442 -3.120426
  vertex -5.1890783 0.5710442 -2.149387
 endloop
endfacet
facet normal -0 1 0
 outer loop
  vertex 2.6739341e-08 0.5710442 3.3424175e-08
  vertex -3.971549 0.5710442 -3.971549
  vertex -4.6700473 0.5710442 -3.120426
 endloop
endfacet
facet normal -0 1 0
 outer loop
  vertex 2.6739341e-08 0.5710442 3.3424175e-08
  vertex -3.120426 0.5710442 -4.6700473
  vertex -3.971549 0.5710442 -3.971549
 endloop
endfacet
facet normal -0 1 0
 outer loop
  vertex 2.6739341e-08 0.5710442 3.3424175e-08
  vertex -2.149387 0.5710442 -5.1890783
  vertex -3.120426 0.5710442 -4.6700473
 endloop
endfacet
facet normal -0 1 0
 outer loop
  vertex 2.6739341e-08 0.5710442 3.3424175e-08
  vertex -1.095748 0.5710442 -5.508696
  vertex -2.149387 0.5710442 -5.1890783
 endloop
endfacet
facet normal -0 1 0
 outer loop
  vertex 2.6739341e-08 0.5710442 3.3424175e-08
  vertex 0 0.5710442 -5.616618
  vertex -1.095748 0.5710442 -5.508696
 endloop
endfacet
facet normal 0 1 -0
 outer loop
  vertex 2.6739341e-08 0.5710442 3.3424175e-08
  vertex 1.095748 0.5710442 -5.508696
  vertex 0 0.5710442 -5.616618
 endloop
endfacet
facet normal 0 1 -0
 outer loop
  vertex 2.6739341e-08 0.5710442 3.3424175e-08
  vertex 2.149387 0.5710442 -5.1890783
  vertex 1.095748 0.5710442 -5.508696
 endloop
endfacet
facet normal 0 1 -0
 outer loop
  vertex 2.6739341e-08 0.5710442 3.3424175e-08
  vertex 3.120426 0.5710442 -4.6700473
  vertex 2.149387 0.5710442 -5.1890783
 endloop
endfacet
facet normal 0 1 -0
 outer loop
  vertex 2.6739341e-08 0.5710442 3.3424175e-08
  vertex 3.971549 0.5710442 -3.971549
  vertex 3.120426 0.5710442 -4.6700473
 endloop
endfacet
facet normal 0 1 -0
 outer loop
  vertex 2.6739341e-08 0.5710442 3.3424175e-08
  vertex 4.6700473 0.5710442 -3.120426
  vertex 3.971549 0.5710442 -3.971549
 endloop
endfacet
facet normal 0 1 -0
 outer loop
  vertex 2.6739341e-08 0.5710442 3.3424175e-08
  vertex 5.1890783 0.5710442 -2.149387
  vertex 4.6700473 0.5710442 -3.120426
 endloop
endfacet
facet normal 0 1 -0
 outer loop
  vertex 2.6739341e-08 0.5710442 3.3424175e-08
  vertex 5.508696 0.5710442 -1.095748
  vertex 5.1890783 0.5710442 -2.149387
 endloop
endfacet
facet normal 0 1 -0
 outer loop
  vertex 2.6739341e-08 0.5710442 3.3424175e-08
  vertex 5.616618 0.5710442 0
  vertex 5.508696 0.5710442 -1.095748
 endloop
endfacet
facet normal 0 1 0
 outer loop
  vertex 2.6739341e-08 0.5710442 3.3424175e-08
  vertex 5.508696 0.5710442 1.095748
  vertex 5.616618 0.5710442 0
 endloop
endfacet
facet normal 0 1 0
 outer loop
  vertex 2.6739341e-08 0.5710442 3.3424175e-08
  vertex 5.1890783 0.5710442 2.149387
  vertex 5.508696 0.5710442 1.095748
 endloop
endfacet
facet normal 0 1 0
 outer loop
  vertex 2.6739341e-08 0.5710442 3.3424175e-08
  vertex 4.6700473 0.5710442 3.120426
  vertex 5.1890783 0.5710442 2.149387
 endloop
endfacet
facet normal 0 1 0
 outer loop
  vertex 2.6739341e-08 0.5710442 3.3424175e-08
  vertex 3.971549 0.5710442 3.971549
  vertex 4.6700473 0.5710442 3.120426
 endloop
endfacet
facet normal 0 1 0
 outer loop
  vertex 2.6739341e-08 0.5710442 3.3424175e-08
  vertex 3.120426 0.5710442 4.6700473
  vertex 3.971549 0.5710442 3.971549
 endloop
endfacet
facet normal 0 1 0
 outer loop
  vertex 2.6739341e-08 0.5710442 3.3424175e-08
  vertex 2.149387 0.5710442 5.1890783
  vertex 3.120426 0.5710442 4.6700473
 endloop
endfacet
facet normal 0 1 0
 outer loop
  vertex 2.6739341e-08 0.5710442 3.3424175e-08
  vertex 1.095748 0.5710442 5.508696
  vertex 2.149387 0.5710442 5.1890783
 endloop
endfacet
facet normal 0 1 0
 outer loop
  vertex 2.6739341e-08 0.5710442 3.3424175e-08
  vertex 0 0.5710442 5.616618
  vertex 1.095748 0.5710442 5.508696
 endloop
endfacet
endsolid 
