solid 
facet normal -0.10238092 -0.9435234 -0.31508988
 outer loop
  vertex -2.1250668 1.4818683 3.2091346
  vertex -2.5503895 1.6312141 2.9001231
  vertex -1.9626112 1.6312139 2.7091393
 endloop
endfacet
facet normal -0.70022404 -0.66169894 -0.26803163
 outer loop
  vertex -2.848674 2.0346487 2.6834092
  vertex -2.5503895 1.6312141 2.9001231
  vertex -2.9757147 1.9561324 3.2091346
 endloop
endfacet
facet normal 0.26803407 -0.9435229 -0.19473664
 outer loop
  vertex -2.1250668 1.4818683 3.2091346
  vertex -1.9626112 1.6312139 2.7091393
  vertex -1.599337 1.6312165 3.2091346
 endloop
endfacet
facet normal 0.26803407 -0.9435229 0.19473664
 outer loop
  vertex -2.1250668 1.4818683 3.2091346
  vertex -1.599337 1.6312165 3.2091346
  vertex -1.9626112 1.6312139 3.7091298
 endloop
endfacet
facet normal -0.10238092 -0.9435234 0.31508988
 outer loop
  vertex -2.1250668 1.4818683 3.2091346
  vertex -1.9626112 1.6312139 3.7091298
  vertex -2.5503895 1.6312141 3.518146
 endloop
endfacet
facet normal -0.90498906 -0.33038464 -0.26803148
 outer loop
  vertex -2.848674 2.0346487 2.6834092
  vertex -2.9757147 1.9561324 3.2091346
  vertex -3.0761247 2.4818683 2.900122
 endloop
endfacet
facet normal -0.024746712 -0.3303861 -0.9435213
 outer loop
  vertex -1.8486787 2.0346484 2.3584852
  vertex -2.3879356 1.9561306 2.400123
  vertex -2.1250668 2.4818683 2.2091346
 endloop
endfacet
facet normal 0.88969725 -0.33038488 -0.3150946
 outer loop
  vertex -1.2306405 2.0346527 3.2091346
  vertex -1.4368774 1.956132 2.7091377
  vertex -1.1740088 2.4818683 2.900122
 endloop
endfacet
facet normal 0.57460207 -0.33038747 0.7487834
 outer loop
  vertex -1.8486787 2.0346484 4.059784
  vertex -1.4368774 1.956132 3.7091315
  vertex -1.5372812 2.4818683 4.0181513
 endloop
endfacet
facet normal -0.53457576 -0.33038667 0.77786463
 outer loop
  vertex -2.848674 2.0346487 3.73486
  vertex -2.3879356 1.9561306 4.018146
  vertex -2.7128525 2.4818683 4.0181513
 endloop
endfacet
facet normal -0.80260915 -0.12562737 -0.5831264
 outer loop
  vertex -2.848674 2.0346487 2.6834092
  vertex -3.0761247 2.4818683 2.900122
  vertex -2.7128525 2.4818683 2.4001179
 endloop
endfacet
facet normal 0.306569 -0.12562846 -0.94352156
 outer loop
  vertex -1.8486787 2.0346484 2.3584852
  vertex -2.1250668 2.4818683 2.2091346
  vertex -1.5372812 2.4818683 2.4001179
 endloop
endfacet
facet normal 0.9920774 -0.12562849 0
 outer loop
  vertex -1.2306405 2.0346527 3.2091346
  vertex -1.1740088 2.4818683 2.900122
  vertex -1.1740088 2.4818683 3.5181472
 endloop
endfacet
facet normal 0.306569 -0.12562844 0.94352156
 outer loop
  vertex -1.8486787 2.0346484 4.059784
  vertex -1.5372812 2.4818683 4.0181513
  vertex -2.1250668 2.4818683 4.2091346
 endloop
endfacet
facet normal -0.80260915 -0.12562737 0.5831264
 outer loop
  vertex -2.848674 2.0346487 3.73486
  vertex -2.7128525 2.4818683 4.0181513
  vertex -3.0761247 2.4818683 3.5181472
 endloop
endfacet
facet normal -0.40894592 0.66169864 -0.6284252
 outer loop
  vertex -2.4014547 2.929088 2.3584852
  vertex -2.8132563 3.0076046 2.7091377
  vertex -2.2875223 3.3325226 2.7091393
 endloop
endfacet
facet normal 0.4712997 0.66169876 -0.5831221
 outer loop
  vertex -1.4014595 2.9290879 2.6834092
  vertex -1.8621979 3.007606 2.400123
  vertex -1.6997441 3.3325224 2.9001231
 endloop
endfacet
facet normal 0.7002239 0.66169906 0.26803157
 outer loop
  vertex -1.4014595 2.9290879 3.73486
  vertex -1.2744188 3.0076041 3.2091346
  vertex -1.6997441 3.3325224 3.518146
 endloop
endfacet
facet normal -0.03853016 0.66169906 0.74877894
 outer loop
  vertex -2.4014547 2.929088 4.059784
  vertex -1.8621979 3.007606 4.018146
  vertex -2.2875223 3.3325226 3.7091298
 endloop
endfacet
facet normal -0.7240421 0.66169554 0.19473581
 outer loop
  vertex -3.019493 2.9290838 3.2091346
  vertex -2.8132563 3.0076046 3.7091315
  vertex -2.6507964 3.33252 3.2091346
 endloop
endfacet
facet normal -0.26803413 0.9435229 0.19473663
 outer loop
  vertex -2.6507964 3.33252 3.2091346
  vertex -2.2875223 3.3325226 3.7091298
  vertex -2.1250668 3.4818683 3.2091346
 endloop
endfacet
facet normal -0.49111915 0.79465765 0.35682094
 outer loop
  vertex -2.6507964 3.33252 3.2091346
  vertex -2.8132563 3.0076046 3.7091315
  vertex -2.2875223 3.3325226 3.7091298
 endloop
endfacet
facet normal -0.40894592 0.6616986 0.6284251
 outer loop
  vertex -2.8132563 3.0076046 3.7091315
  vertex -2.4014547 2.929088 4.059784
  vertex -2.2875223 3.3325226 3.7091298
 endloop
endfacet
facet normal 0.10238095 0.94352347 0.3150899
 outer loop
  vertex -2.2875223 3.3325226 3.7091298
  vertex -1.6997441 3.3325224 3.518146
  vertex -2.1250668 3.4818683 3.2091346
 endloop
endfacet
facet normal 0.1875942 0.79465765 0.5773453
 outer loop
  vertex -2.2875223 3.3325226 3.7091298
  vertex -1.8621979 3.007606 4.018146
  vertex -1.6997441 3.3325224 3.518146
 endloop
endfacet
facet normal 0.47129956 0.66169876 0.58312225
 outer loop
  vertex -1.8621979 3.007606 4.018146
  vertex -1.4014595 2.9290879 3.73486
  vertex -1.6997441 3.3325224 3.518146
 endloop
endfacet
facet normal 0.3313047 0.9435238 -0
 outer loop
  vertex -1.6997441 3.3325224 3.518146
  vertex -1.6997441 3.3325224 2.9001231
  vertex -2.1250668 3.4818683 3.2091346
 endloop
endfacet
facet normal 0.6070604 0.7946557 0
 outer loop
  vertex -1.6997441 3.3325224 3.518146
  vertex -1.2744188 3.0076041 3.2091346
  vertex -1.6997441 3.3325224 2.9001231
 endloop
endfacet
facet normal 0.7002239 0.66169906 -0.2680316
 outer loop
  vertex -1.2744188 3.0076041 3.2091346
  vertex -1.4014595 2.9290879 2.6834092
  vertex -1.6997441 3.3325224 2.9001231
 endloop
endfacet
facet normal 0.10238095 0.94352347 -0.3150899
 outer loop
  vertex -1.6997441 3.3325224 2.9001231
  vertex -2.2875223 3.3325226 2.7091393
  vertex -2.1250668 3.4818683 3.2091346
 endloop
endfacet
facet normal 0.18759412 0.7946578 -0.57734513
 outer loop
  vertex -1.6997441 3.3325224 2.9001231
  vertex -1.8621979 3.007606 2.400123
  vertex -2.2875223 3.3325226 2.7091393
 endloop
endfacet
facet normal -0.0385305 0.6616991 -0.7487788
 outer loop
  vertex -1.8621979 3.007606 2.400123
  vertex -2.4014547 2.929088 2.3584852
  vertex -2.2875223 3.3325226 2.7091393
 endloop
endfacet
facet normal -0.26803413 0.9435229 -0.19473663
 outer loop
  vertex -2.2875223 3.3325226 2.7091393
  vertex -2.6507964 3.33252 3.2091346
  vertex -2.1250668 3.4818683 3.2091346
 endloop
endfacet
facet normal -0.49111915 0.79465765 -0.35682094
 outer loop
  vertex -2.2875223 3.3325226 2.7091393
  vertex -2.8132563 3.0076046 2.7091377
  vertex -2.6507964 3.33252 3.2091346
 endloop
endfacet
facet normal -0.7240421 0.66169554 -0.19473584
 outer loop
  vertex -2.8132563 3.0076046 2.7091377
  vertex -3.019493 2.9290838 3.2091346
  vertex -2.6507964 3.33252 3.2091346
 endloop
endfacet
facet normal -0.8896974 0.33038467 0.3150946
 outer loop
  vertex -3.0761247 2.4818683 3.5181472
  vertex -2.8132563 3.0076046 3.7091315
  vertex -3.019493 2.9290838 3.2091346
 endloop
endfacet
facet normal -0.7946557 0.18759498 0.5773479
 outer loop
  vertex -3.0761247 2.4818683 3.5181472
  vertex -2.7128525 2.4818683 4.0181513
  vertex -2.8132563 3.0076046 3.7091315
 endloop
endfacet
facet normal -0.57460177 0.3303876 0.7487835
 outer loop
  vertex -2.7128525 2.4818683 4.0181513
  vertex -2.4014547 2.929088 4.059784
  vertex -2.8132563 3.0076046 3.7091315
 endloop
endfacet
facet normal 0.024747025 0.33038628 0.9435213
 outer loop
  vertex -2.1250668 2.4818683 4.2091346
  vertex -1.8621979 3.007606 4.018146
  vertex -2.4014547 2.929088 4.059784
 endloop
endfacet
facet normal 0.30353093 0.18759768 0.9341713
 outer loop
  vertex -2.1250668 2.4818683 4.2091346
  vertex -1.5372812 2.4818683 4.0181513
  vertex -1.8621979 3.007606 4.018146
 endloop
endfacet
facet normal 0.53457576 0.33038655 0.7778647
 outer loop
  vertex -1.5372812 2.4818683 4.0181513
  vertex -1.4014595 2.9290879 3.73486
  vertex -1.8621979 3.007606 4.018146
 endloop
endfacet
facet normal 0.90498906 0.33038464 0.26803148
 outer loop
  vertex -1.1740088 2.4818683 3.5181472
  vertex -1.2744188 3.0076041 3.2091346
  vertex -1.4014595 2.9290879 3.73486
 endloop
endfacet
facet normal 0.9822458 0.18759856 -0
 outer loop
  vertex -1.1740088 2.4818683 3.5181472
  vertex -1.1740088 2.4818683 2.900122
  vertex -1.2744188 3.0076041 3.2091346
 endloop
endfacet
facet normal 0.90498906 0.33038464 -0.26803145
 outer loop
  vertex -1.1740088 2.4818683 2.900122
  vertex -1.4014595 2.9290879 2.6834092
  vertex -1.2744188 3.0076041 3.2091346
 endloop
endfacet
facet normal 0.53457606 0.3303864 -0.7778646
 outer loop
  vertex -1.5372812 2.4818683 2.4001179
  vertex -1.8621979 3.007606 2.400123
  vertex -1.4014595 2.9290879 2.6834092
 endloop
endfacet
facet normal 0.30353096 0.18759727 -0.9341714
 outer loop
  vertex -1.5372812 2.4818683 2.4001179
  vertex -2.1250668 2.4818683 2.2091346
  vertex -1.8621979 3.007606 2.400123
 endloop
endfacet
facet normal 0.02474665 0.33038607 -0.94352144
 outer loop
  vertex -2.1250668 2.4818683 2.2091346
  vertex -2.4014547 2.929088 2.3584852
  vertex -1.8621979 3.007606 2.400123
 endloop
endfacet
facet normal -0.57460177 0.33038756 -0.7487835
 outer loop
  vertex -2.7128525 2.4818683 2.4001179
  vertex -2.8132563 3.0076046 2.7091377
  vertex -2.4014547 2.929088 2.3584852
 endloop
endfacet
facet normal -0.7946557 0.187595 -0.5773479
 outer loop
  vertex -2.7128525 2.4818683 2.4001179
  vertex -3.0761247 2.4818683 2.900122
  vertex -2.8132563 3.0076046 2.7091377
 endloop
endfacet
facet normal -0.8896974 0.33038467 -0.3150946
 outer loop
  vertex -3.0761247 2.4818683 2.900122
  vertex -3.019493 2.9290838 3.2091346
  vertex -2.8132563 3.0076046 2.7091377
 endloop
endfacet
facet normal -0.30656895 0.12562858 0.94352156
 outer loop
  vertex -2.7128525 2.4818683 4.0181513
  vertex -2.1250668 2.4818683 4.2091346
  vertex -2.4014547 2.929088 4.059784
 endloop
endfacet
facet normal -0.3035309 -0.18759775 0.9341713
 outer loop
  vertex -2.7128525 2.4818683 4.0181513
  vertex -2.3879356 1.9561306 4.018146
  vertex -2.1250668 2.4818683 4.2091346
 endloop
endfacet
facet normal -0.024747089 -0.33038634 0.9435213
 outer loop
  vertex -2.3879356 1.9561306 4.018146
  vertex -1.8486787 2.0346484 4.059784
  vertex -2.1250668 2.4818683 4.2091346
 endloop
endfacet
facet normal 0.802609 0.12562728 0.58312654
 outer loop
  vertex -1.5372812 2.4818683 4.0181513
  vertex -1.1740088 2.4818683 3.5181472
  vertex -1.4014595 2.9290879 3.73486
 endloop
endfacet
facet normal 0.79465556 -0.1875951 0.577348
 outer loop
  vertex -1.5372812 2.4818683 4.0181513
  vertex -1.4368774 1.956132 3.7091315
  vertex -1.1740088 2.4818683 3.5181472
 endloop
endfacet
facet normal 0.88969725 -0.33038488 0.31509456
 outer loop
  vertex -1.4368774 1.956132 3.7091315
  vertex -1.2306405 2.0346527 3.2091346
  vertex -1.1740088 2.4818683 3.5181472
 endloop
endfacet
facet normal 0.802609 0.12562725 -0.58312654
 outer loop
  vertex -1.1740088 2.4818683 2.900122
  vertex -1.5372812 2.4818683 2.4001179
  vertex -1.4014595 2.9290879 2.6834092
 endloop
endfacet
facet normal 0.79465556 -0.1875951 -0.577348
 outer loop
  vertex -1.1740088 2.4818683 2.900122
  vertex -1.4368774 1.956132 2.7091377
  vertex -1.5372812 2.4818683 2.4001179
 endloop
endfacet
facet normal 0.574602 -0.3303875 -0.7487834
 outer loop
  vertex -1.4368774 1.956132 2.7091377
  vertex -1.8486787 2.0346484 2.3584852
  vertex -1.5372812 2.4818683 2.4001179
 endloop
endfacet
facet normal -0.30656895 0.12562858 -0.94352156
 outer loop
  vertex -2.1250668 2.4818683 2.2091346
  vertex -2.7128525 2.4818683 2.4001179
  vertex -2.4014547 2.929088 2.3584852
 endloop
endfacet
facet normal -0.30353093 -0.18759735 -0.9341714
 outer loop
  vertex -2.1250668 2.4818683 2.2091346
  vertex -2.3879356 1.9561306 2.400123
  vertex -2.7128525 2.4818683 2.4001179
 endloop
endfacet
facet normal -0.534576 -0.33038652 -0.7778645
 outer loop
  vertex -2.3879356 1.9561306 2.400123
  vertex -2.848674 2.0346487 2.6834092
  vertex -2.7128525 2.4818683 2.4001179
 endloop
endfacet
facet normal -0.9920774 0.12562822 0
 outer loop
  vertex -3.0761247 2.4818683 2.900122
  vertex -3.0761247 2.4818683 3.5181472
  vertex -3.019493 2.9290838 3.2091346
 endloop
endfacet
facet normal -0.9822458 -0.18759856 0
 outer loop
  vertex -3.0761247 2.4818683 2.900122
  vertex -2.9757147 1.9561324 3.2091346
  vertex -3.0761247 2.4818683 3.5181472
 endloop
endfacet
facet normal -0.90498906 -0.33038464 0.26803145
 outer loop
  vertex -2.9757147 1.9561324 3.2091346
  vertex -2.848674 2.0346487 3.73486
  vertex -3.0761247 2.4818683 3.5181472
 endloop
endfacet
facet normal -0.47129944 -0.66169864 0.58312243
 outer loop
  vertex -2.5503895 1.6312141 3.518146
  vertex -2.3879356 1.9561306 4.018146
  vertex -2.848674 2.0346487 3.73486
 endloop
endfacet
facet normal -0.18759422 -0.7946575 0.5773455
 outer loop
  vertex -2.5503895 1.6312141 3.518146
  vertex -1.9626112 1.6312139 3.7091298
  vertex -2.3879356 1.9561306 4.018146
 endloop
endfacet
facet normal 0.03853 -0.661699 0.7487788
 outer loop
  vertex -1.9626112 1.6312139 3.7091298
  vertex -1.8486787 2.0346484 4.059784
  vertex -2.3879356 1.9561306 4.018146
 endloop
endfacet
facet normal 0.4089462 -0.66169864 0.62842494
 outer loop
  vertex -1.9626112 1.6312139 3.7091298
  vertex -1.4368774 1.956132 3.7091315
  vertex -1.8486787 2.0346484 4.059784
 endloop
endfacet
facet normal 0.49111933 -0.79465747 0.3568212
 outer loop
  vertex -1.9626112 1.6312139 3.7091298
  vertex -1.599337 1.6312165 3.2091346
  vertex -1.4368774 1.956132 3.7091315
 endloop
endfacet
facet normal 0.72404224 -0.66169524 0.1947361
 outer loop
  vertex -1.599337 1.6312165 3.2091346
  vertex -1.2306405 2.0346527 3.2091346
  vertex -1.4368774 1.956132 3.7091315
 endloop
endfacet
facet normal 0.72404224 -0.66169524 -0.1947361
 outer loop
  vertex -1.599337 1.6312165 3.2091346
  vertex -1.4368774 1.956132 2.7091377
  vertex -1.2306405 2.0346527 3.2091346
 endloop
endfacet
facet normal 0.49111933 -0.79465747 -0.3568212
 outer loop
  vertex -1.599337 1.6312165 3.2091346
  vertex -1.9626112 1.6312139 2.7091393
  vertex -1.4368774 1.956132 2.7091377
 endloop
endfacet
facet normal 0.40894622 -0.66169864 -0.628425
 outer loop
  vertex -1.9626112 1.6312139 2.7091393
  vertex -1.8486787 2.0346484 2.3584852
  vertex -1.4368774 1.956132 2.7091377
 endloop
endfacet
facet normal -0.70022404 -0.66169894 0.26803163
 outer loop
  vertex -2.9757147 1.9561324 3.2091346
  vertex -2.5503895 1.6312141 3.518146
  vertex -2.848674 2.0346487 3.73486
 endloop
endfacet
facet normal -0.6070605 -0.79465556 -0
 outer loop
  vertex -2.9757147 1.9561324 3.2091346
  vertex -2.5503895 1.6312141 2.9001231
  vertex -2.5503895 1.6312141 3.518146
 endloop
endfacet
facet normal -0.33130458 -0.9435238 0
 outer loop
  vertex -2.5503895 1.6312141 2.9001231
  vertex -2.1250668 1.4818683 3.2091346
  vertex -2.5503895 1.6312141 3.518146
 endloop
endfacet
facet normal 0.038530342 -0.66169906 -0.7487789
 outer loop
  vertex -1.9626112 1.6312139 2.7091393
  vertex -2.3879356 1.9561306 2.400123
  vertex -1.8486787 2.0346484 2.3584852
 endloop
endfacet
facet normal -0.18759413 -0.7946577 -0.5773453
 outer loop
  vertex -1.9626112 1.6312139 2.7091393
  vertex -2.5503895 1.6312141 2.9001231
  vertex -2.3879356 1.9561306 2.400123
 endloop
endfacet
facet normal -0.47129962 -0.66169864 -0.5831223
 outer loop
  vertex -2.5503895 1.6312141 2.9001231
  vertex -2.848674 2.0346487 2.6834092
  vertex -2.3879356 1.9561306 2.400123
 endloop
endfacet
facet normal -0.35215032 0.3914167 0.8501665
 outer loop
  vertex 3.390952 1.318669 0.06105995
  vertex 3.390952 4.4640474 -1.3870726
  vertex 2.3669677 1.318669 -0.36308813
 endloop
endfacet
facet normal -0.8501665 0.3914167 0.35215032
 outer loop
  vertex 2.3669677 1.318669 -0.36308813
  vertex 3.390952 4.4640474 -1.3870726
  vertex 1.9428196 1.318669 -1.3870726
 endloop
endfacet
facet normal -0.8501665 0.3914167 -0.35215032
 outer loop
  vertex 1.9428196 1.318669 -1.3870726
  vertex 3.390952 4.4640474 -1.3870726
  vertex 2.3669677 1.318669 -2.411057
 endloop
endfacet
facet normal -0.35215032 0.3914167 -0.8501665
 outer loop
  vertex 2.3669677 1.318669 -2.411057
  vertex 3.390952 4.4640474 -1.3870726
  vertex 3.390952 1.318669 -2.835205
 endloop
endfacet
facet normal 0.35215032 0.3914167 -0.8501665
 outer loop
  vertex 3.390952 1.318669 -2.835205
  vertex 3.390952 4.4640474 -1.3870726
  vertex 4.4149365 1.318669 -2.411057
 endloop
endfacet
facet normal 0.8501665 0.3914167 -0.35215032
 outer loop
  vertex 4.4149365 1.318669 -2.411057
  vertex 3.390952 4.4640474 -1.3870726
  vertex 4.8390846 1.318669 -1.3870726
 endloop
endfacet
facet normal 0.8501665 0.3914167 0.35215032
 outer loop
  vertex 4.8390846 1.318669 -1.3870726
  vertex 3.390952 4.4640474 -1.3870726
  vertex 4.4149365 1.318669 -0.36308813
 endloop
endfacet
facet normal 0.35215032 0.3914167 0.8501665
 outer loop
  vertex 4.4149365 1.318669 -0.36308813
  vertex 3.390952 4.4640474 -1.3870726
  vertex 3.390952 1.318669 0.06105995
 endloop
endfacet
facet normal -0.71579623 0.39141673 0.5782981
 outer loop
  vertex 2.8049278 2.1832747 -0.31066275
  vertex 3.390952 4.845296 -1.3870726
  vertex 2.2154336 2.1832747 -1.040317
 endloop
endfacet
facet normal -0.91506284 0.3914168 -0.097225785
 outer loop
  vertex 2.2154336 2.1832747 -1.040317
  vertex 3.390952 4.845296 -1.3870726
  vertex 2.3145418 2.1832747 -1.9730964
 endloop
endfacet
facet normal -0.57829785 0.3914167 -0.7157964
 outer loop
  vertex 2.3145418 2.1832747 -1.9730964
  vertex 3.390952 4.845296 -1.3870726
  vertex 3.0441966 2.1832747 -2.5625906
 endloop
endfacet
facet normal 0.09722579 0.39141664 -0.9150629
 outer loop
  vertex 3.0441966 2.1832747 -2.5625906
  vertex 3.390952 4.845296 -1.3870726
  vertex 3.976976 2.1832747 -2.4634824
 endloop
endfacet
facet normal 0.7157963 0.39141664 -0.57829815
 outer loop
  vertex 3.976976 2.1832747 -2.4634824
  vertex 3.390952 4.845296 -1.3870726
  vertex 4.56647 2.1832747 -1.7338281
 endloop
endfacet
facet normal 0.9150629 0.39141664 0.09722579
 outer loop
  vertex 4.56647 2.1832747 -1.7338281
  vertex 3.390952 4.845296 -1.3870726
  vertex 4.467362 2.1832747 -0.80104876
 endloop
endfacet
facet normal 0.57829785 0.3914166 0.7157964
 outer loop
  vertex 4.467362 2.1832747 -0.80104876
  vertex 3.390952 4.845296 -1.3870726
  vertex 3.7377071 2.1832747 -0.21155453
 endloop
endfacet
facet normal -0.09722579 0.39141664 0.9150629
 outer loop
  vertex 3.7377071 2.1832747 -0.21155453
  vertex 3.390952 4.845296 -1.3870726
  vertex 2.8049278 2.1832747 -0.31066275
 endloop
endfacet
facet normal -0.9051823 0.39141676 0.16564408
 outer loop
  vertex 2.5197582 2.9150147 -0.8241172
  vertex 3.3909516 5.1679564 -1.3870726
  vertex 2.376855 2.9150147 -1.6050296
 endloop
endfacet
facet normal -0.7571884 0.39141676 -0.52293277
 outer loop
  vertex 2.376855 2.9150147 -1.6050296
  vertex 3.3909516 5.1679564 -1.3870726
  vertex 2.8279963 2.9150147 -2.2582664
 endloop
endfacet
facet normal -0.16564353 0.39141685 -0.90518236
 outer loop
  vertex 2.8279963 2.9150147 -2.2582664
  vertex 3.3909516 5.1679564 -1.3870726
  vertex 3.6089087 2.9150147 -2.4011693
 endloop
endfacet
facet normal 0.52293235 0.39141685 -0.7571886
 outer loop
  vertex 3.6089087 2.9150147 -2.4011693
  vertex 3.3909516 5.1679564 -1.3870726
  vertex 4.2621455 2.9150147 -1.9500284
 endloop
endfacet
facet normal 0.90518236 0.39141685 -0.16564342
 outer loop
  vertex 4.2621455 2.9150147 -1.9500284
  vertex 3.3909516 5.1679564 -1.3870726
  vertex 4.4050484 2.9150147 -1.1691155
 endloop
endfacet
facet normal 0.75718844 0.3914168 0.52293265
 outer loop
  vertex 4.4050484 2.9150147 -1.1691155
  vertex 3.3909516 5.1679564 -1.3870726
  vertex 3.9539075 2.9150147 -0.51587915
 endloop
endfacet
facet normal 0.16564374 0.39141673 0.90518236
 outer loop
  vertex 3.9539075 2.9150147 -0.51587915
  vertex 3.3909516 5.1679564 -1.3870726
  vertex 3.1729946 2.9150147 -0.37297606
 endloop
endfacet
facet normal -0.5229329 0.39141664 0.7571883
 outer loop
  vertex 3.1729946 2.9150147 -0.37297606
  vertex 3.3909516 5.1679564 -1.3870726
  vertex 2.5197582 2.9150147 -0.8241172
 endloop
endfacet
facet normal -0.87420285 0.39141673 -0.28733662
 outer loop
  vertex 2.515571 3.534306 -1.3211737
  vertex 3.3909516 5.4410334 -1.3870726
  vertex 2.7253666 3.534306 -1.9594626
 endloop
endfacet
facet normal -0.41497716 0.3914168 -0.8213324
 outer loop
  vertex 2.7253666 3.534306 -1.9594626
  vertex 3.3909516 5.4410334 -1.3870726
  vertex 3.3250523 3.534306 -2.262453
 endloop
endfacet
facet normal 0.28733608 0.3914168 -0.874203
 outer loop
  vertex 3.3250523 3.534306 -2.262453
  vertex 3.3909516 5.4410334 -1.3870726
  vertex 3.9633412 3.534306 -2.052658
 endloop
endfacet
facet normal 0.8213325 0.3914167 -0.41497695
 outer loop
  vertex 3.9633412 3.534306 -2.052658
  vertex 3.3909516 5.4410334 -1.3870726
  vertex 4.2663317 3.534306 -1.4529719
 endloop
endfacet
facet normal 0.8742031 0.39141655 0.2873362
 outer loop
  vertex 4.2663317 3.534306 -1.4529719
  vertex 3.3909516 5.4410334 -1.3870726
  vertex 4.0565367 3.534306 -0.81468344
 endloop
endfacet
facet normal 0.41497764 0.3914165 0.8213322
 outer loop
  vertex 4.0565367 3.534306 -0.81468344
  vertex 3.3909516 5.4410334 -1.3870726
  vertex 3.456851 3.534306 -0.5116925
 endloop
endfacet
facet normal -0.28733635 0.39141658 0.874203
 outer loop
  vertex 3.456851 3.534306 -0.5116925
  vertex 3.3909516 5.4410334 -1.3870726
  vertex 2.818562 3.534306 -0.72148776
 endloop
endfacet
facet normal -0.82133216 0.39141664 0.41497758
 outer loop
  vertex 2.818562 3.534306 -0.72148776
  vertex 3.3909516 5.4410334 -1.3870726
  vertex 2.515571 3.534306 -1.3211737
 endloop
endfacet
facet normal -0.35215056 0.3914167 0.85016644
 outer loop
  vertex 3.356937 1.318669 3.069876
  vertex 3.356937 4.4640474 1.6217433
  vertex 2.3329525 1.318669 2.6457276
 endloop
endfacet
facet normal -0.8501665 0.3914167 0.35215038
 outer loop
  vertex 2.3329525 1.318669 2.6457276
  vertex 3.356937 4.4640474 1.6217433
  vertex 1.9088044 1.318669 1.6217433
 endloop
endfacet
facet normal -0.8501665 0.3914167 -0.35215038
 outer loop
  vertex 1.9088044 1.318669 1.6217433
  vertex 3.356937 4.4640474 1.6217433
  vertex 2.3329525 1.318669 0.597759
 endloop
endfacet
facet normal -0.35215032 0.39141667 -0.8501665
 outer loop
  vertex 2.3329525 1.318669 0.597759
  vertex 3.356937 4.4640474 1.6217433
  vertex 3.356937 1.318669 0.17361093
 endloop
endfacet
facet normal 0.35215032 0.39141667 -0.8501665
 outer loop
  vertex 3.356937 1.318669 0.17361093
  vertex 3.356937 4.4640474 1.6217433
  vertex 4.3809214 1.318669 0.597759
 endloop
endfacet
facet normal 0.8501665 0.3914167 -0.35215038
 outer loop
  vertex 4.3809214 1.318669 0.597759
  vertex 3.356937 4.4640474 1.6217433
  vertex 4.8050694 1.318669 1.6217433
 endloop
endfacet
facet normal 0.8501665 0.3914167 0.35215038
 outer loop
  vertex 4.8050694 1.318669 1.6217433
  vertex 3.356937 4.4640474 1.6217433
  vertex 4.3809214 1.318669 2.6457276
 endloop
endfacet
facet normal 0.35215056 0.3914167 0.85016644
 outer loop
  vertex 4.3809214 1.318669 2.6457276
  vertex 3.356937 4.4640474 1.6217433
  vertex 3.356937 1.318669 3.069876
 endloop
endfacet
facet normal -0.7157964 0.39141664 0.578298
 outer loop
  vertex 2.7709131 2.1832747 2.6981533
  vertex 3.356937 4.845296 1.6217433
  vertex 2.181419 2.1832747 1.9684986
 endloop
endfacet
facet normal -0.9150629 0.3914166 -0.09722583
 outer loop
  vertex 2.181419 2.1832747 1.9684986
  vertex 3.356937 4.845296 1.6217433
  vertex 2.280527 2.1832747 1.0357196
 endloop
endfacet
facet normal -0.57829815 0.39141664 -0.7157963
 outer loop
  vertex 2.280527 2.1832747 1.0357196
  vertex 3.356937 4.845296 1.6217433
  vertex 3.0101814 2.1832747 0.4462254
 endloop
endfacet
facet normal 0.09722588 0.3914166 -0.9150629
 outer loop
  vertex 3.0101814 2.1832747 0.4462254
  vertex 3.356937 4.845296 1.6217433
  vertex 3.9429607 2.1832747 0.5453336
 endloop
endfacet
facet normal 0.71579635 0.39141664 -0.57829815
 outer loop
  vertex 3.9429607 2.1832747 0.5453336
  vertex 3.356937 4.845296 1.6217433
  vertex 4.532455 2.1832747 1.274988
 endloop
endfacet
facet normal 0.9150629 0.39141664 0.0972258
 outer loop
  vertex 4.532455 2.1832747 1.274988
  vertex 3.356937 4.845296 1.6217433
  vertex 4.4333467 2.1832747 2.2077672
 endloop
endfacet
facet normal 0.57829815 0.3914167 0.7157963
 outer loop
  vertex 4.4333467 2.1832747 2.2077672
  vertex 3.356937 4.845296 1.6217433
  vertex 3.7036924 2.1832747 2.7972615
 endloop
endfacet
facet normal -0.09722579 0.3914167 0.9150629
 outer loop
  vertex 3.7036924 2.1832747 2.7972615
  vertex 3.356937 4.845296 1.6217433
  vertex 2.7709131 2.1832747 2.6981533
 endloop
endfacet
facet normal -0.90518236 0.39141685 0.16564342
 outer loop
  vertex 2.485743 2.9150147 2.184699
  vertex 3.356937 5.1679564 1.6217433
  vertex 2.3428402 2.9150147 1.4037862
 endloop
endfacet
facet normal -0.75718844 0.3914168 -0.52293265
 outer loop
  vertex 2.3428402 2.9150147 1.4037862
  vertex 3.356937 5.1679564 1.6217433
  vertex 2.793981 2.9150147 0.7505498
 endloop
endfacet
facet normal -0.16564372 0.3914168 -0.9051823
 outer loop
  vertex 2.793981 2.9150147 0.7505498
  vertex 3.356937 5.1679564 1.6217433
  vertex 3.574894 2.9150147 0.6076467
 endloop
endfacet
facet normal 0.5229328 0.3914167 -0.7571883
 outer loop
  vertex 3.574894 2.9150147 0.6076467
  vertex 3.356937 5.1679564 1.6217433
  vertex 4.2281303 2.9150147 1.0587878
 endloop
endfacet
facet normal 0.9051823 0.39141676 -0.165644
 outer loop
  vertex 4.2281303 2.9150147 1.0587878
  vertex 3.356937 5.1679564 1.6217433
  vertex 4.3710337 2.9150147 1.8397005
 endloop
endfacet
facet normal 0.75718856 0.39141685 0.5229325
 outer loop
  vertex 4.3710337 2.9150147 1.8397005
  vertex 3.356937 5.1679564 1.6217433
  vertex 3.9198928 2.9150147 2.492937
 endloop
endfacet
facet normal 0.16564348 0.39141682 0.90518236
 outer loop
  vertex 3.9198928 2.9150147 2.492937
  vertex 3.356937 5.1679564 1.6217433
  vertex 3.13898 2.9150147 2.63584
 endloop
endfacet
facet normal -0.52293235 0.3914168 0.7571886
 outer loop
  vertex 3.13898 2.9150147 2.63584
  vertex 3.356937 5.1679564 1.6217433
  vertex 2.485743 2.9150147 2.184699
 endloop
endfacet
facet normal -0.8742028 0.3914167 -0.28733677
 outer loop
  vertex 2.4815564 3.534306 1.6876425
  vertex 3.356937 5.4410334 1.6217433
  vertex 2.691352 3.534306 1.0493538
 endloop
endfacet
facet normal -0.41497743 0.39141658 -0.8213323
 outer loop
  vertex 2.691352 3.534306 1.0493538
  vertex 3.356937 5.4410334 1.6217433
  vertex 3.2910376 3.534306 0.74636316
 endloop
endfacet
facet normal 0.28733635 0.39141664 -0.874203
 outer loop
  vertex 3.2910376 3.534306 0.74636316
  vertex 3.356937 5.4410334 1.6217433
  vertex 3.9293265 3.534306 0.9561584
 endloop
endfacet
facet normal 0.82133216 0.39141664 -0.41497767
 outer loop
  vertex 3.9293265 3.534306 0.9561584
  vertex 3.356937 5.4410334 1.6217433
  vertex 4.2323174 3.534306 1.5558442
 endloop
endfacet
facet normal 0.8742028 0.3914167 0.28733677
 outer loop
  vertex 4.2323174 3.534306 1.5558442
  vertex 3.356937 5.4410334 1.6217433
  vertex 4.022522 3.534306 2.1941328
 endloop
endfacet
facet normal 0.4149777 0.39141664 0.82133216
 outer loop
  vertex 4.022522 3.534306 2.1941328
  vertex 3.356937 5.4410334 1.6217433
  vertex 3.4228363 3.534306 2.4971237
 endloop
endfacet
facet normal -0.28733665 0.39141664 0.87420285
 outer loop
  vertex 3.4228363 3.534306 2.4971237
  vertex 3.356937 5.4410334 1.6217433
  vertex 2.7845473 3.534306 2.2873282
 endloop
endfacet
facet normal -0.82133216 0.39141664 0.41497767
 outer loop
  vertex 2.7845473 3.534306 2.2873282
  vertex 3.356937 5.4410334 1.6217433
  vertex 2.4815564 3.534306 1.6876425
 endloop
endfacet
endsolid 
