solid 
facet normal 0.04715735 0.27631 0.9599109
 outer loop
  vertex 0.5810472 -0.5576391 5.899471
  vertex 0.5556636 0.34203482 5.641747
  vertex -6.0349747e-09 0.34203482 5.669045
 endloop
endfacet
facet normal 0.047158003 0.27631038 0.95991075
 outer loop
  vertex 0.5810472 -0.5576391 5.899471
  vertex -6.0349747e-09 0.34203482 5.669045
  vertex -6.310662e-09 -0.5576391 5.928016
 endloop
endfacet
facet normal -0.23352076 0.27631018 0.9322665
 outer loop
  vertex -1.1564987 -0.5576391 5.8141108
  vertex -1.105976 0.34203482 5.560116
  vertex -1.6456368 0.34203482 5.4249377
 endloop
endfacet
facet normal -0.23351972 0.27631074 0.93226653
 outer loop
  vertex -1.1564987 -0.5576391 5.8141108
  vertex -1.6456368 0.34203482 5.4249377
  vertex -1.7208122 -0.5576391 5.672758
 endloop
endfacet
facet normal -0.32377264 0.2763108 0.9048888
 outer loop
  vertex -1.7208122 -0.5576391 5.672758
  vertex -1.6456368 0.34203482 5.4249377
  vertex -2.1694498 0.34203482 5.2375154
 endloop
endfacet
facet normal -0.3237738 0.2763101 0.9048886
 outer loop
  vertex -1.7208122 -0.5576391 5.672758
  vertex -2.1694498 0.34203482 5.2375154
  vertex -2.268554 -0.5576391 5.4767733
 endloop
endfacet
facet normal -0.41091162 0.2763101 0.8687948
 outer loop
  vertex -2.268554 -0.5576391 5.4767733
  vertex -2.1694498 0.34203482 5.2375154
  vertex -2.6723692 0.34203482 4.999651
 endloop
endfacet
facet normal -0.41091034 0.27631086 0.86879516
 outer loop
  vertex -2.268554 -0.5576391 5.4767733
  vertex -2.6723692 0.34203482 4.999651
  vertex -2.7944477 -0.5576391 5.2280436
 endloop
endfacet
facet normal -0.494087 0.27631086 0.82433635
 outer loop
  vertex -2.7944477 -0.5576391 5.2280436
  vertex -2.6723692 0.34203482 4.999651
  vertex -3.1495528 0.34203482 4.713639
 endloop
endfacet
facet normal -0.49408776 0.27631038 0.82433605
 outer loop
  vertex -2.7944477 -0.5576391 5.2280436
  vertex -3.1495528 0.34203482 4.713639
  vertex -3.2934294 -0.5576391 4.9289656
 endloop
endfacet
facet normal -0.5725075 0.27631038 0.77193767
 outer loop
  vertex -3.2934294 -0.5576391 4.9289656
  vertex -3.1495528 0.34203482 4.713639
  vertex -3.5964046 0.34203482 4.382231
 endloop
endfacet
facet normal -0.5725079 0.27631012 0.7719375
 outer loop
  vertex -3.2934294 -0.5576391 4.9289656
  vertex -3.5964046 0.34203482 4.382231
  vertex -3.760694 -0.5576391 4.5824184
 endloop
endfacet
facet normal -0.6454146 0.27631012 0.71210444
 outer loop
  vertex -3.760694 -0.5576391 4.5824184
  vertex -3.5964046 0.34203482 4.382231
  vertex -4.0086203 0.34203482 4.0086203
 endloop
endfacet
facet normal -0.64541423 0.27631032 0.7121046
 outer loop
  vertex -3.760694 -0.5576391 4.5824184
  vertex -4.0086203 0.34203482 4.0086203
  vertex -4.1917405 -0.5576391 4.1917405
 endloop
endfacet
facet normal -0.71210444 0.27631035 0.6454146
 outer loop
  vertex -4.1917405 -0.5576391 4.1917405
  vertex -4.0086203 0.34203482 4.0086203
  vertex -4.382231 0.34203482 3.5964046
 endloop
endfacet
facet normal -0.7121046 0.27631012 0.6454143
 outer loop
  vertex -4.1917405 -0.5576391 4.1917405
  vertex -4.382231 0.34203482 3.5964046
  vertex -4.5824184 -0.5576391 3.760694
 endloop
endfacet
facet normal -0.7719377 0.27631015 0.57250756
 outer loop
  vertex -4.5824184 -0.5576391 3.760694
  vertex -4.382231 0.34203482 3.5964046
  vertex -4.713639 0.34203482 3.1495528
 endloop
endfacet
facet normal -0.7719374 0.27631038 0.57250786
 outer loop
  vertex -4.5824184 -0.5576391 3.760694
  vertex -4.713639 0.34203482 3.1495528
  vertex -4.9289656 -0.5576391 3.2934294
 endloop
endfacet
facet normal -0.8243364 0.27631038 0.49408707
 outer loop
  vertex -4.9289656 -0.5576391 3.2934294
  vertex -4.713639 0.34203482 3.1495528
  vertex -4.999651 0.34203482 2.6723692
 endloop
endfacet
facet normal -0.82433593 0.27631083 0.4940877
 outer loop
  vertex -4.9289656 -0.5576391 3.2934294
  vertex -4.999651 0.34203482 2.6723692
  vertex -5.2280436 -0.5576391 2.7944477
 endloop
endfacet
facet normal -0.8687946 0.27631086 0.41091153
 outer loop
  vertex -5.2280436 -0.5576391 2.7944477
  vertex -4.999651 0.34203482 2.6723692
  vertex -5.2375154 0.34203482 2.1694498
 endloop
endfacet
facet normal -0.8687954 0.27631012 0.41091046
 outer loop
  vertex -5.2280436 -0.5576391 2.7944477
  vertex -5.2375154 0.34203482 2.1694498
  vertex -5.4767733 -0.5576391 2.268554
 endloop
endfacet
facet normal -0.9048889 0.27631006 0.32377267
 outer loop
  vertex -5.4767733 -0.5576391 2.268554
  vertex -5.2375154 0.34203482 2.1694498
  vertex -5.4249377 0.34203482 1.6456368
 endloop
endfacet
facet normal -0.9048884 0.27631077 0.32377374
 outer loop
  vertex -5.4767733 -0.5576391 2.268554
  vertex -5.4249377 0.34203482 1.6456368
  vertex -5.672758 -0.5576391 1.7208122
 endloop
endfacet
facet normal -0.93226624 0.27631077 0.23352066
 outer loop
  vertex -5.672758 -0.5576391 1.7208122
  vertex -5.4249377 0.34203482 1.6456368
  vertex -5.560116 0.34203482 1.1059759
 endloop
endfacet
facet normal -0.9322667 0.2763102 0.23351978
 outer loop
  vertex -5.672758 -0.5576391 1.7208122
  vertex -5.560116 0.34203482 1.1059759
  vertex -5.8141108 -0.5576391 1.1564986
 endloop
endfacet
facet normal -0.9506664 0.2763102 0.14101815
 outer loop
  vertex -5.8141108 -0.5576391 1.1564986
  vertex -5.560116 0.34203482 1.1059759
  vertex -5.641747 0.34203482 0.5556636
 endloop
endfacet
facet normal -0.9506664 0.27631003 0.14101788
 outer loop
  vertex -5.8141108 -0.5576391 1.1564986
  vertex -5.641747 0.34203482 0.5556636
  vertex -5.899471 -0.5576391 0.5810472
 endloop
endfacet
facet normal -0.9599109 0.27631 0.047157347
 outer loop
  vertex -5.899471 -0.5576391 0.5810472
  vertex -5.641747 0.34203482 0.5556636
  vertex -5.669045 0.34203482 -3.511258e-08
 endloop
endfacet
facet normal -0.9599108 0.27631038 0.047158
 outer loop
  vertex -5.899471 -0.5576391 0.5810472
  vertex -5.669045 0.34203482 -3.511258e-08
  vertex -5.928016 -0.5576391 -3.671658e-08
 endloop
endfacet
facet normal -0.9599108 0.27631038 -0.04715734
 outer loop
  vertex -5.928016 -0.5576391 -3.671658e-08
  vertex -5.669045 0.34203482 -3.511258e-08
  vertex -5.641747 0.34203482 -0.5556637
 endloop
endfacet
facet normal -0.95991087 0.27631 -0.047158003
 outer loop
  vertex -5.928016 -0.5576391 -3.671658e-08
  vertex -5.641747 0.34203482 -0.5556637
  vertex -5.899471 -0.5576391 -0.5810473
 endloop
endfacet
facet normal -0.9506664 0.27631003 -0.14101815
 outer loop
  vertex -5.899471 -0.5576391 -0.5810473
  vertex -5.641747 0.34203482 -0.5556637
  vertex -5.560116 0.34203482 -1.105976
 endloop
endfacet
facet normal -0.9506664 0.27631018 -0.1410179
 outer loop
  vertex -5.899471 -0.5576391 -0.5810473
  vertex -5.560116 0.34203482 -1.105976
  vertex -5.8141108 -0.5576391 -1.1564987
 endloop
endfacet
facet normal -0.9322665 0.27631018 -0.23352076
 outer loop
  vertex -5.8141108 -0.5576391 -1.1564987
  vertex -5.560116 0.34203482 -1.105976
  vertex -5.4249377 0.34203482 -1.6456368
 endloop
endfacet
facet normal -0.93226653 0.27631074 -0.23351972
 outer loop
  vertex -5.8141108 -0.5576391 -1.1564987
  vertex -5.4249377 0.34203482 -1.6456368
  vertex -5.672758 -0.5576391 -1.7208122
 endloop
endfacet
facet normal -0.9048888 0.2763108 -0.32377264
 outer loop
  vertex -5.672758 -0.5576391 -1.7208122
  vertex -5.4249377 0.34203482 -1.6456368
  vertex -5.2375154 0.34203482 -2.1694498
 endloop
endfacet
facet normal -0.9048886 0.2763101 -0.3237738
 outer loop
  vertex -5.672758 -0.5576391 -1.7208122
  vertex -5.2375154 0.34203482 -2.1694498
  vertex -5.4767733 -0.5576391 -2.268554
 endloop
endfacet
facet normal -0.8687948 0.2763101 -0.41091162
 outer loop
  vertex -5.4767733 -0.5576391 -2.268554
  vertex -5.2375154 0.34203482 -2.1694498
  vertex -4.999651 0.34203482 -2.6723692
 endloop
endfacet
facet normal -0.86879516 0.27631086 -0.41091034
 outer loop
  vertex -5.4767733 -0.5576391 -2.268554
  vertex -4.999651 0.34203482 -2.6723692
  vertex -5.2280436 -0.5576391 -2.7944477
 endloop
endfacet
facet normal -0.82433635 0.27631086 -0.494087
 outer loop
  vertex -5.2280436 -0.5576391 -2.7944477
  vertex -4.999651 0.34203482 -2.6723692
  vertex -4.713639 0.34203482 -3.1495528
 endloop
endfacet
facet normal -0.82433605 0.27631038 -0.49408776
 outer loop
  vertex -5.2280436 -0.5576391 -2.7944477
  vertex -4.713639 0.34203482 -3.1495528
  vertex -4.9289656 -0.5576391 -3.2934294
 endloop
endfacet
facet normal -0.77193767 0.27631038 -0.5725075
 outer loop
  vertex -4.9289656 -0.5576391 -3.2934294
  vertex -4.713639 0.34203482 -3.1495528
  vertex -4.382231 0.34203482 -3.5964046
 endloop
endfacet
facet normal -0.7719375 0.27631012 -0.5725079
 outer loop
  vertex -4.9289656 -0.5576391 -3.2934294
  vertex -4.382231 0.34203482 -3.5964046
  vertex -4.5824184 -0.5576391 -3.760694
 endloop
endfacet
facet normal -0.71210444 0.27631012 -0.6454146
 outer loop
  vertex -4.5824184 -0.5576391 -3.760694
  vertex -4.382231 0.34203482 -3.5964046
  vertex -4.0086203 0.34203482 -4.0086203
 endloop
endfacet
facet normal -0.7121046 0.27631032 -0.64541423
 outer loop
  vertex -4.5824184 -0.5576391 -3.760694
  vertex -4.0086203 0.34203482 -4.0086203
  vertex -4.1917405 -0.5576391 -4.1917405
 endloop
endfacet
facet normal -0.6454145 0.27631032 -0.7121044
 outer loop
  vertex -4.1917405 -0.5576391 -4.1917405
  vertex -4.0086203 0.34203482 -4.0086203
  vertex -3.5964046 0.34203482 -4.382231
 endloop
endfacet
facet normal -0.64541435 0.27631015 -0.71210474
 outer loop
  vertex -4.1917405 -0.5576391 -4.1917405
  vertex -3.5964046 0.34203482 -4.382231
  vertex -3.760694 -0.5576391 -4.5824184
 endloop
endfacet
facet normal -0.57250756 0.27631015 -0.7719377
 outer loop
  vertex -3.760694 -0.5576391 -4.5824184
  vertex -3.5964046 0.34203482 -4.382231
  vertex -3.1495528 0.34203482 -4.713639
 endloop
endfacet
facet normal -0.57250786 0.27631038 -0.7719374
 outer loop
  vertex -3.760694 -0.5576391 -4.5824184
  vertex -3.1495528 0.34203482 -4.713639
  vertex -3.2934294 -0.5576391 -4.9289656
 endloop
endfacet
facet normal -0.49408707 0.27631038 -0.8243364
 outer loop
  vertex -3.2934294 -0.5576391 -4.9289656
  vertex -3.1495528 0.34203482 -4.713639
  vertex -2.6723692 0.34203482 -4.999651
 endloop
endfacet
facet normal -0.4940877 0.27631083 -0.82433593
 outer loop
  vertex -3.2934294 -0.5576391 -4.9289656
  vertex -2.6723692 0.34203482 -4.999651
  vertex -2.7944477 -0.5576391 -5.2280436
 endloop
endfacet
facet normal -0.41091153 0.27631086 -0.8687946
 outer loop
  vertex -2.7944477 -0.5576391 -5.2280436
  vertex -2.6723692 0.34203482 -4.999651
  vertex -2.1694498 0.34203482 -5.2375154
 endloop
endfacet
facet normal -0.41091046 0.27631012 -0.8687954
 outer loop
  vertex -2.7944477 -0.5576391 -5.2280436
  vertex -2.1694498 0.34203482 -5.2375154
  vertex -2.268554 -0.5576391 -5.4767733
 endloop
endfacet
facet normal -0.32377267 0.27631006 -0.9048889
 outer loop
  vertex -2.268554 -0.5576391 -5.4767733
  vertex -2.1694498 0.34203482 -5.2375154
  vertex -1.6456368 0.34203482 -5.4249377
 endloop
endfacet
facet normal -0.32377374 0.27631077 -0.9048884
 outer loop
  vertex -2.268554 -0.5576391 -5.4767733
  vertex -1.6456368 0.34203482 -5.4249377
  vertex -1.7208122 -0.5576391 -5.672758
 endloop
endfacet
facet normal -0.23352072 0.27631077 -0.93226624
 outer loop
  vertex -1.7208122 -0.5576391 -5.672758
  vertex -1.6456368 0.34203482 -5.4249377
  vertex -1.105976 0.34203482 -5.560116
 endloop
endfacet
facet normal -0.2335198 0.27631018 -0.9322667
 outer loop
  vertex -1.7208122 -0.5576391 -5.672758
  vertex -1.105976 0.34203482 -5.560116
  vertex -1.1564987 -0.5576391 -5.8141108
 endloop
endfacet
facet normal -0.14101812 0.27631018 -0.95066637
 outer loop
  vertex -1.1564987 -0.5576391 -5.8141108
  vertex -1.105976 0.34203482 -5.560116
  vertex -0.5556636 0.34203482 -5.641747
 endloop
endfacet
facet normal -0.14101787 0.27631006 -0.95066655
 outer loop
  vertex -1.1564987 -0.5576391 -5.8141108
  vertex -0.5556636 0.34203482 -5.641747
  vertex -0.5810472 -0.5576391 -5.899471
 endloop
endfacet
facet normal -0.04715735 0.27631 -0.9599109
 outer loop
  vertex -0.5810472 -0.5576391 -5.899471
  vertex -0.5556636 0.34203482 -5.641747
  vertex -6.0349747e-09 0.34203482 -5.669045
 endloop
endfacet
facet normal -0.047158003 0.27631038 -0.95991075
 outer loop
  vertex -0.5810472 -0.5576391 -5.899471
  vertex -6.0349747e-09 0.34203482 -5.669045
  vertex -6.310662e-09 -0.5576391 -5.928016
 endloop
endfacet
facet normal 0.047157347 0.27631038 -0.9599108
 outer loop
  vertex -6.310662e-09 -0.5576391 -5.928016
  vertex -6.0349747e-09 0.34203482 -5.669045
  vertex 0.5556636 0.34203482 -5.641747
 endloop
endfacet
facet normal 0.047158007 0.27631 -0.95991087
 outer loop
  vertex -6.310662e-09 -0.5576391 -5.928016
  vertex 0.5556636 0.34203482 -5.641747
  vertex 0.5810472 -0.5576391 -5.899471
 endloop
endfacet
facet normal 0.14101814 0.27631006 -0.9506665
 outer loop
  vertex 0.5810472 -0.5576391 -5.899471
  vertex 0.5556636 0.34203482 -5.641747
  vertex 1.105976 0.34203482 -5.560116
 endloop
endfacet
facet normal 0.14101785 0.27631018 -0.9506664
 outer loop
  vertex 0.5810472 -0.5576391 -5.899471
  vertex 1.105976 0.34203482 -5.560116
  vertex 1.1564987 -0.5576391 -5.8141108
 endloop
endfacet
facet normal 0.23352076 0.27631018 -0.9322665
 outer loop
  vertex 1.1564987 -0.5576391 -5.8141108
  vertex 1.105976 0.34203482 -5.560116
  vertex 1.6456368 0.34203482 -5.4249377
 endloop
endfacet
facet normal 0.23351972 0.27631074 -0.93226653
 outer loop
  vertex 1.1564987 -0.5576391 -5.8141108
  vertex 1.6456368 0.34203482 -5.4249377
  vertex 1.7208122 -0.5576391 -5.672758
 endloop
endfacet
facet normal 0.32377264 0.2763108 -0.9048888
 outer loop
  vertex 1.7208122 -0.5576391 -5.672758
  vertex 1.6456368 0.34203482 -5.4249377
  vertex 2.1694498 0.34203482 -5.2375154
 endloop
endfacet
facet normal 0.3237738 0.2763101 -0.9048886
 outer loop
  vertex 1.7208122 -0.5576391 -5.672758
  vertex 2.1694498 0.34203482 -5.2375154
  vertex 2.268554 -0.5576391 -5.4767733
 endloop
endfacet
facet normal 0.41091162 0.2763101 -0.8687948
 outer loop
  vertex 2.268554 -0.5576391 -5.4767733
  vertex 2.1694498 0.34203482 -5.2375154
  vertex 2.6723692 0.34203482 -4.999651
 endloop
endfacet
facet normal 0.41091034 0.27631086 -0.86879516
 outer loop
  vertex 2.268554 -0.5576391 -5.4767733
  vertex 2.6723692 0.34203482 -4.999651
  vertex 2.7944477 -0.5576391 -5.2280436
 endloop
endfacet
facet normal 0.494087 0.27631086 -0.82433635
 outer loop
  vertex 2.7944477 -0.5576391 -5.2280436
  vertex 2.6723692 0.34203482 -4.999651
  vertex 3.1495528 0.34203482 -4.713639
 endloop
endfacet
facet normal 0.49408776 0.27631038 -0.82433605
 outer loop
  vertex 2.7944477 -0.5576391 -5.2280436
  vertex 3.1495528 0.34203482 -4.713639
  vertex 3.2934294 -0.5576391 -4.9289656
 endloop
endfacet
facet normal 0.5725075 0.27631038 -0.77193767
 outer loop
  vertex 3.2934294 -0.5576391 -4.9289656
  vertex 3.1495528 0.34203482 -4.713639
  vertex 3.5964046 0.34203482 -4.382231
 endloop
endfacet
facet normal 0.5725079 0.27631012 -0.7719375
 outer loop
  vertex 3.2934294 -0.5576391 -4.9289656
  vertex 3.5964046 0.34203482 -4.382231
  vertex 3.760694 -0.5576391 -4.5824184
 endloop
endfacet
facet normal 0.6454146 0.27631012 -0.71210444
 outer loop
  vertex 3.760694 -0.5576391 -4.5824184
  vertex 3.5964046 0.34203482 -4.382231
  vertex 4.0086203 0.34203482 -4.0086203
 endloop
endfacet
facet normal 0.64541423 0.27631032 -0.7121046
 outer loop
  vertex 3.760694 -0.5576391 -4.5824184
  vertex 4.0086203 0.34203482 -4.0086203
  vertex 4.1917405 -0.5576391 -4.1917405
 endloop
endfacet
facet normal 0.71210444 0.27631035 -0.6454146
 outer loop
  vertex 4.1917405 -0.5576391 -4.1917405
  vertex 4.0086203 0.34203482 -4.0086203
  vertex 4.382231 0.34203482 -3.5964046
 endloop
endfacet
facet normal 0.7121046 0.27631012 -0.6454143
 outer loop
  vertex 4.1917405 -0.5576391 -4.1917405
  vertex 4.382231 0.34203482 -3.5964046
  vertex 4.5824184 -0.5576391 -3.760694
 endloop
endfacet
facet normal 0.7719377 0.27631015 -0.57250756
 outer loop
  vertex 4.5824184 -0.5576391 -3.760694
  vertex 4.382231 0.34203482 -3.5964046
  vertex 4.713639 0.34203482 -3.1495528
 endloop
endfacet
facet normal 0.7719374 0.27631038 -0.57250786
 outer loop
  vertex 4.5824184 -0.5576391 -3.760694
  vertex 4.713639 0.34203482 -3.1495528
  vertex 4.9289656 -0.5576391 -3.2934294
 endloop
endfacet
facet normal 0.8243364 0.27631038 -0.49408707
 outer loop
  vertex 4.9289656 -0.5576391 -3.2934294
  vertex 4.713639 0.34203482 -3.1495528
  vertex 4.999651 0.34203482 -2.6723692
 endloop
endfacet
facet normal 0.82433593 0.27631083 -0.4940877
 outer loop
  vertex 4.9289656 -0.5576391 -3.2934294
  vertex 4.999651 0.34203482 -2.6723692
  vertex 5.2280436 -0.5576391 -2.7944477
 endloop
endfacet
facet normal 0.8687946 0.27631086 -0.41091153
 outer loop
  vertex 5.2280436 -0.5576391 -2.7944477
  vertex 4.999651 0.34203482 -2.6723692
  vertex 5.2375154 0.34203482 -2.1694498
 endloop
endfacet
facet normal 0.8687954 0.27631012 -0.41091046
 outer loop
  vertex 5.2280436 -0.5576391 -2.7944477
  vertex 5.2375154 0.34203482 -2.1694498
  vertex 5.4767733 -0.5576391 -2.268554
 endloop
endfacet
facet normal 0.9048889 0.27631006 -0.32377267
 outer loop
  vertex 5.4767733 -0.5576391 -2.268554
  vertex 5.2375154 0.34203482 -2.1694498
  vertex 5.4249377 0.34203482 -1.6456368
 endloop
endfacet
facet normal 0.9048884 0.27631077 -0.32377374
 outer loop
  vertex 5.4767733 -0.5576391 -2.268554
  vertex 5.4249377 0.34203482 -1.6456368
  vertex 5.672758 -0.5576391 -1.7208122
 endloop
endfacet
facet normal 0.93226624 0.27631077 -0.23352072
 outer loop
  vertex 5.672758 -0.5576391 -1.7208122
  vertex 5.4249377 0.34203482 -1.6456368
  vertex 5.560116 0.34203482 -1.105976
 endloop
endfacet
facet normal 0.9322667 0.27631018 -0.2335198
 outer loop
  vertex 5.672758 -0.5576391 -1.7208122
  vertex 5.560116 0.34203482 -1.105976
  vertex 5.8141108 -0.5576391 -1.1564987
 endloop
endfacet
facet normal 0.9506664 0.2763102 -0.14101815
 outer loop
  vertex 5.8141108 -0.5576391 -1.1564987
  vertex 5.560116 0.34203482 -1.105976
  vertex 5.641747 0.34203482 -0.5556637
 endloop
endfacet
facet normal 0.9506664 0.27631003 -0.14101788
 outer loop
  vertex 5.8141108 -0.5576391 -1.1564987
  vertex 5.641747 0.34203482 -0.5556637
  vertex 5.899471 -0.5576391 -0.5810473
 endloop
endfacet
facet normal 0.9599109 0.27631 -0.047157347
 outer loop
  vertex 5.899471 -0.5576391 -0.5810473
  vertex 5.641747 0.34203482 -0.5556637
  vertex 5.669045 0.34203482 -3.511258e-08
 endloop
endfacet
facet normal 0.9599108 0.27631038 -0.047158
 outer loop
  vertex 5.899471 -0.5576391 -0.5810473
  vertex 5.669045 0.34203482 -3.511258e-08
  vertex 5.928016 -0.5576391 -3.671658e-08
 endloop
endfacet
facet normal 0.9599108 0.27631038 0.04715734
 outer loop
  vertex 5.928016 -0.5576391 -3.671658e-08
  vertex 5.669045 0.34203482 -3.511258e-08
  vertex 5.641747 0.34203482 0.5556636
 endloop
endfacet
facet normal 0.95991087 0.27631 0.047158003
 outer loop
  vertex 5.928016 -0.5576391 -3.671658e-08
  vertex 5.641747 0.34203482 0.5556636
  vertex 5.899471 -0.5576391 0.5810472
 endloop
endfacet
facet normal 0.9506664 0.27631003 0.14101815
 outer loop
  vertex 5.899471 -0.5576391 0.5810472
  vertex 5.641747 0.34203482 0.5556636
  vertex 5.560116 0.34203482 1.1059759
 endloop
endfacet
facet normal 0.9506664 0.27631018 0.1410179
 outer loop
  vertex 5.899471 -0.5576391 0.5810472
  vertex 5.560116 0.34203482 1.1059759
  vertex 5.8141108 -0.5576391 1.1564986
 endloop
endfacet
facet normal 0.9322665 0.27631018 0.23352072
 outer loop
  vertex 5.8141108 -0.5576391 1.1564986
  vertex 5.560116 0.34203482 1.1059759
  vertex 5.4249377 0.34203482 1.6456368
 endloop
endfacet
facet normal 0.93226653 0.27631074 0.23351967
 outer loop
  vertex 5.8141108 -0.5576391 1.1564986
  vertex 5.4249377 0.34203482 1.6456368
  vertex 5.672758 -0.5576391 1.7208122
 endloop
endfacet
facet normal 0.9048888 0.2763108 0.32377264
 outer loop
  vertex 5.672758 -0.5576391 1.7208122
  vertex 5.4249377 0.34203482 1.6456368
  vertex 5.2375154 0.34203482 2.1694498
 endloop
endfacet
facet normal 0.9048886 0.2763101 0.3237738
 outer loop
  vertex 5.672758 -0.5576391 1.7208122
  vertex 5.2375154 0.34203482 2.1694498
  vertex 5.4767733 -0.5576391 2.268554
 endloop
endfacet
facet normal 0.8687948 0.2763101 0.41091162
 outer loop
  vertex 5.4767733 -0.5576391 2.268554
  vertex 5.2375154 0.34203482 2.1694498
  vertex 4.999651 0.34203482 2.6723692
 endloop
endfacet
facet normal 0.86879516 0.27631086 0.41091034
 outer loop
  vertex 5.4767733 -0.5576391 2.268554
  vertex 4.999651 0.34203482 2.6723692
  vertex 5.2280436 -0.5576391 2.7944477
 endloop
endfacet
facet normal 0.82433635 0.27631086 0.494087
 outer loop
  vertex 5.2280436 -0.5576391 2.7944477
  vertex 4.999651 0.34203482 2.6723692
  vertex 4.713639 0.34203482 3.1495528
 endloop
endfacet
facet normal 0.82433605 0.27631038 0.49408776
 outer loop
  vertex 5.2280436 -0.5576391 2.7944477
  vertex 4.713639 0.34203482 3.1495528
  vertex 4.9289656 -0.5576391 3.2934294
 endloop
endfacet
facet normal 0.77193767 0.27631038 0.5725075
 outer loop
  vertex 4.9289656 -0.5576391 3.2934294
  vertex 4.713639 0.34203482 3.1495528
  vertex 4.382231 0.34203482 3.5964046
 endloop
endfacet
facet normal 0.7719375 0.27631012 0.5725079
 outer loop
  vertex 4.9289656 -0.5576391 3.2934294
  vertex 4.382231 0.34203482 3.5964046
  vertex 4.5824184 -0.5576391 3.760694
 endloop
endfacet
facet normal 0.71210444 0.27631012 0.6454146
 outer loop
  vertex 4.5824184 -0.5576391 3.760694
  vertex 4.382231 0.34203482 3.5964046
  vertex 4.0086203 0.34203482 4.0086203
 endloop
endfacet
facet normal 0.7121046 0.27631032 0.64541423
 outer loop
  vertex 4.5824184 -0.5576391 3.760694
  vertex 4.0086203 0.34203482 4.0086203
  vertex 4.1917405 -0.5576391 4.1917405
 endloop
endfacet
facet normal 0.6454145 0.27631032 0.7121044
 outer loop
  vertex 4.1917405 -0.5576391 4.1917405
  vertex 4.0086203 0.34203482 4.0086203
  vertex 3.5964046 0.34203482 4.382231
 endloop
endfacet
facet normal 0.64541435 0.27631015 0.71210474
 outer loop
  vertex 4.1917405 -0.5576391 4.1917405
  vertex 3.5964046 0.34203482 4.382231
  vertex 3.760694 -0.5576391 4.5824184
 endloop
endfacet
facet normal 0.57250756 0.27631015 0.7719377
 outer loop
  vertex 3.760694 -0.5576391 4.5824184
  vertex 3.5964046 0.34203482 4.382231
  vertex 3.1495528 0.34203482 4.713639
 endloop
endfacet
facet normal 0.57250786 0.27631038 0.7719374
 outer loop
  vertex 3.760694 -0.5576391 4.5824184
  vertex 3.1495528 0.34203482 4.713639
  vertex 3.2934294 -0.5576391 4.9289656
 endloop
endfacet
facet normal 0.49408707 0.27631038 0.8243364
 outer loop
  vertex 3.2934294 -0.5576391 4.9289656
  vertex 3.1495528 0.34203482 4.713639
  vertex 2.6723692 0.34203482 4.999651
 endloop
endfacet
facet normal 0.4940877 0.27631083 0.82433593
 outer loop
  vertex 3.2934294 -0.5576391 4.9289656
  vertex 2.6723692 0.34203482 4.999651
  vertex 2.7944477 -0.5576391 5.2280436
 endloop
endfacet
facet normal 0.41091153 0.27631086 0.8687946
 outer loop
  vertex 2.7944477 -0.5576391 5.2280436
  vertex 2.6723692 0.34203482 4.999651
  vertex 2.1694498 0.34203482 5.2375154
 endloop
endfacet
facet normal 0.41091046 0.27631012 0.8687954
 outer loop
  vertex 2.7944477 -0.5576391 5.2280436
  vertex 2.1694498 0.34203482 5.2375154
  vertex 2.268554 -0.5576391 5.4767733
 endloop
endfacet
facet normal 0.32377267 0.27631006 0.9048889
 outer loop
  vertex 2.268554 -0.5576391 5.4767733
  vertex 2.1694498 0.34203482 5.2375154
  vertex 1.6456368 0.34203482 5.4249377
 endloop
endfacet
facet normal 0.32377374 0.27631077 0.9048884
 outer loop
  vertex 2.268554 -0.5576391 5.4767733
  vertex 1.6456368 0.34203482 5.4249377
  vertex 1.7208122 -0.5576391 5.672758
 endloop
endfacet
facet normal 0.23352072 0.27631077 0.93226624
 outer loop
  vertex 1.7208122 -0.5576391 5.672758
  vertex 1.6456368 0.34203482 5.4249377
  vertex 1.105976 0.34203482 5.560116
 endloop
endfacet
facet normal 0.2335198 0.27631018 0.9322667
 outer loop
  vertex 1.7208122 -0.5576391 5.672758
  vertex 1.105976 0.34203482 5.560116
  vertex 1.1564987 -0.5576391 5.8141108
 endloop
endfacet
facet normal 0.14101812 0.27631018 0.95066637
 outer loop
  vertex 1.1564987 -0.5576391 5.8141108
  vertex 1.105976 0.34203482 5.560116
  vertex 0.5556636 0.34203482 5.641747
 endloop
endfacet
facet normal 0.14101787 0.27631006 0.95066655
 outer loop
  vertex 1.1564987 -0.5576391 5.8141108
  vertex 0.5556636 0.34203482 5.641747
  vertex 0.5810472 -0.5576391 5.899471
 endloop
endfacet
facet normal -0.047157347 0.27631038 0.9599108
 outer loop
  vertex -6.310662e-09 -0.5576391 5.928016
  vertex -6.0349747e-09 0.34203482 5.669045
  vertex -0.5556636 0.34203482 5.641747
 endloop
endfacet
facet normal -0.047158007 0.27631 0.95991087
 outer loop
  vertex -6.310662e-09 -0.5576391 5.928016
  vertex -0.5556636 0.34203482 5.641747
  vertex -0.5810472 -0.5576391 5.899471
 endloop
endfacet
facet normal -0.14101814 0.27631006 0.9506665
 outer loop
  vertex -0.5810472 -0.5576391 5.899471
  vertex -0.5556636 0.34203482 5.641747
  vertex -1.105976 0.34203482 5.560116
 endloop
endfacet
facet normal -0.14101785 0.27631018 0.9506664
 outer loop
  vertex -0.5810472 -0.5576391 5.899471
  vertex -1.105976 0.34203482 5.560116
  vertex -1.1564987 -0.5576391 5.8141108
 endloop
endfacet
facet normal 0 -1 0
 outer loop
  vertex 0.5810472 -0.5576391 5.899471
  vertex -6.310662e-09 -0.5576391 5.928016
  vertex -0.5810472 -0.5576391 5.899471
 endloop
endfacet
facet normal 0 -1 0
 outer loop
  vertex -0.5810472 -0.5576391 5.899471
  vertex -1.1564987 -0.5576391 5.8141108
  vertex -1.7208122 -0.5576391 5.672758
 endloop
endfacet
facet normal 0 -1 0
 outer loop
  vertex -1.7208122 -0.5576391 5.672758
  vertex -2.268554 -0.5576391 5.4767733
  vertex -2.7944477 -0.5576391 5.2280436
 endloop
endfacet
facet normal 0 -1 0
 outer loop
  vertex -2.7944477 -0.5576391 5.2280436
  vertex -3.2934294 -0.5576391 4.9289656
  vertex -3.760694 -0.5576391 4.5824184
 endloop
endfacet
facet normal 0 -1 0
 outer loop
  vertex -3.760694 -0.5576391 4.5824184
  vertex -4.1917405 -0.5576391 4.1917405
  vertex -4.5824184 -0.5576391 3.760694
 endloop
endfacet
facet normal 0 -1 0
 outer loop
  vertex -4.5824184 -0.5576391 3.760694
  vertex -4.9289656 -0.5576391 3.2934294
  vertex -5.2280436 -0.5576391 2.7944477
 endloop
endfacet
facet normal 0 -1 0
 outer loop
  vertex -5.2280436 -0.5576391 2.7944477
  vertex -5.4767733 -0.5576391 2.268554
  vertex -5.672758 -0.5576391 1.7208122
 endloop
endfacet
facet normal 0 -1 0
 outer loop
  vertex -5.672758 -0.5576391 1.7208122
  vertex -5.8141108 -0.5576391 1.1564986
  vertex -5.899471 -0.5576391 0.5810472
 endloop
endfacet
facet normal 0 -1 0
 outer loop
  vertex -5.899471 -0.5576391 0.5810472
  vertex -5.928016 -0.5576391 -3.671658e-08
  vertex -5.899471 -0.5576391 -0.5810473
 endloop
endfacet
facet normal 0 -1 0
 outer loop
  vertex -5.899471 -0.5576391 -0.5810473
  vertex -5.8141108 -0.5576391 -1.1564987
  vertex -5.672758 -0.5576391 -1.7208122
 endloop
endfacet
facet normal 0 -1 0
 outer loop
  vertex -5.672758 -0.5576391 -1.7208122
  vertex -5.4767733 -0.5576391 -2.268554
  vertex -5.2280436 -0.5576391 -2.7944477
 endloop
endfacet
facet normal 0 -1 0
 outer loop
  vertex -5.2280436 -0.5576391 -2.7944477
  vertex -4.9289656 -0.5576391 -3.2934294
  vertex -4.5824184 -0.5576391 -3.760694
 endloop
endfacet
facet normal 0 -1 0
 outer loop
  vertex -4.5824184 -0.5576391 -3.760694
  vertex -4.1917405 -0.5576391 -4.1917405
  vertex -3.760694 -0.5576391 -4.5824184
 endloop
endfacet
facet normal 0 -1 0
 outer loop
  vertex -3.760694 -0.5576391 -4.5824184
  vertex -3.2934294 -0.5576391 -4.9289656
  vertex -2.7944477 -0.5576391 -5.2280436
 endloop
endfacet
facet normal 0 -1 0
 outer loop
  vertex -2.7944477 -0.5576391 -5.2280436
  vertex -2.268554 -0.5576391 -5.4767733
  vertex -1.7208122 -0.5576391 -5.672758
 endloop
endfacet
facet normal 0 -1 0
 outer loop
  vertex -1.7208122 -0.5576391 -5.672758
  vertex -1.1564987 -0.5576391 -5.8141108
  vertex -0.5810472 -0.5576391 -5.899471
 endloop
endfacet
facet normal -0 -1 0
 outer loop
  vertex -0.5810472 -0.5576391 -5.899471
  vertex -6.310662e-09 -0.5576391 -5.928016
  vertex 0.5810472 -0.5576391 -5.899471
 endloop
endfacet
facet normal 0 -1 0
 outer loop
  vertex 0.5810472 -0.5576391 -5.899471
  vertex 1.1564987 -0.5576391 -5.8141108
  vertex 1.7208122 -0.5576391 -5.672758
 endloop
endfacet
facet normal 0 -1 0
 outer loop
  vertex 1.7208122 -0.5576391 -5.672758
  vertex 2.268554 -0.5576391 -5.4767733
  vertex 2.7944477 -0.5576391 -5.2280436
 endloop
endfacet
facet normal 0 -1 0
 outer loop
  vertex 2.7944477 -0.5576391 -5.2280436
  vertex 3.2934294 -0.5576391 -4.9289656
  vertex 3.760694 -0.5576391 -4.5824184
 endloop
endfacet
facet normal 0 -1 0
 outer loop
  vertex 3.760694 -0.5576391 -4.5824184
  vertex 4.1917405 -0.5576391 -4.1917405
  vertex 4.5824184 -0.5576391 -3.760694
 endloop
endfacet
facet normal 0 -1 0
 outer loop
  vertex 4.5824184 -0.5576391 -3.760694
  vertex 4.9289656 -0.5576391 -3.2934294
  vertex 5.2280436 -0.5576391 -2.7944477
 endloop
endfacet
facet normal 0 -1 0
 outer loop
  vertex 5.2280436 -0.5576391 -2.7944477
  vertex 5.4767733 -0.5576391 -2.268554
  vertex 5.672758 -0.5576391 -1.7208122
 endloop
endfacet
facet normal 0 -1 0
 outer loop
  vertex 5.672758 -0.5576391 -1.7208122
  vertex 5.8141108 -0.5576391 -1.1564987
  vertex 5.899471 -0.5576391 -0.5810473
 endloop
endfacet
facet normal 0 -1 -0
 outer loop
  vertex 5.899471 -0.5576391 -0.5810473
  vertex 5.928016 -0.5576391 -3.671658e-08
  vertex 5.899471 -0.5576391 0.5810472
 endloop
endfacet
facet normal 0 -1 0
 outer loop
  vertex 5.899471 -0.5576391 0.5810472
  vertex 5.8141108 -0.5576391 1.1564986
  vertex 5.672758 -0.5576391 1.7208122
 endloop
endfacet
facet normal 0 -1 0
 outer loop
  vertex 5.672758 -0.5576391 1.7208122
  vertex 5.4767733 -0.5576391 2.268554
  vertex 5.2280436 -0.5576391 2.7944477
 endloop
endfacet
facet normal 0 -1 0
 outer loop
  vertex 5.2280436 -0.5576391 2.7944477
  vertex 4.9289656 -0.5576391 3.2934294
  vertex 4.5824184 -0.5576391 3.760694
 endloop
endfacet
facet normal 0 -1 0
 outer loop
  vertex 4.5824184 -0.5576391 3.760694
  vertex 4.1917405 -0.5576391 4.1917405
  vertex 3.760694 -0.5576391 4.5824184
 endloop
endfacet
facet normal 0 -1 0
 outer loop
  vertex 3.760694 -0.5576391 4.5824184
  vertex 3.2934294 -0.5576391 4.9289656
  vertex 2.7944477 -0.5576391 5.2280436
 endloop
endfacet
facet normal 0 -1 0
 outer loop
  vertex 2.7944477 -0.5576391 5.2280436
  vertex 2.268554 -0.5576391 5.4767733
  vertex 1.7208122 -0.5576391 5.672758
 endloop
endfacet
facet normal 0 -1 0
 outer loop
  vertex 1.7208122 -0.5576391 5.672758
  vertex 1.1564987 -0.5576391 5.8141108
  vertex 0.5810472 -0.5576391 5.899471
 endloop
endfacet
facet normal 0 -1 0
 outer loop
  vertex 0.5810472 -0.5576391 5.899471
  vertex -0.5810472 -0.5576391 5.899471
  vertex -1.7208122 -0.5576391 5.672758
 endloop
endfacet
facet normal 0 -1 0
 outer loop
  vertex -1.7208122 -0.5576391 5.672758
  vertex -2.7944477 -0.5576391 5.2280436
  vertex -3.760694 -0.5576391 4.5824184
 endloop
endfacet
facet normal 0 -1 0
 outer loop
  vertex -3.760694 -0.5576391 4.5824184
  vertex -4.5824184 -0.5576391 3.760694
  vertex -5.2280436 -0.5576391 2.7944477
 endloop
endfacet
facet normal 0 -1 0
 outer loop
  vertex -5.2280436 -0.5576391 2.7944477
  vertex -5.672758 -0.5576391 1.7208122
  vertex -5.899471 -0.5576391 0.5810472
 endloop
endfacet
facet normal 0 -1 0
 outer loop
  vertex -5.899471 -0.5576391 0.5810472
  vertex -5.899471 -0.5576391 -0.5810473
  vertex -5.672758 -0.5576391 -1.7208122
 endloop
endfacet
facet normal 0 -1 0
 outer loop
  vertex -5.672758 -0.5576391 -1.7208122
  vertex -5.2280436 -0.5576391 -2.7944477
  vertex -4.5824184 -0.5576391 -3.760694
 endloop
endfacet
facet normal 0 -1 0
 outer loop
  vertex -4.5824184 -0.5576391 -3.760694
  vertex -3.760694 -0.5576391 -4.5824184
  vertex -2.7944477 -0.5576391 -5.2280436
 endloop
endfacet
facet normal 0 -1 0
 outer loop
  vertex -2.7944477 -0.5576391 -5.2280436
  vertex -1.7208122 -0.5576391 -5.672758
  vertex -0.5810472 -0.5576391 -5.899471
 endloop
endfacet
facet normal -0 -1 0
 outer loop
  vertex -0.5810472 -0.5576391 -5.899471
  vertex 0.5810472 -0.5576391 -5.899471
  vertex 1.7208122 -0.5576391 -5.672758
 endloop
endfacet
facet normal 0 -1 0
 outer loop
  vertex 1.7208122 -0.5576391 -5.672758
  vertex 2.7944477 -0.5576391 -5.2280436
  vertex 3.760694 -0.5576391 -4.5824184
 endloop
endfacet
facet normal 0 -1 0
 outer loop
  vertex 3.760694 -0.5576391 -4.5824184
  vertex 4.5824184 -0.5576391 -3.760694
  vertex 5.2280436 -0.5576391 -2.7944477
 endloop
endfacet
facet normal 0 -1 0
 outer loop
  vertex 5.2280436 -0.5576391 -2.7944477
  vertex 5.672758 -0.5576391 -1.7208122
  vertex 5.899471 -0.5576391 -0.5810473
 endloop
endfacet
facet normal 0 -1 0
 outer loop
  vertex 5.899471 -0.5576391 -0.5810473
  vertex 5.899471 -0.5576391 0.5810472
  vertex 5.672758 -0.5576391 1.7208122
 endloop
endfacet
facet normal 0 -1 0
 outer loop
  vertex 5.672758 -0.5576391 1.7208122
  vertex 5.2280436 -0.5576391 2.7944477
  vertex 4.5824184 -0.5576391 3.760694
 endloop
endfacet
facet normal 0 -1 0
 outer loop
  vertex 4.5824184 -0.5576391 3.760694
  vertex 3.760694 -0.5576391 4.5824184
  vertex 2.7944477 -0.5576391 5.2280436
 endloop
endfacet
facet normal 0 -1 0
 outer loop
  vertex 2.7944477 -0.5576391 5.2280436
  vertex 1.7208122 -0.5576391 5.672758
  vertex 0.5810472 -0.5576391 5.899471
 endloop
endfacet
facet normal 0 -1 0
 outer loop
  vertex 0.5810472 -0.5576391 5.899471
  vertex -1.7208122 -0.5576391 5.672758
  vertex -3.760694 -0.5576391 4.5824184
 endloop
endfacet
facet normal 0 -1 0
 outer loop
  vertex -3.760694 -0.5576391 4.5824184
  vertex -5.2280436 -0.5576391 2.7944477
  vertex -5.899471 -0.5576391 0.5810472
 endloop
endfacet
facet normal 0 -1 0
 outer loop
  vertex -5.899471 -0.5576391 0.5810472
  vertex -5.672758 -0.5576391 -1.7208122
  vertex -4.5824184 -0.5576391 -3.760694
 endloop
endfacet
facet normal 0 -1 0
 outer loop
  vertex -4.5824184 -0.5576391 -3.760694
  vertex -2.7944477 -0.5576391 -5.2280436
  vertex -0.5810472 -0.5576391 -5.899471
 endloop
endfacet
facet normal 0 -1 0
 outer loop
  vertex -0.5810472 -0.5576391 -5.899471
  vertex 1.7208122 -0.5576391 -5.672758
  vertex 3.760694 -0.5576391 -4.5824184
 endloop
endfacet
facet normal 0 -1 0
 outer loop
  vertex 3.760694 -0.5576391 -4.5824184
  vertex 5.2280436 -0.5576391 -2.7944477
  vertex 5.899471 -0.5576391 -0.5810473
 endloop
endfacet
facet normal 0 -1 0
 outer loop
  vertex 5.899471 -0.5576391 -0.5810473
  vertex 5.672758 -0.5576391 1.7208122
  vertex 4.5824184 -0.5576391 3.760694
 endloop
endfacet
facet normal 0 -1 0
 outer loop
  vertex 4.5824184 -0.5576391 3.760694
  vertex 2.7944477 -0.5576391 5.2280436
  vertex 0.5810472 -0.5576391 5.899471
 endloop
endfacet
facet normal 0 -1 0
 outer loop
  vertex 0.5810472 -0.5576391 5.899471
  vertex -3.760694 -0.5576391 4.5824184
  vertex -5.899471 -0.5576391 0.5810472
 endloop
endfacet
facet normal 0 -1 0
 outer loop
  vertex -5.899471 -0.5576391 0.5810472
  vertex -4.5824184 -0.5576391 -3.760694
  vertex -0.5810472 -0.5576391 -5.899471
 endloop
endfacet
facet normal 0 -1 0
 outer loop
  vertex -0.5810472 -0.5576391 -5.899471
  vertex 3.760694 -0.5576391 -4.5824184
  vertex 5.899471 -0.5576391 -0.5810473
 endloop
endfacet
facet normal 0 -1 0
 outer loop
  vertex 5.899471 -0.5576391 -0.5810473
  vertex 4.5824184 -0.5576391 3.760694
  vertex 0.5810472 -0.5576391 5.899471
 endloop
endfacet
facet normal 0 -1 0
 outer loop
  vertex 0.5810472 -0.5576391 5.899471
  vertex -5.899471 -0.5576391 0.5810472
  vertex -0.5810472 -0.5576391 -5.899471
 endloop
endfacet
facet normal 0 -1 -0
 outer loop
  vertex -0.5810472 -0.5576391 -5.899471
  vertex 5.899471 -0.5576391 -0.5810473
  vertex 0.5810472 -0.5576391 5.899471
 endloop
endfacet
facet normal -0.030958403 0.775837 0.6301734
 outer loop
  vertex -0.5556636 0.34203482 5.641747
  vertex -6.0349747e-09 0.34203482 5.669045
  vertex -5.0136264e-09 0.57104397 5.3871007
 endloop
endfacet
facet normal -0.030958502 0.77583706 0.63017327
 outer loop
  vertex -0.5556636 0.34203482 5.641747
  vertex -5.0136264e-09 0.57104397 5.3871007
  vertex -0.5280281 0.57104397 5.3611603
 endloop
endfacet
facet normal -0.09257719 0.7758371 0.6241043
 outer loop
  vertex -1.105976 0.34203482 5.560116
  vertex -0.5556636 0.34203482 5.641747
  vertex -0.5280281 0.57104397 5.3611603
 endloop
endfacet
facet normal -0.09257696 0.7758369 0.6241047
 outer loop
  vertex -1.105976 0.34203482 5.560116
  vertex -0.5280281 0.57104397 5.3611603
  vertex -1.05097 0.57104397 5.2835894
 endloop
endfacet
facet normal -0.1533044 0.775837 0.612025
 outer loop
  vertex -1.6456368 0.34203482 5.4249377
  vertex -1.105976 0.34203482 5.560116
  vertex -1.05097 0.57104397 5.2835894
 endloop
endfacet
facet normal -0.1533041 0.7758366 0.6120256
 outer loop
  vertex -1.6456368 0.34203482 5.4249377
  vertex -1.05097 0.57104397 5.2835894
  vertex -1.5637947 0.57104397 5.1551337
 endloop
endfacet
facet normal -0.21255425 0.7758364 0.59405255
 outer loop
  vertex -2.1694498 0.34203482 5.2375154
  vertex -1.6456368 0.34203482 5.4249377
  vertex -1.5637947 0.57104397 5.1551337
 endloop
endfacet
facet normal -0.21255454 0.77583694 0.59405184
 outer loop
  vertex -2.1694498 0.34203482 5.2375154
  vertex -1.5637947 0.57104397 5.1551337
  vertex -2.061554 0.57104397 4.977033
 endloop
endfacet
facet normal -0.26976 0.775837 0.5703565
 outer loop
  vertex -2.6723692 0.34203482 4.999651
  vertex -2.1694498 0.34203482 5.2375154
  vertex -2.061554 0.57104397 4.977033
 endloop
endfacet
facet normal -0.26975983 0.7758365 0.5703572
 outer loop
  vertex -2.6723692 0.34203482 4.999651
  vertex -2.061554 0.57104397 4.977033
  vertex -2.5394623 0.57104397 4.7509985
 endloop
endfacet
facet normal -0.3243644 0.77583647 0.54117054
 outer loop
  vertex -3.1495528 0.34203482 4.713639
  vertex -2.6723692 0.34203482 4.999651
  vertex -2.5394623 0.57104397 4.7509985
 endloop
endfacet
facet normal -0.32436454 0.7758371 0.54116946
 outer loop
  vertex -3.1495528 0.34203482 4.713639
  vertex -2.5394623 0.57104397 4.7509985
  vertex -2.9929125 0.57104397 4.479211
 endloop
endfacet
facet normal -0.37584624 0.7758371 0.50677043
 outer loop
  vertex -3.5964046 0.34203482 4.382231
  vertex -3.1495528 0.34203482 4.713639
  vertex -2.9929125 0.57104397 4.479211
 endloop
endfacet
facet normal -0.3758462 0.77583677 0.506771
 outer loop
  vertex -3.5964046 0.34203482 4.382231
  vertex -2.9929125 0.57104397 4.479211
  vertex -3.4175422 0.57104397 4.1642847
 endloop
endfacet
facet normal -0.4237095 0.77583665 0.46749088
 outer loop
  vertex -4.0086203 0.34203482 4.0086203
  vertex -3.5964046 0.34203482 4.382231
  vertex -3.4175422 0.57104397 4.1642847
 endloop
endfacet
facet normal -0.42370954 0.77583665 0.467491
 outer loop
  vertex -4.0086203 0.34203482 4.0086203
  vertex -3.4175422 0.57104397 4.1642847
  vertex -3.8092558 0.57104397 3.8092558
 endloop
endfacet
facet normal -0.46749094 0.7758366 0.42370957
 outer loop
  vertex -4.382231 0.34203482 3.5964046
  vertex -4.0086203 0.34203482 4.0086203
  vertex -3.8092558 0.57104397 3.8092558
 endloop
endfacet
facet normal -0.4674909 0.7758367 0.42370948
 outer loop
  vertex -4.382231 0.34203482 3.5964046
  vertex -3.8092558 0.57104397 3.8092558
  vertex -4.1642847 0.57104397 3.4175422
 endloop
endfacet
facet normal -0.5067708 0.7758368 0.37584653
 outer loop
  vertex -4.713639 0.34203482 3.1495528
  vertex -4.382231 0.34203482 3.5964046
  vertex -4.1642847 0.57104397 3.4175422
 endloop
endfacet
facet normal -0.5067707 0.7758372 0.37584594
 outer loop
  vertex -4.713639 0.34203482 3.1495528
  vertex -4.1642847 0.57104397 3.4175422
  vertex -4.479211 0.57104397 2.9929125
 endloop
endfacet
facet normal -0.5411699 0.7758371 0.32436398
 outer loop
  vertex -4.999651 0.34203482 2.6723692
  vertex -4.713639 0.34203482 3.1495528
  vertex -4.479211 0.57104397 2.9929125
 endloop
endfacet
facet normal -0.5411701 0.7758365 0.32436478
 outer loop
  vertex -4.999651 0.34203482 2.6723692
  vertex -4.479211 0.57104397 2.9929125
  vertex -4.7509985 0.57104397 2.539462
 endloop
endfacet
facet normal -0.57035685 0.7758366 0.2697602
 outer loop
  vertex -5.2375154 0.34203482 2.1694498
  vertex -4.999651 0.34203482 2.6723692
  vertex -4.7509985 0.57104397 2.539462
 endloop
endfacet
facet normal -0.5703566 0.775837 0.2697597
 outer loop
  vertex -5.2375154 0.34203482 2.1694498
  vertex -4.7509985 0.57104397 2.539462
  vertex -4.977033 0.57104397 2.061554
 endloop
endfacet
facet normal -0.5940521 0.7758369 0.21255408
 outer loop
  vertex -5.4249377 0.34203482 1.6456368
  vertex -5.2375154 0.34203482 2.1694498
  vertex -4.977033 0.57104397 2.061554
 endloop
endfacet
facet normal -0.59405243 0.7758364 0.21255475
 outer loop
  vertex -5.4249377 0.34203482 1.6456368
  vertex -4.977033 0.57104397 2.061554
  vertex -5.1551337 0.57104397 1.5637947
 endloop
endfacet
facet normal -0.61202556 0.7758366 0.15330449
 outer loop
  vertex -5.560116 0.34203482 1.1059759
  vertex -5.4249377 0.34203482 1.6456368
  vertex -5.1551337 0.57104397 1.5637947
 endloop
endfacet
facet normal -0.61202514 0.77583706 0.15330394
 outer loop
  vertex -5.560116 0.34203482 1.1059759
  vertex -5.1551337 0.57104397 1.5637947
  vertex -5.2835894 0.57104397 1.0509698
 endloop
endfacet
facet normal -0.62410456 0.7758369 0.09257724
 outer loop
  vertex -5.641747 0.34203482 0.5556636
  vertex -5.560116 0.34203482 1.1059759
  vertex -5.2835894 0.57104397 1.0509698
 endloop
endfacet
facet normal -0.6241044 0.7758371 0.092576936
 outer loop
  vertex -5.641747 0.34203482 0.5556636
  vertex -5.2835894 0.57104397 1.0509698
  vertex -5.3611603 0.57104397 0.5280281
 endloop
endfacet
facet normal -0.63017327 0.7758371 0.030958394
 outer loop
  vertex -5.669045 0.34203482 -3.511258e-08
  vertex -5.641747 0.34203482 0.5556636
  vertex -5.3611603 0.57104397 0.5280281
 endloop
endfacet
facet normal -0.6301734 0.775837 0.030958503
 outer loop
  vertex -5.669045 0.34203482 -3.511258e-08
  vertex -5.3611603 0.57104397 0.5280281
  vertex -5.3871007 0.57104397 -3.5095386e-08
 endloop
endfacet
facet normal -0.6301733 0.775837 -0.030958395
 outer loop
  vertex -5.641747 0.34203482 -0.5556637
  vertex -5.669045 0.34203482 -3.511258e-08
  vertex -5.3871007 0.57104397 -3.5095386e-08
 endloop
endfacet
facet normal -0.6301733 0.7758372 -0.030958502
 outer loop
  vertex -5.641747 0.34203482 -0.5556637
  vertex -5.3871007 0.57104397 -3.5095386e-08
  vertex -5.3611603 0.57104397 -0.5280282
 endloop
endfacet
facet normal -0.62410426 0.7758371 -0.092577204
 outer loop
  vertex -5.560116 0.34203482 -1.105976
  vertex -5.641747 0.34203482 -0.5556637
  vertex -5.3611603 0.57104397 -0.5280282
 endloop
endfacet
facet normal -0.6241046 0.7758368 -0.09257697
 outer loop
  vertex -5.560116 0.34203482 -1.105976
  vertex -5.3611603 0.57104397 -0.5280282
  vertex -5.2835894 0.57104397 -1.05097
 endloop
endfacet
facet normal -0.612025 0.775837 -0.1533044
 outer loop
  vertex -5.4249377 0.34203482 -1.6456368
  vertex -5.560116 0.34203482 -1.105976
  vertex -5.2835894 0.57104397 -1.05097
 endloop
endfacet
facet normal -0.6120256 0.77583665 -0.15330411
 outer loop
  vertex -5.4249377 0.34203482 -1.6456368
  vertex -5.2835894 0.57104397 -1.05097
  vertex -5.1551337 0.57104397 -1.5637947
 endloop
endfacet
facet normal -0.59405255 0.7758364 -0.21255425
 outer loop
  vertex -5.2375154 0.34203482 -2.1694498
  vertex -5.4249377 0.34203482 -1.6456368
  vertex -5.1551337 0.57104397 -1.5637947
 endloop
endfacet
facet normal -0.59405184 0.77583694 -0.21255454
 outer loop
  vertex -5.2375154 0.34203482 -2.1694498
  vertex -5.1551337 0.57104397 -1.5637947
  vertex -4.977033 0.57104397 -2.061554
 endloop
endfacet
facet normal -0.5703565 0.775837 -0.26976
 outer loop
  vertex -4.999651 0.34203482 -2.6723692
  vertex -5.2375154 0.34203482 -2.1694498
  vertex -4.977033 0.57104397 -2.061554
 endloop
endfacet
facet normal -0.5703572 0.7758365 -0.26975983
 outer loop
  vertex -4.999651 0.34203482 -2.6723692
  vertex -4.977033 0.57104397 -2.061554
  vertex -4.7509985 0.57104397 -2.5394623
 endloop
endfacet
facet normal -0.54117054 0.77583647 -0.3243644
 outer loop
  vertex -4.713639 0.34203482 -3.1495528
  vertex -4.999651 0.34203482 -2.6723692
  vertex -4.7509985 0.57104397 -2.5394623
 endloop
endfacet
facet normal -0.54116946 0.7758371 -0.32436454
 outer loop
  vertex -4.713639 0.34203482 -3.1495528
  vertex -4.7509985 0.57104397 -2.5394623
  vertex -4.479211 0.57104397 -2.9929125
 endloop
endfacet
facet normal -0.50677043 0.7758371 -0.37584624
 outer loop
  vertex -4.382231 0.34203482 -3.5964046
  vertex -4.713639 0.34203482 -3.1495528
  vertex -4.479211 0.57104397 -2.9929125
 endloop
endfacet
facet normal -0.506771 0.77583677 -0.3758462
 outer loop
  vertex -4.382231 0.34203482 -3.5964046
  vertex -4.479211 0.57104397 -2.9929125
  vertex -4.1642847 0.57104397 -3.4175422
 endloop
endfacet
facet normal -0.46749088 0.77583665 -0.4237095
 outer loop
  vertex -4.0086203 0.34203482 -4.0086203
  vertex -4.382231 0.34203482 -3.5964046
  vertex -4.1642847 0.57104397 -3.4175422
 endloop
endfacet
facet normal -0.467491 0.77583665 -0.42370954
 outer loop
  vertex -4.0086203 0.34203482 -4.0086203
  vertex -4.1642847 0.57104397 -3.4175422
  vertex -3.8092558 0.57104397 -3.8092558
 endloop
endfacet
facet normal -0.42370957 0.7758366 -0.46749094
 outer loop
  vertex -3.5964046 0.34203482 -4.382231
  vertex -4.0086203 0.34203482 -4.0086203
  vertex -3.8092558 0.57104397 -3.8092558
 endloop
endfacet
facet normal -0.42370948 0.7758367 -0.4674909
 outer loop
  vertex -3.5964046 0.34203482 -4.382231
  vertex -3.8092558 0.57104397 -3.8092558
  vertex -3.4175422 0.57104397 -4.1642847
 endloop
endfacet
facet normal -0.37584653 0.7758368 -0.5067708
 outer loop
  vertex -3.1495528 0.34203482 -4.713639
  vertex -3.5964046 0.34203482 -4.382231
  vertex -3.4175422 0.57104397 -4.1642847
 endloop
endfacet
facet normal -0.37584594 0.7758372 -0.5067707
 outer loop
  vertex -3.1495528 0.34203482 -4.713639
  vertex -3.4175422 0.57104397 -4.1642847
  vertex -2.9929125 0.57104397 -4.479211
 endloop
endfacet
facet normal -0.32436398 0.7758371 -0.5411699
 outer loop
  vertex -2.6723692 0.34203482 -4.999651
  vertex -3.1495528 0.34203482 -4.713639
  vertex -2.9929125 0.57104397 -4.479211
 endloop
endfacet
facet normal -0.32436478 0.7758365 -0.5411701
 outer loop
  vertex -2.6723692 0.34203482 -4.999651
  vertex -2.9929125 0.57104397 -4.479211
  vertex -2.539462 0.57104397 -4.7509985
 endloop
endfacet
facet normal -0.2697602 0.7758366 -0.57035685
 outer loop
  vertex -2.1694498 0.34203482 -5.2375154
  vertex -2.6723692 0.34203482 -4.999651
  vertex -2.539462 0.57104397 -4.7509985
 endloop
endfacet
facet normal -0.2697597 0.775837 -0.5703566
 outer loop
  vertex -2.1694498 0.34203482 -5.2375154
  vertex -2.539462 0.57104397 -4.7509985
  vertex -2.061554 0.57104397 -4.977033
 endloop
endfacet
facet normal -0.21255408 0.7758369 -0.5940521
 outer loop
  vertex -1.6456368 0.34203482 -5.4249377
  vertex -2.1694498 0.34203482 -5.2375154
  vertex -2.061554 0.57104397 -4.977033
 endloop
endfacet
facet normal -0.21255475 0.7758364 -0.59405243
 outer loop
  vertex -1.6456368 0.34203482 -5.4249377
  vertex -2.061554 0.57104397 -4.977033
  vertex -1.5637947 0.57104397 -5.1551337
 endloop
endfacet
facet normal -0.15330452 0.7758366 -0.61202556
 outer loop
  vertex -1.105976 0.34203482 -5.560116
  vertex -1.6456368 0.34203482 -5.4249377
  vertex -1.5637947 0.57104397 -5.1551337
 endloop
endfacet
facet normal -0.153304 0.77583706 -0.61202514
 outer loop
  vertex -1.105976 0.34203482 -5.560116
  vertex -1.5637947 0.57104397 -5.1551337
  vertex -1.05097 0.57104397 -5.2835894
 endloop
endfacet
facet normal -0.092577234 0.7758369 -0.6241046
 outer loop
  vertex -0.5556636 0.34203482 -5.641747
  vertex -1.105976 0.34203482 -5.560116
  vertex -1.05097 0.57104397 -5.2835894
 endloop
endfacet
facet normal -0.09257691 0.7758371 -0.6241044
 outer loop
  vertex -0.5556636 0.34203482 -5.641747
  vertex -1.05097 0.57104397 -5.2835894
  vertex -0.5280281 0.57104397 -5.3611603
 endloop
endfacet
facet normal -0.030958397 0.7758371 -0.6301733
 outer loop
  vertex -6.0349747e-09 0.34203482 -5.669045
  vertex -0.5556636 0.34203482 -5.641747
  vertex -0.5280281 0.57104397 -5.3611603
 endloop
endfacet
facet normal -0.03095851 0.77583706 -0.6301734
 outer loop
  vertex -6.0349747e-09 0.34203482 -5.669045
  vertex -0.5280281 0.57104397 -5.3611603
  vertex -6.6848354e-09 0.57104397 -5.3871007
 endloop
endfacet
facet normal 0.030958403 0.775837 -0.6301734
 outer loop
  vertex 0.5556636 0.34203482 -5.641747
  vertex -6.0349747e-09 0.34203482 -5.669045
  vertex -6.6848354e-09 0.57104397 -5.3871007
 endloop
endfacet
facet normal 0.030958502 0.77583706 -0.63017327
 outer loop
  vertex 0.5556636 0.34203482 -5.641747
  vertex -6.6848354e-09 0.57104397 -5.3871007
  vertex 0.5280281 0.57104397 -5.3611603
 endloop
endfacet
facet normal 0.09257719 0.7758371 -0.6241043
 outer loop
  vertex 1.105976 0.34203482 -5.560116
  vertex 0.5556636 0.34203482 -5.641747
  vertex 0.5280281 0.57104397 -5.3611603
 endloop
endfacet
facet normal 0.09257696 0.7758369 -0.6241047
 outer loop
  vertex 1.105976 0.34203482 -5.560116
  vertex 0.5280281 0.57104397 -5.3611603
  vertex 1.05097 0.57104397 -5.2835894
 endloop
endfacet
facet normal 0.1533044 0.775837 -0.612025
 outer loop
  vertex 1.6456368 0.34203482 -5.4249377
  vertex 1.105976 0.34203482 -5.560116
  vertex 1.05097 0.57104397 -5.2835894
 endloop
endfacet
facet normal 0.1533041 0.7758366 -0.6120256
 outer loop
  vertex 1.6456368 0.34203482 -5.4249377
  vertex 1.05097 0.57104397 -5.2835894
  vertex 1.5637947 0.57104397 -5.1551337
 endloop
endfacet
facet normal 0.21255425 0.7758364 -0.59405255
 outer loop
  vertex 2.1694498 0.34203482 -5.2375154
  vertex 1.6456368 0.34203482 -5.4249377
  vertex 1.5637947 0.57104397 -5.1551337
 endloop
endfacet
facet normal 0.21255454 0.77583694 -0.59405184
 outer loop
  vertex 2.1694498 0.34203482 -5.2375154
  vertex 1.5637947 0.57104397 -5.1551337
  vertex 2.061554 0.57104397 -4.977033
 endloop
endfacet
facet normal 0.26976 0.775837 -0.5703565
 outer loop
  vertex 2.6723692 0.34203482 -4.999651
  vertex 2.1694498 0.34203482 -5.2375154
  vertex 2.061554 0.57104397 -4.977033
 endloop
endfacet
facet normal 0.26975983 0.7758365 -0.5703572
 outer loop
  vertex 2.6723692 0.34203482 -4.999651
  vertex 2.061554 0.57104397 -4.977033
  vertex 2.5394623 0.57104397 -4.7509985
 endloop
endfacet
facet normal 0.3243644 0.77583647 -0.54117054
 outer loop
  vertex 3.1495528 0.34203482 -4.713639
  vertex 2.6723692 0.34203482 -4.999651
  vertex 2.5394623 0.57104397 -4.7509985
 endloop
endfacet
facet normal 0.32436454 0.7758371 -0.54116946
 outer loop
  vertex 3.1495528 0.34203482 -4.713639
  vertex 2.5394623 0.57104397 -4.7509985
  vertex 2.9929125 0.57104397 -4.479211
 endloop
endfacet
facet normal 0.37584624 0.7758371 -0.50677043
 outer loop
  vertex 3.5964046 0.34203482 -4.382231
  vertex 3.1495528 0.34203482 -4.713639
  vertex 2.9929125 0.57104397 -4.479211
 endloop
endfacet
facet normal 0.3758462 0.77583677 -0.506771
 outer loop
  vertex 3.5964046 0.34203482 -4.382231
  vertex 2.9929125 0.57104397 -4.479211
  vertex 3.4175422 0.57104397 -4.1642847
 endloop
endfacet
facet normal 0.4237095 0.77583665 -0.46749088
 outer loop
  vertex 4.0086203 0.34203482 -4.0086203
  vertex 3.5964046 0.34203482 -4.382231
  vertex 3.4175422 0.57104397 -4.1642847
 endloop
endfacet
facet normal 0.42370954 0.77583665 -0.467491
 outer loop
  vertex 4.0086203 0.34203482 -4.0086203
  vertex 3.4175422 0.57104397 -4.1642847
  vertex 3.8092558 0.57104397 -3.8092558
 endloop
endfacet
facet normal 0.46749094 0.7758366 -0.42370957
 outer loop
  vertex 4.382231 0.34203482 -3.5964046
  vertex 4.0086203 0.34203482 -4.0086203
  vertex 3.8092558 0.57104397 -3.8092558
 endloop
endfacet
facet normal 0.4674909 0.7758367 -0.42370948
 outer loop
  vertex 4.382231 0.34203482 -3.5964046
  vertex 3.8092558 0.57104397 -3.8092558
  vertex 4.1642847 0.57104397 -3.4175422
 endloop
endfacet
facet normal 0.5067708 0.7758368 -0.37584653
 outer loop
  vertex 4.713639 0.34203482 -3.1495528
  vertex 4.382231 0.34203482 -3.5964046
  vertex 4.1642847 0.57104397 -3.4175422
 endloop
endfacet
facet normal 0.5067707 0.7758372 -0.37584594
 outer loop
  vertex 4.713639 0.34203482 -3.1495528
  vertex 4.1642847 0.57104397 -3.4175422
  vertex 4.479211 0.57104397 -2.9929125
 endloop
endfacet
facet normal 0.5411699 0.7758371 -0.32436398
 outer loop
  vertex 4.999651 0.34203482 -2.6723692
  vertex 4.713639 0.34203482 -3.1495528
  vertex 4.479211 0.57104397 -2.9929125
 endloop
endfacet
facet normal 0.5411701 0.7758365 -0.32436478
 outer loop
  vertex 4.999651 0.34203482 -2.6723692
  vertex 4.479211 0.57104397 -2.9929125
  vertex 4.7509985 0.57104397 -2.539462
 endloop
endfacet
facet normal 0.57035685 0.7758366 -0.2697602
 outer loop
  vertex 5.2375154 0.34203482 -2.1694498
  vertex 4.999651 0.34203482 -2.6723692
  vertex 4.7509985 0.57104397 -2.539462
 endloop
endfacet
facet normal 0.5703566 0.775837 -0.2697597
 outer loop
  vertex 5.2375154 0.34203482 -2.1694498
  vertex 4.7509985 0.57104397 -2.539462
  vertex 4.977033 0.57104397 -2.061554
 endloop
endfacet
facet normal 0.5940521 0.7758369 -0.21255408
 outer loop
  vertex 5.4249377 0.34203482 -1.6456368
  vertex 5.2375154 0.34203482 -2.1694498
  vertex 4.977033 0.57104397 -2.061554
 endloop
endfacet
facet normal 0.59405243 0.7758364 -0.21255475
 outer loop
  vertex 5.4249377 0.34203482 -1.6456368
  vertex 4.977033 0.57104397 -2.061554
  vertex 5.1551337 0.57104397 -1.5637947
 endloop
endfacet
facet normal 0.61202556 0.7758366 -0.15330452
 outer loop
  vertex 5.560116 0.34203482 -1.105976
  vertex 5.4249377 0.34203482 -1.6456368
  vertex 5.1551337 0.57104397 -1.5637947
 endloop
endfacet
facet normal 0.61202514 0.77583706 -0.153304
 outer loop
  vertex 5.560116 0.34203482 -1.105976
  vertex 5.1551337 0.57104397 -1.5637947
  vertex 5.2835894 0.57104397 -1.05097
 endloop
endfacet
facet normal 0.62410456 0.7758369 -0.09257724
 outer loop
  vertex 5.641747 0.34203482 -0.5556637
  vertex 5.560116 0.34203482 -1.105976
  vertex 5.2835894 0.57104397 -1.05097
 endloop
endfacet
facet normal 0.6241044 0.7758371 -0.092576936
 outer loop
  vertex 5.641747 0.34203482 -0.5556637
  vertex 5.2835894 0.57104397 -1.05097
  vertex 5.3611603 0.57104397 -0.5280282
 endloop
endfacet
facet normal 0.63017327 0.7758371 -0.030958394
 outer loop
  vertex 5.669045 0.34203482 -3.511258e-08
  vertex 5.641747 0.34203482 -0.5556637
  vertex 5.3611603 0.57104397 -0.5280282
 endloop
endfacet
facet normal 0.6301734 0.775837 -0.030958503
 outer loop
  vertex 5.669045 0.34203482 -3.511258e-08
  vertex 5.3611603 0.57104397 -0.5280282
  vertex 5.3871007 0.57104397 -3.5095386e-08
 endloop
endfacet
facet normal 0.6301733 0.775837 0.030958395
 outer loop
  vertex 5.641747 0.34203482 0.5556636
  vertex 5.669045 0.34203482 -3.511258e-08
  vertex 5.3871007 0.57104397 -3.5095386e-08
 endloop
endfacet
facet normal 0.6301733 0.7758372 0.030958502
 outer loop
  vertex 5.641747 0.34203482 0.5556636
  vertex 5.3871007 0.57104397 -3.5095386e-08
  vertex 5.3611603 0.57104397 0.5280281
 endloop
endfacet
facet normal 0.62410426 0.7758371 0.092577204
 outer loop
  vertex 5.560116 0.34203482 1.1059759
  vertex 5.641747 0.34203482 0.5556636
  vertex 5.3611603 0.57104397 0.5280281
 endloop
endfacet
facet normal 0.6241046 0.7758368 0.09257697
 outer loop
  vertex 5.560116 0.34203482 1.1059759
  vertex 5.3611603 0.57104397 0.5280281
  vertex 5.2835894 0.57104397 1.0509698
 endloop
endfacet
facet normal 0.612025 0.775837 0.15330435
 outer loop
  vertex 5.4249377 0.34203482 1.6456368
  vertex 5.560116 0.34203482 1.1059759
  vertex 5.2835894 0.57104397 1.0509698
 endloop
endfacet
facet normal 0.6120257 0.7758367 0.15330409
 outer loop
  vertex 5.4249377 0.34203482 1.6456368
  vertex 5.2835894 0.57104397 1.0509698
  vertex 5.1551337 0.57104397 1.5637947
 endloop
endfacet
facet normal 0.59405255 0.7758364 0.21255425
 outer loop
  vertex 5.2375154 0.34203482 2.1694498
  vertex 5.4249377 0.34203482 1.6456368
  vertex 5.1551337 0.57104397 1.5637947
 endloop
endfacet
facet normal 0.59405184 0.77583694 0.21255454
 outer loop
  vertex 5.2375154 0.34203482 2.1694498
  vertex 5.1551337 0.57104397 1.5637947
  vertex 4.977033 0.57104397 2.061554
 endloop
endfacet
facet normal 0.5703565 0.775837 0.26976
 outer loop
  vertex 4.999651 0.34203482 2.6723692
  vertex 5.2375154 0.34203482 2.1694498
  vertex 4.977033 0.57104397 2.061554
 endloop
endfacet
facet normal 0.5703572 0.7758365 0.26975983
 outer loop
  vertex 4.999651 0.34203482 2.6723692
  vertex 4.977033 0.57104397 2.061554
  vertex 4.7509985 0.57104397 2.5394623
 endloop
endfacet
facet normal 0.54117054 0.77583647 0.3243644
 outer loop
  vertex 4.713639 0.34203482 3.1495528
  vertex 4.999651 0.34203482 2.6723692
  vertex 4.7509985 0.57104397 2.5394623
 endloop
endfacet
facet normal 0.54116946 0.7758371 0.32436454
 outer loop
  vertex 4.713639 0.34203482 3.1495528
  vertex 4.7509985 0.57104397 2.5394623
  vertex 4.479211 0.57104397 2.9929125
 endloop
endfacet
facet normal 0.50677043 0.7758371 0.37584624
 outer loop
  vertex 4.382231 0.34203482 3.5964046
  vertex 4.713639 0.34203482 3.1495528
  vertex 4.479211 0.57104397 2.9929125
 endloop
endfacet
facet normal 0.506771 0.77583677 0.3758462
 outer loop
  vertex 4.382231 0.34203482 3.5964046
  vertex 4.479211 0.57104397 2.9929125
  vertex 4.1642847 0.57104397 3.4175422
 endloop
endfacet
facet normal 0.46749088 0.77583665 0.4237095
 outer loop
  vertex 4.0086203 0.34203482 4.0086203
  vertex 4.382231 0.34203482 3.5964046
  vertex 4.1642847 0.57104397 3.4175422
 endloop
endfacet
facet normal 0.467491 0.77583665 0.42370954
 outer loop
  vertex 4.0086203 0.34203482 4.0086203
  vertex 4.1642847 0.57104397 3.4175422
  vertex 3.8092558 0.57104397 3.8092558
 endloop
endfacet
facet normal 0.42370957 0.7758366 0.46749094
 outer loop
  vertex 3.5964046 0.34203482 4.382231
  vertex 4.0086203 0.34203482 4.0086203
  vertex 3.8092558 0.57104397 3.8092558
 endloop
endfacet
facet normal 0.42370948 0.7758367 0.4674909
 outer loop
  vertex 3.5964046 0.34203482 4.382231
  vertex 3.8092558 0.57104397 3.8092558
  vertex 3.4175422 0.57104397 4.1642847
 endloop
endfacet
facet normal 0.37584653 0.7758368 0.5067708
 outer loop
  vertex 3.1495528 0.34203482 4.713639
  vertex 3.5964046 0.34203482 4.382231
  vertex 3.4175422 0.57104397 4.1642847
 endloop
endfacet
facet normal 0.37584594 0.7758372 0.5067707
 outer loop
  vertex 3.1495528 0.34203482 4.713639
  vertex 3.4175422 0.57104397 4.1642847
  vertex 2.9929125 0.57104397 4.479211
 endloop
endfacet
facet normal 0.32436398 0.7758371 0.5411699
 outer loop
  vertex 2.6723692 0.34203482 4.999651
  vertex 3.1495528 0.34203482 4.713639
  vertex 2.9929125 0.57104397 4.479211
 endloop
endfacet
facet normal 0.32436478 0.7758365 0.5411701
 outer loop
  vertex 2.6723692 0.34203482 4.999651
  vertex 2.9929125 0.57104397 4.479211
  vertex 2.539462 0.57104397 4.7509985
 endloop
endfacet
facet normal 0.2697602 0.7758366 0.57035685
 outer loop
  vertex 2.1694498 0.34203482 5.2375154
  vertex 2.6723692 0.34203482 4.999651
  vertex 2.539462 0.57104397 4.7509985
 endloop
endfacet
facet normal 0.2697597 0.775837 0.5703566
 outer loop
  vertex 2.1694498 0.34203482 5.2375154
  vertex 2.539462 0.57104397 4.7509985
  vertex 2.061554 0.57104397 4.977033
 endloop
endfacet
facet normal 0.21255408 0.7758369 0.5940521
 outer loop
  vertex 1.6456368 0.34203482 5.4249377
  vertex 2.1694498 0.34203482 5.2375154
  vertex 2.061554 0.57104397 4.977033
 endloop
endfacet
facet normal 0.21255475 0.7758364 0.59405243
 outer loop
  vertex 1.6456368 0.34203482 5.4249377
  vertex 2.061554 0.57104397 4.977033
  vertex 1.5637947 0.57104397 5.1551337
 endloop
endfacet
facet normal 0.15330452 0.7758366 0.61202556
 outer loop
  vertex 1.105976 0.34203482 5.560116
  vertex 1.6456368 0.34203482 5.4249377
  vertex 1.5637947 0.57104397 5.1551337
 endloop
endfacet
facet normal 0.153304 0.77583706 0.61202514
 outer loop
  vertex 1.105976 0.34203482 5.560116
  vertex 1.5637947 0.57104397 5.1551337
  vertex 1.05097 0.57104397 5.2835894
 endloop
endfacet
facet normal 0.092577234 0.7758369 0.6241046
 outer loop
  vertex 0.5556636 0.34203482 5.641747
  vertex 1.105976 0.34203482 5.560116
  vertex 1.05097 0.57104397 5.2835894
 endloop
endfacet
facet normal 0.09257691 0.7758371 0.6241044
 outer loop
  vertex 0.5556636 0.34203482 5.641747
  vertex 1.05097 0.57104397 5.2835894
  vertex 0.5280281 0.57104397 5.3611603
 endloop
endfacet
facet normal 0.030958397 0.7758371 0.6301733
 outer loop
  vertex -6.0349747e-09 0.34203482 5.669045
  vertex 0.5556636 0.34203482 5.641747
  vertex 0.5280281 0.57104397 5.3611603
 endloop
endfacet
facet normal 0.03095851 0.77583706 0.6301734
 outer loop
  vertex -6.0349747e-09 0.34203482 5.669045
  vertex 0.5280281 0.57104397 5.3611603
  vertex -5.0136264e-09 0.57104397 5.3871007
 endloop
endfacet
facet normal 0 1 0
 outer loop
  vertex -1.05097 0.57104397 5.2835894
  vertex -0.5280281 0.57104397 5.3611603
  vertex -5.0136264e-09 0.57104397 5.3871007
 endloop
endfacet
facet normal 0 1 0
 outer loop
  vertex -5.0136264e-09 0.57104397 5.3871007
  vertex 0.5280281 0.57104397 5.3611603
  vertex 1.05097 0.57104397 5.2835894
 endloop
endfacet
facet normal 0 1 0
 outer loop
  vertex 1.05097 0.57104397 5.2835894
  vertex 1.5637947 0.57104397 5.1551337
  vertex 2.061554 0.57104397 4.977033
 endloop
endfacet
facet normal 0 1 0
 outer loop
  vertex 2.061554 0.57104397 4.977033
  vertex 2.539462 0.57104397 4.7509985
  vertex 2.9929125 0.57104397 4.479211
 endloop
endfacet
facet normal 0 1 0
 outer loop
  vertex 2.9929125 0.57104397 4.479211
  vertex 3.4175422 0.57104397 4.1642847
  vertex 3.8092558 0.57104397 3.8092558
 endloop
endfacet
facet normal 0 1 0
 outer loop
  vertex 3.8092558 0.57104397 3.8092558
  vertex 4.1642847 0.57104397 3.4175422
  vertex 4.479211 0.57104397 2.9929125
 endloop
endfacet
facet normal 0 1 0
 outer loop
  vertex 4.479211 0.57104397 2.9929125
  vertex 4.7509985 0.57104397 2.5394623
  vertex 4.977033 0.57104397 2.061554
 endloop
endfacet
facet normal 0 1 0
 outer loop
  vertex 4.977033 0.57104397 2.061554
  vertex 5.1551337 0.57104397 1.5637947
  vertex 5.2835894 0.57104397 1.0509698
 endloop
endfacet
facet normal 0 1 0
 outer loop
  vertex 5.2835894 0.57104397 1.0509698
  vertex 5.3611603 0.57104397 0.5280281
  vertex 5.3871007 0.57104397 -3.5095386e-08
 endloop
endfacet
facet normal 0 1 0
 outer loop
  vertex 5.3871007 0.57104397 -3.5095386e-08
  vertex 5.3611603 0.57104397 -0.5280282
  vertex 5.2835894 0.57104397 -1.05097
 endloop
endfacet
facet normal 0 1 0
 outer loop
  vertex 5.2835894 0.57104397 -1.05097
  vertex 5.1551337 0.57104397 -1.5637947
  vertex 4.977033 0.57104397 -2.061554
 endloop
endfacet
facet normal 0 1 0
 outer loop
  vertex 4.977033 0.57104397 -2.061554
  vertex 4.7509985 0.57104397 -2.539462
  vertex 4.479211 0.57104397 -2.9929125
 endloop
endfacet
facet normal 0 1 0
 outer loop
  vertex 4.479211 0.57104397 -2.9929125
  vertex 4.1642847 0.57104397 -3.4175422
  vertex 3.8092558 0.57104397 -3.8092558
 endloop
endfacet
facet normal 0 1 0
 outer loop
  vertex 3.8092558 0.57104397 -3.8092558
  vertex 3.4175422 0.57104397 -4.1642847
  vertex 2.9929125 0.57104397 -4.479211
 endloop
endfacet
facet normal 0 1 0
 outer loop
  vertex 2.9929125 0.57104397 -4.479211
  vertex 2.5394623 0.57104397 -4.7509985
  vertex 2.061554 0.57104397 -4.977033
 endloop
endfacet
facet normal 0 1 0
 outer loop
  vertex 2.061554 0.57104397 -4.977033
  vertex 1.5637947 0.57104397 -5.1551337
  vertex 1.05097 0.57104397 -5.2835894
 endloop
endfacet
facet normal 0 1 0
 outer loop
  vertex 1.05097 0.57104397 -5.2835894
  vertex 0.5280281 0.57104397 -5.3611603
  vertex -6.6848354e-09 0.57104397 -5.3871007
 endloop
endfacet
facet normal 0 1 0
 outer loop
  vertex -6.6848354e-09 0.57104397 -5.3871007
  vertex -0.5280281 0.57104397 -5.3611603
  vertex -1.05097 0.57104397 -5.2835894
 endloop
endfacet
facet normal 0 1 0
 outer loop
  vertex -1.05097 0.57104397 -5.2835894
  vertex -1.5637947 0.57104397 -5.1551337
  vertex -2.061554 0.57104397 -4.977033
 endloop
endfacet
facet normal 0 1 0
 outer loop
  vertex -2.061554 0.57104397 -4.977033
  vertex -2.539462 0.57104397 -4.7509985
  vertex -2.9929125 0.57104397 -4.479211
 endloop
endfacet
facet normal 0 1 0
 outer loop
  vertex -2.9929125 0.57104397 -4.479211
  vertex -3.4175422 0.57104397 -4.1642847
  vertex -3.8092558 0.57104397 -3.8092558
 endloop
endfacet
facet normal 0 1 0
 outer loop
  vertex -3.8092558 0.57104397 -3.8092558
  vertex -4.1642847 0.57104397 -3.4175422
  vertex -4.479211 0.57104397 -2.9929125
 endloop
endfacet
facet normal 0 1 0
 outer loop
  vertex -4.479211 0.57104397 -2.9929125
  vertex -4.7509985 0.57104397 -2.5394623
  vertex -4.977033 0.57104397 -2.061554
 endloop
endfacet
facet normal 0 1 0
 outer loop
  vertex -4.977033 0.57104397 -2.061554
  vertex -5.1551337 0.57104397 -1.5637947
  vertex -5.2835894 0.57104397 -1.05097
 endloop
endfacet
facet normal 0 1 0
 outer loop
  vertex -5.2835894 0.57104397 -1.05097
  vertex -5.3611603 0.57104397 -0.5280282
  vertex -5.3871007 0.57104397 -3.5095386e-08
 endloop
endfacet
facet normal 0 1 0
 outer loop
  vertex -5.3871007 0.57104397 -3.5095386e-08
  vertex -5.3611603 0.57104397 0.5280281
  vertex -5.2835894 0.57104397 1.0509698
 endloop
endfacet
facet normal 0 1 0
 outer loop
  vertex -5.2835894 0.57104397 1.0509698
  vertex -5.1551337 0.57104397 1.5637947
  vertex -4.977033 0.57104397 2.061554
 endloop
endfacet
facet normal 0 1 0
 outer loop
  vertex -4.977033 0.57104397 2.061554
  vertex -4.7509985 0.57104397 2.539462
  vertex -4.479211 0.57104397 2.9929125
 endloop
endfacet
facet normal 0 1 0
 outer loop
  vertex -4.479211 0.57104397 2.9929125
  vertex -4.1642847 0.57104397 3.4175422
  vertex -3.8092558 0.57104397 3.8092558
 endloop
endfacet
facet normal 0 1 0
 outer loop
  vertex -3.8092558 0.57104397 3.8092558
  vertex -3.4175422 0.57104397 4.1642847
  vertex -2.9929125 0.57104397 4.479211
 endloop
endfacet
facet normal 0 1 0
 outer loop
  vertex -2.9929125 0.57104397 4.479211
  vertex -2.5394623 0.57104397 4.7509985
  vertex -2.061554 0.57104397 4.977033
 endloop
endfacet
facet normal 0 1 0
 outer loop
  vertex -2.061554 0.57104397 4.977033
  vertex -1.5637947 0.57104397 5.1551337
  vertex -1.05097 0.57104397 5.2835894
 endloop
endfacet
facet normal 0 1 0
 outer loop
  vertex -1.05097 0.57104397 5.2835894
  vertex -5.0136264e-09 0.57104397 5.3871007
  vertex 1.05097 0.57104397 5.2835894
 endloop
endfacet
facet normal 0 1 0
 outer loop
  vertex 1.05097 0.57104397 5.2835894
  vertex 2.061554 0.57104397 4.977033
  vertex 2.9929125 0.57104397 4.479211
 endloop
endfacet
facet normal 0 1 0
 outer loop
  vertex 2.9929125 0.57104397 4.479211
  vertex 3.8092558 0.57104397 3.8092558
  vertex 4.479211 0.57104397 2.9929125
 endloop
endfacet
facet normal 0 1 0
 outer loop
  vertex 4.479211 0.57104397 2.9929125
  vertex 4.977033 0.57104397 2.061554
  vertex 5.2835894 0.57104397 1.0509698
 endloop
endfacet
facet normal 0 1 -0
 outer loop
  vertex 5.2835894 0.57104397 1.0509698
  vertex 5.3871007 0.57104397 -3.5095386e-08
  vertex 5.2835894 0.57104397 -1.05097
 endloop
endfacet
facet normal 0 1 0
 outer loop
  vertex 5.2835894 0.57104397 -1.05097
  vertex 4.977033 0.57104397 -2.061554
  vertex 4.479211 0.57104397 -2.9929125
 endloop
endfacet
facet normal 0 1 0
 outer loop
  vertex 4.479211 0.57104397 -2.9929125
  vertex 3.8092558 0.57104397 -3.8092558
  vertex 2.9929125 0.57104397 -4.479211
 endloop
endfacet
facet normal 0 1 0
 outer loop
  vertex 2.9929125 0.57104397 -4.479211
  vertex 2.061554 0.57104397 -4.977033
  vertex 1.05097 0.57104397 -5.2835894
 endloop
endfacet
facet normal -0 1 0
 outer loop
  vertex 1.05097 0.57104397 -5.2835894
  vertex -6.6848354e-09 0.57104397 -5.3871007
  vertex -1.05097 0.57104397 -5.2835894
 endloop
endfacet
facet normal 0 1 0
 outer loop
  vertex -1.05097 0.57104397 -5.2835894
  vertex -2.061554 0.57104397 -4.977033
  vertex -2.9929125 0.57104397 -4.479211
 endloop
endfacet
facet normal 0 1 0
 outer loop
  vertex -2.9929125 0.57104397 -4.479211
  vertex -3.8092558 0.57104397 -3.8092558
  vertex -4.479211 0.57104397 -2.9929125
 endloop
endfacet
facet normal 0 1 0
 outer loop
  vertex -4.479211 0.57104397 -2.9929125
  vertex -4.977033 0.57104397 -2.061554
  vertex -5.2835894 0.57104397 -1.05097
 endloop
endfacet
facet normal 0 1 0
 outer loop
  vertex -5.2835894 0.57104397 -1.05097
  vertex -5.3871007 0.57104397 -3.5095386e-08
  vertex -5.2835894 0.57104397 1.0509698
 endloop
endfacet
facet normal 0 1 0
 outer loop
  vertex -5.2835894 0.57104397 1.0509698
  vertex -4.977033 0.57104397 2.061554
  vertex -4.479211 0.57104397 2.9929125
 endloop
endfacet
facet normal 0 1 0
 outer loop
  vertex -4.479211 0.57104397 2.9929125
  vertex -3.8092558 0.57104397 3.8092558
  vertex -2.9929125 0.57104397 4.479211
 endloop
endfacet
facet normal 0 1 0
 outer loop
  vertex -2.9929125 0.57104397 4.479211
  vertex -2.061554 0.57104397 4.977033
  vertex -1.05097 0.57104397 5.2835894
 endloop
endfacet
facet normal 0 1 0
 outer loop
  vertex -1.05097 0.57104397 5.2835894
  vertex 1.05097 0.57104397 5.2835894
  vertex 2.9929125 0.57104397 4.479211
 endloop
endfacet
facet normal 0 1 0
 outer loop
  vertex 2.9929125 0.57104397 4.479211
  vertex 4.479211 0.57104397 2.9929125
  vertex 5.2835894 0.57104397 1.0509698
 endloop
endfacet
facet normal 0 1 0
 outer loop
  vertex 5.2835894 0.57104397 1.0509698
  vertex 5.2835894 0.57104397 -1.05097
  vertex 4.479211 0.57104397 -2.9929125
 endloop
endfacet
facet normal 0 1 0
 outer loop
  vertex 4.479211 0.57104397 -2.9929125
  vertex 2.9929125 0.57104397 -4.479211
  vertex 1.05097 0.57104397 -5.2835894
 endloop
endfacet
facet normal -0 1 0
 outer loop
  vertex 1.05097 0.57104397 -5.2835894
  vertex -1.05097 0.57104397 -5.2835894
  vertex -2.9929125 0.57104397 -4.479211
 endloop
endfacet
facet normal 0 1 0
 outer loop
  vertex -2.9929125 0.57104397 -4.479211
  vertex -4.479211 0.57104397 -2.9929125
  vertex -5.2835894 0.57104397 -1.05097
 endloop
endfacet
facet normal 0 1 0
 outer loop
  vertex -5.2835894 0.57104397 -1.05097
  vertex -5.2835894 0.57104397 1.0509698
  vertex -4.479211 0.57104397 2.9929125
 endloop
endfacet
facet normal 0 1 0
 outer loop
  vertex -4.479211 0.57104397 2.9929125
  vertex -2.9929125 0.57104397 4.479211
  vertex -1.05097 0.57104397 5.2835894
 endloop
endfacet
facet normal 0 1 0
 outer loop
  vertex -1.05097 0.57104397 5.2835894
  vertex 2.9929125 0.57104397 4.479211
  vertex 5.2835894 0.57104397 1.0509698
 endloop
endfacet
facet normal 0 1 0
 outer loop
  vertex 5.2835894 0.57104397 1.0509698
  vertex 4.479211 0.57104397 -2.9929125
  vertex 1.05097 0.57104397 -5.2835894
 endloop
endfacet
facet normal 0 1 0
 outer loop
  vertex 1.05097 0.57104397 -5.2835894
  vertex -2.9929125 0.57104397 -4.479211
  vertex -5.2835894 0.57104397 -1.05097
 endloop
endfacet
facet normal 0 1 0
 outer loop
  vertex -5.2835894 0.57104397 -1.05097
  vertex -4.479211 0.57104397 2.9929125
  vertex -1.05097 0.57104397 5.2835894
 endloop
endfacet
facet normal 0 1 -0
 outer loop
  vertex -1.05097 0.57104397 5.2835894
  vertex 5.2835894 0.57104397 1.0509698
  vertex 1.05097 0.57104397 -5.2835894
 endloop
endfacet
facet normal 0 1 0
 outer loop
  vertex 1.05097 0.57104397 -5.2835894
  vertex -5.2835894 0.57104397 -1.05097
  vertex -1.05097 0.57104397 5.2835894
 endloop
endfacet
endsolid 
