solid 
facet normal -0.10238092 -0.9435234 -0.31508988
 outer loop
  vertex -2.1250668 1.4818683 3.2091346
  vertex -2.5503895 1.6312141 2.9001231
  vertex -1.9626112 1.6312139 2.7091393
 endloop
endfacet
facet normal -0.70022404 -0.66169894 -0.26803163
 outer loop
  vertex -2.848674 2.0346487 2.6834092
  vertex -2.5503895 1.6312141 2.9001231
  vertex -2.9757147 1.9561324 3.2091346
 endloop
endfacet
facet normal 0.26803407 -0.9435229 -0.19473664
 outer loop
  vertex -2.1250668 1.4818683 3.2091346
  vertex -1.9626112 1.6312139 2.7091393
  vertex -1.599337 1.6312165 3.2091346
 endloop
endfacet
facet normal 0.26803407 -0.9435229 0.19473664
 outer loop
  vertex -2.1250668 1.4818683 3.2091346
  vertex -1.599337 1.6312165 3.2091346
  vertex -1.9626112 1.6312139 3.7091298
 endloop
endfacet
facet normal -0.10238092 -0.9435234 0.31508988
 outer loop
  vertex -2.1250668 1.4818683 3.2091346
  vertex -1.9626112 1.6312139 3.7091298
  vertex -2.5503895 1.6312141 3.518146
 endloop
endfacet
facet normal -0.90498906 -0.33038464 -0.26803148
 outer loop
  vertex -2.848674 2.0346487 2.6834092
  vertex -2.9757147 1.9561324 3.2091346
  vertex -3.0761247 2.4818683 2.900122
 endloop
endfacet
facet normal -0.024746712 -0.3303861 -0.9435213
 outer loop
  vertex -1.8486787 2.0346484 2.3584852
  vertex -2.3879356 1.9561306 2.400123
  vertex -2.1250668 2.4818683 2.2091346
 endloop
endfacet
facet normal 0.88969725 -0.33038488 -0.3150946
 outer loop
  vertex -1.2306405 2.0346527 3.2091346
  vertex -1.4368774 1.956132 2.7091377
  vertex -1.1740088 2.4818683 2.900122
 endloop
endfacet
facet normal 0.57460207 -0.33038747 0.7487834
 outer loop
  vertex -1.8486787 2.0346484 4.059784
  vertex -1.4368774 1.956132 3.7091315
  vertex -1.5372812 2.4818683 4.0181513
 endloop
endfacet
facet normal -0.53457576 -0.33038667 0.77786463
 outer loop
  vertex -2.848674 2.0346487 3.73486
  vertex -2.3879356 1.9561306 4.018146
  vertex -2.7128525 2.4818683 4.0181513
 endloop
endfacet
facet normal -0.80260915 -0.12562737 -0.5831264
 outer loop
  vertex -2.848674 2.0346487 2.6834092
  vertex -3.0761247 2.4818683 2.900122
  vertex -2.7128525 2.4818683 2.4001179
 endloop
endfacet
facet normal 0.306569 -0.12562846 -0.94352156
 outer loop
  vertex -1.8486787 2.0346484 2.3584852
  vertex -2.1250668 2.4818683 2.2091346
  vertex -1.5372812 2.4818683 2.4001179
 endloop
endfacet
facet normal 0.9920774 -0.12562849 0
 outer loop
  vertex -1.2306405 2.0346527 3.2091346
  vertex -1.1740088 2.4818683 2.900122
  vertex -1.1740088 2.4818683 3.5181472
 endloop
endfacet
facet normal 0.306569 -0.12562844 0.94352156
 outer loop
  vertex -1.8486787 2.0346484 4.059784
  vertex -1.5372812 2.4818683 4.0181513
  vertex -2.1250668 2.4818683 4.2091346
 endloop
endfacet
facet normal -0.80260915 -0.12562737 0.5831264
 outer loop
  vertex -2.848674 2.0346487 3.73486
  vertex -2.7128525 2.4818683 4.0181513
  vertex -3.0761247 2.4818683 3.5181472
 endloop
endfacet
facet normal -0.40894592 0.66169864 -0.6284252
 outer loop
  vertex -2.4014547 2.929088 2.3584852
  vertex -2.8132563 3.0076046 2.7091377
  vertex -2.2875223 3.3325226 2.7091393
 endloop
endfacet
facet normal 0.4712997 0.66169876 -0.5831221
 outer loop
  vertex -1.4014595 2.9290879 2.6834092
  vertex -1.8621979 3.007606 2.400123
  vertex -1.6997441 3.3325224 2.9001231
 endloop
endfacet
facet normal 0.7002239 0.66169906 0.26803157
 outer loop
  vertex -1.4014595 2.9290879 3.73486
  vertex -1.2744188 3.0076041 3.2091346
  vertex -1.6997441 3.3325224 3.518146
 endloop
endfacet
facet normal -0.03853016 0.66169906 0.74877894
 outer loop
  vertex -2.4014547 2.929088 4.059784
  vertex -1.8621979 3.007606 4.018146
  vertex -2.2875223 3.3325226 3.7091298
 endloop
endfacet
facet normal -0.7240421 0.66169554 0.19473581
 outer loop
  vertex -3.019493 2.9290838 3.2091346
  vertex -2.8132563 3.0076046 3.7091315
  vertex -2.6507964 3.33252 3.2091346
 endloop
endfacet
facet normal -0.26803413 0.9435229 0.19473663
 outer loop
  vertex -2.6507964 3.33252 3.2091346
  vertex -2.2875223 3.3325226 3.7091298
  vertex -2.1250668 3.4818683 3.2091346
 endloop
endfacet
facet normal -0.49111915 0.79465765 0.35682094
 outer loop
  vertex -2.6507964 3.33252 3.2091346
  vertex -2.8132563 3.0076046 3.7091315
  vertex -2.2875223 3.3325226 3.7091298
 endloop
endfacet
facet normal -0.40894592 0.6616986 0.6284251
 outer loop
  vertex -2.8132563 3.0076046 3.7091315
  vertex -2.4014547 2.929088 4.059784
  vertex -2.2875223 3.3325226 3.7091298
 endloop
endfacet
facet normal 0.10238095 0.94352347 0.3150899
 outer loop
  vertex -2.2875223 3.3325226 3.7091298
  vertex -1.6997441 3.3325224 3.518146
  vertex -2.1250668 3.4818683 3.2091346
 endloop
endfacet
facet normal 0.1875942 0.79465765 0.5773453
 outer loop
  vertex -2.2875223 3.3325226 3.7091298
  vertex -1.8621979 3.007606 4.018146
  vertex -1.6997441 3.3325224 3.518146
 endloop
endfacet
facet normal 0.47129956 0.66169876 0.58312225
 outer loop
  vertex -1.8621979 3.007606 4.018146
  vertex -1.4014595 2.9290879 3.73486
  vertex -1.6997441 3.3325224 3.518146
 endloop
endfacet
facet normal 0.3313047 0.9435238 -0
 outer loop
  vertex -1.6997441 3.3325224 3.518146
  vertex -1.6997441 3.3325224 2.9001231
  vertex -2.1250668 3.4818683 3.2091346
 endloop
endfacet
facet normal 0.6070604 0.7946557 0
 outer loop
  vertex -1.6997441 3.3325224 3.518146
  vertex -1.2744188 3.0076041 3.2091346
  vertex -1.6997441 3.3325224 2.9001231
 endloop
endfacet
facet normal 0.7002239 0.66169906 -0.2680316
 outer loop
  vertex -1.2744188 3.0076041 3.2091346
  vertex -1.4014595 2.9290879 2.6834092
  vertex -1.6997441 3.3325224 2.9001231
 endloop
endfacet
facet normal 0.10238095 0.94352347 -0.3150899
 outer loop
  vertex -1.6997441 3.3325224 2.9001231
  vertex -2.2875223 3.3325226 2.7091393
  vertex -2.1250668 3.4818683 3.2091346
 endloop
endfacet
facet normal 0.18759412 0.7946578 -0.57734513
 outer loop
  vertex -1.6997441 3.3325224 2.9001231
  vertex -1.8621979 3.007606 2.400123
  vertex -2.2875223 3.3325226 2.7091393
 endloop
endfacet
facet normal -0.0385305 0.6616991 -0.7487788
 outer loop
  vertex -1.8621979 3.007606 2.400123
  vertex -2.4014547 2.929088 2.3584852
  vertex -2.2875223 3.3325226 2.7091393
 endloop
endfacet
facet normal -0.26803413 0.9435229 -0.19473663
 outer loop
  vertex -2.2875223 3.3325226 2.7091393
  vertex -2.6507964 3.33252 3.2091346
  vertex -2.1250668 3.4818683 3.2091346
 endloop
endfacet
facet normal -0.49111915 0.79465765 -0.35682094
 outer loop
  vertex -2.2875223 3.3325226 2.7091393
  vertex -2.8132563 3.0076046 2.7091377
  vertex -2.6507964 3.33252 3.2091346
 endloop
endfacet
facet normal -0.7240421 0.66169554 -0.19473584
 outer loop
  vertex -2.8132563 3.0076046 2.7091377
  vertex -3.019493 2.9290838 3.2091346
  vertex -2.6507964 3.33252 3.2091346
 endloop
endfacet
facet normal -0.8896974 0.33038467 0.3150946
 outer loop
  vertex -3.0761247 2.4818683 3.5181472
  vertex -2.8132563 3.0076046 3.7091315
  vertex -3.019493 2.9290838 3.2091346
 endloop
endfacet
facet normal -0.7946557 0.18759498 0.5773479
 outer loop
  vertex -3.0761247 2.4818683 3.5181472
  vertex -2.7128525 2.4818683 4.0181513
  vertex -2.8132563 3.0076046 3.7091315
 endloop
endfacet
facet normal -0.57460177 0.3303876 0.7487835
 outer loop
  vertex -2.7128525 2.4818683 4.0181513
  vertex -2.4014547 2.929088 4.059784
  vertex -2.8132563 3.0076046 3.7091315
 endloop
endfacet
facet normal 0.024747025 0.33038628 0.9435213
 outer loop
  vertex -2.1250668 2.4818683 4.2091346
  vertex -1.8621979 3.007606 4.018146
  vertex -2.4014547 2.929088 4.059784
 endloop
endfacet
facet normal 0.30353093 0.18759768 0.9341713
 outer loop
  vertex -2.1250668 2.4818683 4.2091346
  vertex -1.5372812 2.4818683 4.0181513
  vertex -1.8621979 3.007606 4.018146
 endloop
endfacet
facet normal 0.53457576 0.33038655 0.7778647
 outer loop
  vertex -1.5372812 2.4818683 4.0181513
  vertex -1.4014595 2.9290879 3.73486
  vertex -1.8621979 3.007606 4.018146
 endloop
endfacet
facet normal 0.90498906 0.33038464 0.26803148
 outer loop
  vertex -1.1740088 2.4818683 3.5181472
  vertex -1.2744188 3.0076041 3.2091346
  vertex -1.4014595 2.9290879 3.73486
 endloop
endfacet
facet normal 0.9822458 0.18759856 -0
 outer loop
  vertex -1.1740088 2.4818683 3.5181472
  vertex -1.1740088 2.4818683 2.900122
  vertex -1.2744188 3.0076041 3.2091346
 endloop
endfacet
facet normal 0.90498906 0.33038464 -0.26803145
 outer loop
  vertex -1.1740088 2.4818683 2.900122
  vertex -1.4014595 2.9290879 2.6834092
  vertex -1.2744188 3.0076041 3.2091346
 endloop
endfacet
facet normal 0.53457606 0.3303864 -0.7778646
 outer loop
  vertex -1.5372812 2.4818683 2.4001179
  vertex -1.8621979 3.007606 2.400123
  vertex -1.4014595 2.9290879 2.6834092
 endloop
endfacet
facet normal 0.30353096 0.18759727 -0.9341714
 outer loop
  vertex -1.5372812 2.4818683 2.4001179
  vertex -2.1250668 2.4818683 2.2091346
  vertex -1.8621979 3.007606 2.400123
 endloop
endfacet
facet normal 0.02474665 0.33038607 -0.94352144
 outer loop
  vertex -2.1250668 2.4818683 2.2091346
  vertex -2.4014547 2.929088 2.3584852
  vertex -1.8621979 3.007606 2.400123
 endloop
endfacet
facet normal -0.57460177 0.33038756 -0.7487835
 outer loop
  vertex -2.7128525 2.4818683 2.4001179
  vertex -2.8132563 3.0076046 2.7091377
  vertex -2.4014547 2.929088 2.3584852
 endloop
endfacet
facet normal -0.7946557 0.187595 -0.5773479
 outer loop
  vertex -2.7128525 2.4818683 2.4001179
  vertex -3.0761247 2.4818683 2.900122
  vertex -2.8132563 3.0076046 2.7091377
 endloop
endfacet
facet normal -0.8896974 0.33038467 -0.3150946
 outer loop
  vertex -3.0761247 2.4818683 2.900122
  vertex -3.019493 2.9290838 3.2091346
  vertex -2.8132563 3.0076046 2.7091377
 endloop
endfacet
facet normal -0.30656895 0.12562858 0.94352156
 outer loop
  vertex -2.7128525 2.4818683 4.0181513
  vertex -2.1250668 2.4818683 4.2091346
  vertex -2.4014547 2.929088 4.059784
 endloop
endfacet
facet normal -0.3035309 -0.18759775 0.9341713
 outer loop
  vertex -2.7128525 2.4818683 4.0181513
  vertex -2.3879356 1.9561306 4.018146
  vertex -2.1250668 2.4818683 4.2091346
 endloop
endfacet
facet normal -0.024747089 -0.33038634 0.9435213
 outer loop
  vertex -2.3879356 1.9561306 4.018146
  vertex -1.8486787 2.0346484 4.059784
  vertex -2.1250668 2.4818683 4.2091346
 endloop
endfacet
facet normal 0.802609 0.12562728 0.58312654
 outer loop
  vertex -1.5372812 2.4818683 4.0181513
  vertex -1.1740088 2.4818683 3.5181472
  vertex -1.4014595 2.9290879 3.73486
 endloop
endfacet
facet normal 0.79465556 -0.1875951 0.577348
 outer loop
  vertex -1.5372812 2.4818683 4.0181513
  vertex -1.4368774 1.956132 3.7091315
  vertex -1.1740088 2.4818683 3.5181472
 endloop
endfacet
facet normal 0.88969725 -0.33038488 0.31509456
 outer loop
  vertex -1.4368774 1.956132 3.7091315
  vertex -1.2306405 2.0346527 3.2091346
  vertex -1.1740088 2.4818683 3.5181472
 endloop
endfacet
facet normal 0.802609 0.12562725 -0.58312654
 outer loop
  vertex -1.1740088 2.4818683 2.900122
  vertex -1.5372812 2.4818683 2.4001179
  vertex -1.4014595 2.9290879 2.6834092
 endloop
endfacet
facet normal 0.79465556 -0.1875951 -0.577348
 outer loop
  vertex -1.1740088 2.4818683 2.900122
  vertex -1.4368774 1.956132 2.7091377
  vertex -1.5372812 2.4818683 2.4001179
 endloop
endfacet
facet normal 0.574602 -0.3303875 -0.7487834
 outer loop
  vertex -1.4368774 1.956132 2.7091377
  vertex -1.8486787 2.0346484 2.3584852
  vertex -1.5372812 2.4818683 2.4001179
 endloop
endfacet
facet normal -0.30656895 0.12562858 -0.94352156
 outer loop
  vertex -2.1250668 2.4818683 2.2091346
  vertex -2.7128525 2.4818683 2.4001179
  vertex -2.4014547 2.929088 2.3584852
 endloop
endfacet
facet normal -0.30353093 -0.18759735 -0.9341714
 outer loop
  vertex -2.1250668 2.4818683 2.2091346
  vertex -2.3879356 1.9561306 2.400123
  vertex -2.7128525 2.4818683 2.4001179
 endloop
endfacet
facet normal -0.534576 -0.33038652 -0.7778645
 outer loop
  vertex -2.3879356 1.9561306 2.400123
  vertex -2.848674 2.0346487 2.6834092
  vertex -2.7128525 2.4818683 2.4001179
 endloop
endfacet
facet normal -0.9920774 0.12562822 0
 outer loop
  vertex -3.0761247 2.4818683 2.900122
  vertex -3.0761247 2.4818683 3.5181472
  vertex -3.019493 2.9290838 3.2091346
 endloop
endfacet
facet normal -0.9822458 -0.18759856 0
 outer loop
  vertex -3.0761247 2.4818683 2.900122
  vertex -2.9757147 1.9561324 3.2091346
  vertex -3.0761247 2.4818683 3.5181472
 endloop
endfacet
facet normal -0.90498906 -0.33038464 0.26803145
 outer loop
  vertex -2.9757147 1.9561324 3.2091346
  vertex -2.848674 2.0346487 3.73486
  vertex -3.0761247 2.4818683 3.5181472
 endloop
endfacet
facet normal -0.47129944 -0.66169864 0.58312243
 outer loop
  vertex -2.5503895 1.6312141 3.518146
  vertex -2.3879356 1.9561306 4.018146
  vertex -2.848674 2.0346487 3.73486
 endloop
endfacet
facet normal -0.18759422 -0.7946575 0.5773455
 outer loop
  vertex -2.5503895 1.6312141 3.518146
  vertex -1.9626112 1.6312139 3.7091298
  vertex -2.3879356 1.9561306 4.018146
 endloop
endfacet
facet normal 0.03853 -0.661699 0.7487788
 outer loop
  vertex -1.9626112 1.6312139 3.7091298
  vertex -1.8486787 2.0346484 4.059784
  vertex -2.3879356 1.9561306 4.018146
 endloop
endfacet
facet normal 0.4089462 -0.66169864 0.62842494
 outer loop
  vertex -1.9626112 1.6312139 3.7091298
  vertex -1.4368774 1.956132 3.7091315
  vertex -1.8486787 2.0346484 4.059784
 endloop
endfacet
facet normal 0.49111933 -0.79465747 0.3568212
 outer loop
  vertex -1.9626112 1.6312139 3.7091298
  vertex -1.599337 1.6312165 3.2091346
  vertex -1.4368774 1.956132 3.7091315
 endloop
endfacet
facet normal 0.72404224 -0.66169524 0.1947361
 outer loop
  vertex -1.599337 1.6312165 3.2091346
  vertex -1.2306405 2.0346527 3.2091346
  vertex -1.4368774 1.956132 3.7091315
 endloop
endfacet
facet normal 0.72404224 -0.66169524 -0.1947361
 outer loop
  vertex -1.599337 1.6312165 3.2091346
  vertex -1.4368774 1.956132 2.7091377
  vertex -1.2306405 2.0346527 3.2091346
 endloop
endfacet
facet normal 0.49111933 -0.79465747 -0.3568212
 outer loop
  vertex -1.599337 1.6312165 3.2091346
  vertex -1.9626112 1.6312139 2.7091393
  vertex -1.4368774 1.956132 2.7091377
 endloop
endfacet
facet normal 0.40894622 -0.66169864 -0.628425
 outer loop
  vertex -1.9626112 1.6312139 2.7091393
  vertex -1.8486787 2.0346484 2.3584852
  vertex -1.4368774 1.956132 2.7091377
 endloop
endfacet
facet normal -0.70022404 -0.66169894 0.26803163
 outer loop
  vertex -2.9757147 1.9561324 3.2091346
  vertex -2.5503895 1.6312141 3.518146
  vertex -2.848674 2.0346487 3.73486
 endloop
endfacet
facet normal -0.6070605 -0.79465556 -0
 outer loop
  vertex -2.9757147 1.9561324 3.2091346
  vertex -2.5503895 1.6312141 2.9001231
  vertex -2.5503895 1.6312141 3.518146
 endloop
endfacet
facet normal -0.33130458 -0.9435238 0
 outer loop
  vertex -2.5503895 1.6312141 2.9001231
  vertex -2.1250668 1.4818683 3.2091346
  vertex -2.5503895 1.6312141 3.518146
 endloop
endfacet
facet normal 0.038530342 -0.66169906 -0.7487789
 outer loop
  vertex -1.9626112 1.6312139 2.7091393
  vertex -2.3879356 1.9561306 2.400123
  vertex -1.8486787 2.0346484 2.3584852
 endloop
endfacet
facet normal -0.18759413 -0.7946577 -0.5773453
 outer loop
  vertex -1.9626112 1.6312139 2.7091393
  vertex -2.5503895 1.6312141 2.9001231
  vertex -2.3879356 1.9561306 2.400123
 endloop
endfacet
facet normal -0.47129962 -0.66169864 -0.5831223
 outer loop
  vertex -2.5503895 1.6312141 2.9001231
  vertex -2.848674 2.0346487 2.6834092
  vertex -2.3879356 1.9561306 2.400123
 endloop
endfacet
facet normal -0.35215032 0.3914167 0.8501665
 outer loop
  vertex 3.390952 1.318669 0.06105995
  vertex 3.390952 4.4640474 -1.3870726
  vertex 2.3669677 1.318669 -0.36308813
 endloop
endfacet
facet normal -0.8501665 0.3914167 0.35215032
 outer loop
  vertex 2.3669677 1.318669 -0.36308813
  vertex 3.390952 4.4640474 -1.3870726
  vertex 1.9428196 1.318669 -1.3870726
 endloop
endfacet
facet normal -0.8501665 0.3914167 -0.35215032
 outer loop
  vertex 1.9428196 1.318669 -1.3870726
  vertex 3.390952 4.4640474 -1.3870726
  vertex 2.3669677 1.318669 -2.411057
 endloop
endfacet
facet normal -0.35215032 0.3914167 -0.8501665
 outer loop
  vertex 2.3669677 1.318669 -2.411057
  vertex 3.390952 4.4640474 -1.3870726
  vertex 3.390952 1.318669 -2.835205
 endloop
endfacet
facet normal 0.35215032 0.3914167 -0.8501665
 outer loop
  vertex 3.390952 1.318669 -2.835205
  vertex 3.390952 4.4640474 -1.3870726
  vertex 4.4149365 1.318669 -2.411057
 endloop
endfacet
facet normal 0.8501665 0.3914167 -0.35215032
 outer loop
  vertex 4.4149365 1.318669 -2.411057
  vertex 3.390952 4.4640474 -1.3870726
  vertex 4.8390846 1.318669 -1.3870726
 endloop
endfacet
facet normal 0.8501665 0.3914167 0.35215032
 outer loop
  vertex 4.8390846 1.318669 -1.3870726
  vertex 3.390952 4.4640474 -1.3870726
  vertex 4.4149365 1.318669 -0.36308813
 endloop
endfacet
facet normal 0.35215032 0.3914167 0.8501665
 outer loop
  vertex 4.4149365 1.318669 -0.36308813
  vertex 3.390952 4.4640474 -1.3870726
  vertex 3.390952 1.318669 0.06105995
 endloop
endfacet
facet normal -0.71579623 0.39141673 0.5782981
 outer loop
  vertex 2.8049278 2.1832747 -0.31066275
  vertex 3.390952 4.845296 -1.3870726
  vertex 2.2154336 2.1832747 -1.040317
 endloop
endfacet
facet normal -0.91506284 0.3914168 -0.097225785
 outer loop
  vertex 2.2154336 2.1832747 -1.040317
  vertex 3.390952 4.845296 -1.3870726
  vertex 2.3145418 2.1832747 -1.9730964
 endloop
endfacet
facet normal -0.57829785 0.3914167 -0.7157964
 outer loop
  vertex 2.3145418 2.1832747 -1.9730964
  vertex 3.390952 4.845296 -1.3870726
  vertex 3.0441966 2.1832747 -2.5625906
 endloop
endfacet
facet normal 0.09722579 0.39141664 -0.9150629
 outer loop
  vertex 3.0441966 2.1832747 -2.5625906
  vertex 3.390952 4.845296 -1.3870726
  vertex 3.976976 2.1832747 -2.4634824
 endloop
endfacet
facet normal 0.7157963 0.39141664 -0.57829815
 outer loop
  vertex 3.976976 2.1832747 -2.4634824
  vertex 3.390952 4.845296 -1.3870726
  vertex 4.56647 2.1832747 -1.7338281
 endloop
endfacet
facet normal 0.9150629 0.39141664 0.09722579
 outer loop
  vertex 4.56647 2.1832747 -1.7338281
  vertex 3.390952 4.845296 -1.3870726
  vertex 4.467362 2.1832747 -0.80104876
 endloop
endfacet
facet normal 0.57829785 0.3914166 0.7157964
 outer loop
  vertex 4.467362 2.1832747 -0.80104876
  vertex 3.390952 4.845296 -1.3870726
  vertex 3.7377071 2.1832747 -0.21155453
 endloop
endfacet
facet normal -0.09722579 0.39141664 0.9150629
 outer loop
  vertex 3.7377071 2.1832747 -0.21155453
  vertex 3.390952 4.845296 -1.3870726
  vertex 2.8049278 2.1832747 -0.31066275
 endloop
endfacet
facet normal -0.9051823 0.39141676 0.16564408
 outer loop
  vertex 2.5197582 2.9150147 -0.8241172
  vertex 3.3909516 5.1679564 -1.3870726
  vertex 2.376855 2.9150147 -1.6050296
 endloop
endfacet
facet normal -0.7571884 0.39141676 -0.52293277
 outer loop
  vertex 2.376855 2.9150147 -1.6050296
  vertex 3.3909516 5.1679564 -1.3870726
  vertex 2.8279963 2.9150147 -2.2582664
 endloop
endfacet
facet normal -0.16564353 0.39141685 -0.90518236
 outer loop
  vertex 2.8279963 2.9150147 -2.2582664
  vertex 3.3909516 5.1679564 -1.3870726
  vertex 3.6089087 2.9150147 -2.4011693
 endloop
endfacet
facet normal 0.52293235 0.39141685 -0.7571886
 outer loop
  vertex 3.6089087 2.9150147 -2.4011693
  vertex 3.3909516 5.1679564 -1.3870726
  vertex 4.2621455 2.9150147 -1.9500284
 endloop
endfacet
facet normal 0.90518236 0.39141685 -0.16564342
 outer loop
  vertex 4.2621455 2.9150147 -1.9500284
  vertex 3.3909516 5.1679564 -1.3870726
  vertex 4.4050484 2.9150147 -1.1691155
 endloop
endfacet
facet normal 0.75718844 0.3914168 0.52293265
 outer loop
  vertex 4.4050484 2.9150147 -1.1691155
  vertex 3.3909516 5.1679564 -1.3870726
  vertex 3.9539075 2.9150147 -0.51587915
 endloop
endfacet
facet normal 0.16564374 0.39141673 0.90518236
 outer loop
  vertex 3.9539075 2.9150147 -0.51587915
  vertex 3.3909516 5.1679564 -1.3870726
  vertex 3.1729946 2.9150147 -0.37297606
 endloop
endfacet
facet normal -0.5229329 0.39141664 0.7571883
 outer loop
  vertex 3.1729946 2.9150147 -0.37297606
  vertex 3.3909516 5.1679564 -1.3870726
  vertex 2.5197582 2.9150147 -0.8241172
 endloop
endfacet
facet normal -0.87420285 0.39141673 -0.28733662
 outer loop
  vertex 2.515571 3.534306 -1.3211737
  vertex 3.3909516 5.4410334 -1.3870726
  vertex 2.7253666 3.534306 -1.9594626
 endloop
endfacet
facet normal -0.41497716 0.3914168 -0.8213324
 outer loop
  vertex 2.7253666 3.534306 -1.9594626
  vertex 3.3909516 5.4410334 -1.3870726
  vertex 3.3250523 3.534306 -2.262453
 endloop
endfacet
facet normal 0.28733608 0.3914168 -0.874203
 outer loop
  vertex 3.3250523 3.534306 -2.262453
  vertex 3.3909516 5.4410334 -1.3870726
  vertex 3.9633412 3.534306 -2.052658
 endloop
endfacet
facet normal 0.8213325 0.3914167 -0.41497695
 outer loop
  vertex 3.9633412 3.534306 -2.052658
  vertex 3.3909516 5.4410334 -1.3870726
  vertex 4.2663317 3.534306 -1.4529719
 endloop
endfacet
facet normal 0.8742031 0.39141655 0.2873362
 outer loop
  vertex 4.2663317 3.534306 -1.4529719
  vertex 3.3909516 5.4410334 -1.3870726
  vertex 4.0565367 3.534306 -0.81468344
 endloop
endfacet
facet normal 0.41497764 0.3914165 0.8213322
 outer loop
  vertex 4.0565367 3.534306 -0.81468344
  vertex 3.3909516 5.4410334 -1.3870726
  vertex 3.456851 3.534306 -0.5116925
 endloop
endfacet
facet normal -0.28733635 0.39141658 0.874203
 outer loop
  vertex 3.456851 3.534306 -0.5116925
  vertex 3.3909516 5.4410334 -1.3870726
  vertex 2.818562 3.534306 -0.72148776
 endloop
endfacet
facet normal -0.82133216 0.39141664 0.41497758
 outer loop
  vertex 2.818562 3.534306 -0.72148776
  vertex 3.3909516 5.4410334 -1.3870726
  vertex 2.515571 3.534306 -1.3211737
 endloop
endfacet
facet normal -0.35215056 0.3914167 0.85016644
 outer loop
  vertex 3.356937 1.318669 3.069876
  vertex 3.356937 4.4640474 1.6217433
  vertex 2.3329525 1.318669 2.6457276
 endloop
endfacet
facet normal -0.8501665 0.3914167 0.35215038
 outer loop
  vertex 2.3329525 1.318669 2.6457276
  vertex 3.356937 4.4640474 1.6217433
  vertex 1.9088044 1.318669 1.6217433
 endloop
endfacet
facet normal -0.8501665 0.3914167 -0.35215038
 outer loop
  vertex 1.9088044 1.318669 1.6217433
  vertex 3.356937 4.4640474 1.6217433
  vertex 2.3329525 1.318669 0.597759
 endloop
endfacet
facet normal -0.35215032 0.39141667 -0.8501665
 outer loop
  vertex 2.3329525 1.318669 0.597759
  vertex 3.356937 4.4640474 1.6217433
  vertex 3.356937 1.318669 0.17361093
 endloop
endfacet
facet normal 0.35215032 0.39141667 -0.8501665
 outer loop
  vertex 3.356937 1.318669 0.17361093
  vertex 3.356937 4.4640474 1.6217433
  vertex 4.3809214 1.318669 0.597759
 endloop
endfacet
facet normal 0.8501665 0.3914167 -0.35215038
 outer loop
  vertex 4.3809214 1.318669 0.597759
  vertex 3.356937 4.4640474 1.6217433
  vertex 4.8050694 1.318669 1.6217433
 endloop
endfacet
facet normal 0.8501665 0.3914167 0.35215038
 outer loop
  vertex 4.8050694 1.318669 1.6217433
  vertex 3.356937 4.4640474 1.6217433
  vertex 4.3809214 1.318669 2.6457276
 endloop
endfacet
facet normal 0.35215056 0.3914167 0.85016644
 outer loop
  vertex 4.3809214 1.318669 2.6457276
  vertex 3.356937 4.4640474 1.6217433
  vertex 3.356937 1.318669 3.069876
 endloop
endfacet
facet normal -0.7157964 0.39141664 0.578298
 outer loop
  vertex 2.7709131 2.1832747 2.6981533
  vertex 3.356937 4.845296 1.6217433
  vertex 2.181419 2.1832747 1.9684986
 endloop
endfacet
facet normal -0.9150629 0.3914166 -0.09722583
 outer loop
  vertex 2.181419 2.1832747 1.9684986
  vertex 3.356937 4.845296 1.6217433
  vertex 2.280527 2.1832747 1.0357196
 endloop
endfacet
facet normal -0.57829815 0.39141664 -0.7157963
 outer loop
  vertex 2.280527 2.1832747 1.0357196
  vertex 3.356937 4.845296 1.6217433
  vertex 3.0101814 2.1832747 0.4462254
 endloop
endfacet
facet normal 0.09722588 0.3914166 -0.9150629
 outer loop
  vertex 3.0101814 2.1832747 0.4462254
  vertex 3.356937 4.845296 1.6217433
  vertex 3.9429607 2.1832747 0.5453336
 endloop
endfacet
facet normal 0.71579635 0.39141664 -0.57829815
 outer loop
  vertex 3.9429607 2.1832747 0.5453336
  vertex 3.356937 4.845296 1.6217433
  vertex 4.532455 2.1832747 1.274988
 endloop
endfacet
facet normal 0.9150629 0.39141664 0.0972258
 outer loop
  vertex 4.532455 2.1832747 1.274988
  vertex 3.356937 4.845296 1.6217433
  vertex 4.4333467 2.1832747 2.2077672
 endloop
endfacet
facet normal 0.57829815 0.3914167 0.7157963
 outer loop
  vertex 4.4333467 2.1832747 2.2077672
  vertex 3.356937 4.845296 1.6217433
  vertex 3.7036924 2.1832747 2.7972615
 endloop
endfacet
facet normal -0.09722579 0.3914167 0.9150629
 outer loop
  vertex 3.7036924 2.1832747 2.7972615
  vertex 3.356937 4.845296 1.6217433
  vertex 2.7709131 2.1832747 2.6981533
 endloop
endfacet
facet normal -0.90518236 0.39141685 0.16564342
 outer loop
  vertex 2.485743 2.9150147 2.184699
  vertex 3.356937 5.1679564 1.6217433
  vertex 2.3428402 2.9150147 1.4037862
 endloop
endfacet
facet normal -0.75718844 0.3914168 -0.52293265
 outer loop
  vertex 2.3428402 2.9150147 1.4037862
  vertex 3.356937 5.1679564 1.6217433
  vertex 2.793981 2.9150147 0.7505498
 endloop
endfacet
facet normal -0.16564372 0.3914168 -0.9051823
 outer loop
  vertex 2.793981 2.9150147 0.7505498
  vertex 3.356937 5.1679564 1.6217433
  vertex 3.574894 2.9150147 0.6076467
 endloop
endfacet
facet normal 0.5229328 0.3914167 -0.7571883
 outer loop
  vertex 3.574894 2.9150147 0.6076467
  vertex 3.356937 5.1679564 1.6217433
  vertex 4.2281303 2.9150147 1.0587878
 endloop
endfacet
facet normal 0.9051823 0.39141676 -0.165644
 outer loop
  vertex 4.2281303 2.9150147 1.0587878
  vertex 3.356937 5.1679564 1.6217433
  vertex 4.3710337 2.9150147 1.8397005
 endloop
endfacet
facet normal 0.75718856 0.39141685 0.5229325
 outer loop
  vertex 4.3710337 2.9150147 1.8397005
  vertex 3.356937 5.1679564 1.6217433
  vertex 3.9198928 2.9150147 2.492937
 endloop
endfacet
facet normal 0.16564348 0.39141682 0.90518236
 outer loop
  vertex 3.9198928 2.9150147 2.492937
  vertex 3.356937 5.1679564 1.6217433
  vertex 3.13898 2.9150147 2.63584
 endloop
endfacet
facet normal -0.52293235 0.3914168 0.7571886
 outer loop
  vertex 3.13898 2.9150147 2.63584
  vertex 3.356937 5.1679564 1.6217433
  vertex 2.485743 2.9150147 2.184699
 endloop
endfacet
facet normal -0.8742028 0.3914167 -0.28733677
 outer loop
  vertex 2.4815564 3.534306 1.6876425
  vertex 3.356937 5.4410334 1.6217433
  vertex 2.691352 3.534306 1.0493538
 endloop
endfacet
facet normal -0.41497743 0.39141658 -0.8213323
 outer loop
  vertex 2.691352 3.534306 1.0493538
  vertex 3.356937 5.4410334 1.6217433
  vertex 3.2910376 3.534306 0.74636316
 endloop
endfacet
facet normal 0.28733635 0.39141664 -0.874203
 outer loop
  vertex 3.2910376 3.534306 0.74636316
  vertex 3.356937 5.4410334 1.6217433
  vertex 3.9293265 3.534306 0.9561584
 endloop
endfacet
facet normal 0.82133216 0.39141664 -0.41497767
 outer loop
  vertex 3.9293265 3.534306 0.9561584
  vertex 3.356937 5.4410334 1.6217433
  vertex 4.2323174 3.534306 1.5558442
 endloop
endfacet
facet normal 0.8742028 0.3914167 0.28733677
 outer loop
  vertex 4.2323174 3.534306 1.5558442
  vertex 3.356937 5.4410334 1.6217433
  vertex 4.022522 3.534306 2.1941328
 endloop
endfacet
facet normal 0.4149777 0.39141664 0.82133216
 outer loop
  vertex 4.022522 3.534306 2.1941328
  vertex 3.356937 5.4410334 1.6217433
  vertex 3.4228363 3.534306 2.4971237
 endloop
endfacet
facet normal -0.28733665 0.39141664 0.87420285
 outer loop
  vertex 3.4228363 3.534306 2.4971237
  vertex 3.356937 5.4410334 1.6217433
  vertex 2.7845473 3.534306 2.2873282
 endloop
endfacet
facet normal -0.82133216 0.39141664 0.41497767
 outer loop
  vertex 2.7845473 3.534306 2.2873282
  vertex 3.356937 5.4410334 1.6217433
  vertex 2.4815564 3.534306 1.6876425
 endloop
endfacet
facet normal 0.10238086 0.9435235 0.31508988
 outer loop
  vertex -2.125067 1.5818683 3.2091346
  vertex -1.9788569 1.7162793 2.759139
  vertex -2.507857 1.7162794 2.9310246
 endloop
endfacet
facet normal 0.70022386 0.66169906 0.26803163
 outer loop
  vertex -2.7763133 2.0793705 2.735982
  vertex -2.8906498 2.0087059 3.2091346
  vertex -2.507857 1.7162794 2.9310246
 endloop
endfacet
facet normal -0.26803404 0.9435229 0.19473651
 outer loop
  vertex -2.125067 1.5818683 3.2091346
  vertex -1.65191 1.7162818 3.2091346
  vertex -1.9788569 1.7162793 2.759139
 endloop
endfacet
facet normal -0.26803404 0.9435229 -0.19473653
 outer loop
  vertex -2.125067 1.5818683 3.2091346
  vertex -1.9788569 1.7162793 3.65913
  vertex -1.65191 1.7162818 3.2091346
 endloop
endfacet
facet normal 0.10238086 0.9435235 -0.31508988
 outer loop
  vertex -2.125067 1.5818683 3.2091346
  vertex -2.507857 1.7162794 3.4872446
  vertex -1.9788569 1.7162793 3.65913
 endloop
endfacet
facet normal 0.904989 0.33038476 0.26803148
 outer loop
  vertex -2.7763133 2.0793705 2.735982
  vertex -2.981019 2.4818683 2.9310236
  vertex -2.8906498 2.0087059 3.2091346
 endloop
endfacet
facet normal 0.024746662 0.33038655 0.9435212
 outer loop
  vertex -1.8763176 2.0793703 2.4435503
  vertex -2.1250668 2.4818683 2.3091345
  vertex -2.3616486 2.0087042 2.4810243
 endloop
endfacet
facet normal -0.8896973 0.33038455 0.31509477
 outer loop
  vertex -1.3200831 2.079374 3.2091346
  vertex -1.2691146 2.4818683 2.9310236
  vertex -1.5056963 2.0087054 2.7591376
 endloop
endfacet
facet normal -0.5746019 0.33038774 -0.74878335
 outer loop
  vertex -1.8763176 2.0793703 3.9747188
  vertex -1.5960598 2.4818683 3.9372497
  vertex -1.5056963 2.0087054 3.6591315
 endloop
endfacet
facet normal 0.5345759 0.33038673 -0.7778646
 outer loop
  vertex -2.7763133 2.0793705 3.6822872
  vertex -2.6540737 2.4818683 3.9372497
  vertex -2.3616486 2.0087042 3.937245
 endloop
endfacet
facet normal 0.802609 0.12562732 0.5831264
 outer loop
  vertex -2.7763133 2.0793705 2.735982
  vertex -2.6540737 2.4818683 2.4810195
  vertex -2.981019 2.4818683 2.9310236
 endloop
endfacet
facet normal -0.3065691 0.12562907 0.94352144
 outer loop
  vertex -1.8763176 2.0793703 2.4435503
  vertex -1.5960598 2.4818683 2.4810195
  vertex -2.1250668 2.4818683 2.3091345
 endloop
endfacet
facet normal -0.99207735 0.12562846 0
 outer loop
  vertex -1.3200831 2.079374 3.2091346
  vertex -1.2691146 2.4818683 3.4872456
  vertex -1.2691146 2.4818683 2.9310236
 endloop
endfacet
facet normal -0.3065691 0.12562905 -0.94352144
 outer loop
  vertex -1.8763176 2.0793703 3.9747188
  vertex -2.1250668 2.4818683 4.1091347
  vertex -1.5960598 2.4818683 3.9372497
 endloop
endfacet
facet normal 0.802609 0.12562735 -0.5831264
 outer loop
  vertex -2.7763133 2.0793705 3.6822872
  vertex -2.981019 2.4818683 3.4872456
  vertex -2.6540737 2.4818683 3.9372497
 endloop
endfacet
facet normal 0.40894622 -0.6616986 0.62842494
 outer loop
  vertex -2.3738158 2.8843663 2.4435503
  vertex -2.2712767 3.2474573 2.759139
  vertex -2.7444372 2.955031 2.7591376
 endloop
endfacet
facet normal -0.4712996 -0.66169894 0.58312196
 outer loop
  vertex -1.4738202 2.884366 2.735982
  vertex -1.7422764 3.247457 2.9310246
  vertex -1.8884848 2.9550323 2.4810243
 endloop
endfacet
facet normal -0.70022374 -0.6616992 -0.2680316
 outer loop
  vertex -1.4738202 2.884366 3.6822872
  vertex -1.7422764 3.247457 3.4872446
  vertex -1.3594837 2.9550307 3.2091346
 endloop
endfacet
facet normal 0.038530406 -0.6616991 -0.74877876
 outer loop
  vertex -2.3738158 2.8843663 3.9747188
  vertex -2.2712767 3.2474573 3.65913
  vertex -1.8884848 2.9550323 3.937245
 endloop
endfacet
facet normal 0.72404206 -0.66169554 -0.19473593
 outer loop
  vertex -2.9300504 2.8843625 3.2091346
  vertex -2.5982237 3.2474546 3.2091346
  vertex -2.7444372 2.9550312 3.6591315
 endloop
endfacet
facet normal 0.26803443 -0.9435228 -0.19473653
 outer loop
  vertex -2.5982237 3.2474546 3.2091346
  vertex -2.1250665 3.3818684 3.2091346
  vertex -2.2712767 3.2474573 3.65913
 endloop
endfacet
facet normal 0.4911191 -0.79465765 -0.3568209
 outer loop
  vertex -2.5982237 3.2474546 3.2091346
  vertex -2.2712767 3.2474573 3.65913
  vertex -2.7444372 2.9550312 3.6591315
 endloop
endfacet
facet normal 0.4089459 -0.66169864 -0.6284251
 outer loop
  vertex -2.7444372 2.9550312 3.6591315
  vertex -2.2712767 3.2474573 3.65913
  vertex -2.3738158 2.8843663 3.9747188
 endloop
endfacet
facet normal -0.10238115 -0.94352335 -0.31509018
 outer loop
  vertex -2.2712767 3.2474573 3.65913
  vertex -2.1250665 3.3818684 3.2091346
  vertex -1.7422764 3.247457 3.4872446
 endloop
endfacet
facet normal -0.18759428 -0.7946579 -0.577345
 outer loop
  vertex -2.2712767 3.2474573 3.65913
  vertex -1.7422764 3.247457 3.4872446
  vertex -1.8884848 2.9550323 3.937245
 endloop
endfacet
facet normal -0.4712996 -0.66169894 -0.58312196
 outer loop
  vertex -1.8884848 2.9550323 3.937245
  vertex -1.7422764 3.247457 3.4872446
  vertex -1.4738202 2.884366 3.6822872
 endloop
endfacet
facet normal -0.331305 -0.9435237 0
 outer loop
  vertex -1.7422764 3.247457 3.4872446
  vertex -2.1250665 3.3818684 3.2091346
  vertex -1.7422764 3.247457 2.9310246
 endloop
endfacet
facet normal -0.6070603 -0.79465574 0
 outer loop
  vertex -1.7422764 3.247457 3.4872446
  vertex -1.7422764 3.247457 2.9310246
  vertex -1.3594837 2.9550307 3.2091346
 endloop
endfacet
facet normal -0.70022374 -0.6616992 0.2680316
 outer loop
  vertex -1.3594837 2.9550307 3.2091346
  vertex -1.7422764 3.247457 2.9310246
  vertex -1.4738202 2.884366 2.735982
 endloop
endfacet
facet normal -0.10238115 -0.94352335 0.31509018
 outer loop
  vertex -1.7422764 3.247457 2.9310246
  vertex -2.1250665 3.3818684 3.2091346
  vertex -2.2712767 3.2474573 2.759139
 endloop
endfacet
facet normal -0.18759428 -0.7946579 0.577345
 outer loop
  vertex -1.7422764 3.247457 2.9310246
  vertex -2.2712767 3.2474573 2.759139
  vertex -1.8884848 2.9550323 2.4810243
 endloop
endfacet
facet normal 0.038530406 -0.6616991 0.74877876
 outer loop
  vertex -1.8884848 2.9550323 2.4810243
  vertex -2.2712767 3.2474573 2.759139
  vertex -2.3738158 2.8843663 2.4435503
 endloop
endfacet
facet normal 0.26803443 -0.9435228 0.19473653
 outer loop
  vertex -2.2712767 3.2474573 2.759139
  vertex -2.1250665 3.3818684 3.2091346
  vertex -2.5982237 3.2474546 3.2091346
 endloop
endfacet
facet normal 0.49111933 -0.79465747 0.3568211
 outer loop
  vertex -2.2712767 3.2474573 2.759139
  vertex -2.5982237 3.2474546 3.2091346
  vertex -2.7444372 2.955031 2.7591376
 endloop
endfacet
facet normal 0.724042 -0.6616955 0.19473626
 outer loop
  vertex -2.7444372 2.955031 2.7591376
  vertex -2.5982237 3.2474546 3.2091346
  vertex -2.9300504 2.8843625 3.2091346
 endloop
endfacet
facet normal 0.8896973 -0.3303848 -0.3150947
 outer loop
  vertex -2.981019 2.4818683 3.4872456
  vertex -2.9300504 2.8843625 3.2091346
  vertex -2.7444372 2.9550312 3.6591315
 endloop
endfacet
facet normal 0.79465556 -0.18759511 -0.5773479
 outer loop
  vertex -2.981019 2.4818683 3.4872456
  vertex -2.7444372 2.9550312 3.6591315
  vertex -2.6540737 2.4818683 3.9372497
 endloop
endfacet
facet normal 0.57460177 -0.33038777 -0.7487835
 outer loop
  vertex -2.6540737 2.4818683 3.9372497
  vertex -2.7444372 2.9550312 3.6591315
  vertex -2.3738158 2.8843663 3.9747188
 endloop
endfacet
facet normal -0.024746653 -0.33038658 -0.9435212
 outer loop
  vertex -2.1250668 2.4818683 4.1091347
  vertex -2.3738158 2.8843663 3.9747188
  vertex -1.8884848 2.9550323 3.937245
 endloop
endfacet
facet normal -0.30353105 -0.18759778 -0.9341712
 outer loop
  vertex -2.1250668 2.4818683 4.1091347
  vertex -1.8884848 2.9550323 3.937245
  vertex -1.5960598 2.4818683 3.9372497
 endloop
endfacet
facet normal -0.53457594 -0.33038664 -0.7778645
 outer loop
  vertex -1.5960598 2.4818683 3.9372497
  vertex -1.8884848 2.9550323 3.937245
  vertex -1.4738202 2.884366 3.6822872
 endloop
endfacet
facet normal -0.9049891 -0.33038452 -0.26803145
 outer loop
  vertex -1.2691146 2.4818683 3.4872456
  vertex -1.4738202 2.884366 3.6822872
  vertex -1.3594837 2.9550307 3.2091346
 endloop
endfacet
facet normal -0.98224574 -0.18759874 0
 outer loop
  vertex -1.2691146 2.4818683 3.4872456
  vertex -1.3594837 2.9550307 3.2091346
  vertex -1.2691146 2.4818683 2.9310236
 endloop
endfacet
facet normal -0.9049891 -0.33038452 0.26803145
 outer loop
  vertex -1.2691146 2.4818683 2.9310236
  vertex -1.3594837 2.9550307 3.2091346
  vertex -1.4738202 2.884366 2.735982
 endloop
endfacet
facet normal -0.53457594 -0.33038667 0.7778645
 outer loop
  vertex -1.5960598 2.4818683 2.4810195
  vertex -1.4738202 2.884366 2.735982
  vertex -1.8884848 2.9550323 2.4810243
 endloop
endfacet
facet normal -0.30353105 -0.18759778 0.9341712
 outer loop
  vertex -1.5960598 2.4818683 2.4810195
  vertex -1.8884848 2.9550323 2.4810243
  vertex -2.1250668 2.4818683 2.3091345
 endloop
endfacet
facet normal -0.024746647 -0.33038655 0.94352126
 outer loop
  vertex -2.1250668 2.4818683 2.3091345
  vertex -1.8884848 2.9550323 2.4810243
  vertex -2.3738158 2.8843663 2.4435503
 endloop
endfacet
facet normal 0.5746018 -0.33038786 0.74878335
 outer loop
  vertex -2.6540737 2.4818683 2.4810195
  vertex -2.3738158 2.8843663 2.4435503
  vertex -2.7444372 2.955031 2.7591376
 endloop
endfacet
facet normal 0.79465556 -0.1875952 0.5773479
 outer loop
  vertex -2.6540737 2.4818683 2.4810195
  vertex -2.7444372 2.955031 2.7591376
  vertex -2.981019 2.4818683 2.9310236
 endloop
endfacet
facet normal 0.88969713 -0.33038485 0.31509483
 outer loop
  vertex -2.981019 2.4818683 2.9310236
  vertex -2.7444372 2.955031 2.7591376
  vertex -2.9300504 2.8843625 3.2091346
 endloop
endfacet
facet normal 0.30656913 -0.12562916 -0.9435214
 outer loop
  vertex -2.6540737 2.4818683 3.9372497
  vertex -2.3738158 2.8843663 3.9747188
  vertex -2.1250668 2.4818683 4.1091347
 endloop
endfacet
facet normal 0.30353105 0.18759787 -0.9341712
 outer loop
  vertex -2.6540737 2.4818683 3.9372497
  vertex -2.1250668 2.4818683 4.1091347
  vertex -2.3616486 2.0087042 3.937245
 endloop
endfacet
facet normal 0.024746662 0.33038655 -0.9435212
 outer loop
  vertex -2.3616486 2.0087042 3.937245
  vertex -2.1250668 2.4818683 4.1091347
  vertex -1.8763176 2.0793703 3.9747188
 endloop
endfacet
facet normal -0.8026092 -0.12562725 -0.58312625
 outer loop
  vertex -1.5960598 2.4818683 3.9372497
  vertex -1.4738202 2.884366 3.6822872
  vertex -1.2691146 2.4818683 3.4872456
 endloop
endfacet
facet normal -0.7946557 0.18759501 -0.57734776
 outer loop
  vertex -1.5960598 2.4818683 3.9372497
  vertex -1.2691146 2.4818683 3.4872456
  vertex -1.5056963 2.0087054 3.6591315
 endloop
endfacet
facet normal -0.8896973 0.33038455 -0.31509477
 outer loop
  vertex -1.5056963 2.0087054 3.6591315
  vertex -1.2691146 2.4818683 3.4872456
  vertex -1.3200831 2.079374 3.2091346
 endloop
endfacet
facet normal -0.8026092 -0.12562725 0.58312625
 outer loop
  vertex -1.2691146 2.4818683 2.9310236
  vertex -1.4738202 2.884366 2.735982
  vertex -1.5960598 2.4818683 2.4810195
 endloop
endfacet
facet normal -0.7946557 0.18759501 0.57734776
 outer loop
  vertex -1.2691146 2.4818683 2.9310236
  vertex -1.5960598 2.4818683 2.4810195
  vertex -1.5056963 2.0087054 2.7591376
 endloop
endfacet
facet normal -0.5746019 0.33038774 0.74878335
 outer loop
  vertex -1.5056963 2.0087054 2.7591376
  vertex -1.5960598 2.4818683 2.4810195
  vertex -1.8763176 2.0793703 2.4435503
 endloop
endfacet
facet normal 0.30656913 -0.12562916 0.9435214
 outer loop
  vertex -2.1250668 2.4818683 2.3091345
  vertex -2.3738158 2.8843663 2.4435503
  vertex -2.6540737 2.4818683 2.4810195
 endloop
endfacet
facet normal 0.30353105 0.18759786 0.9341712
 outer loop
  vertex -2.1250668 2.4818683 2.3091345
  vertex -2.6540737 2.4818683 2.4810195
  vertex -2.3616486 2.0087042 2.4810243
 endloop
endfacet
facet normal 0.5345759 0.33038673 0.7778646
 outer loop
  vertex -2.3616486 2.0087042 2.4810243
  vertex -2.6540737 2.4818683 2.4810195
  vertex -2.7763133 2.0793705 2.735982
 endloop
endfacet
facet normal 0.9920773 -0.12562874 0
 outer loop
  vertex -2.981019 2.4818683 2.9310236
  vertex -2.9300504 2.8843625 3.2091346
  vertex -2.981019 2.4818683 3.4872456
 endloop
endfacet
facet normal 0.98224574 0.18759897 0
 outer loop
  vertex -2.981019 2.4818683 2.9310236
  vertex -2.981019 2.4818683 3.4872456
  vertex -2.8906498 2.0087059 3.2091346
 endloop
endfacet
facet normal 0.904989 0.33038476 -0.26803148
 outer loop
  vertex -2.8906498 2.0087059 3.2091346
  vertex -2.981019 2.4818683 3.4872456
  vertex -2.7763133 2.0793705 3.6822872
 endloop
endfacet
facet normal 0.47129953 0.6616988 -0.58312213
 outer loop
  vertex -2.507857 1.7162794 3.4872446
  vertex -2.7763133 2.0793705 3.6822872
  vertex -2.3616486 2.0087042 3.937245
 endloop
endfacet
facet normal 0.18759418 0.79465777 -0.5773452
 outer loop
  vertex -2.507857 1.7162794 3.4872446
  vertex -2.3616486 2.0087042 3.937245
  vertex -1.9788569 1.7162793 3.65913
 endloop
endfacet
facet normal -0.03853043 0.6616992 -0.74877876
 outer loop
  vertex -1.9788569 1.7162793 3.65913
  vertex -2.3616486 2.0087042 3.937245
  vertex -1.8763176 2.0793703 3.9747188
 endloop
endfacet
facet normal -0.4089459 0.66169876 -0.628425
 outer loop
  vertex -1.9788569 1.7162793 3.65913
  vertex -1.8763176 2.0793703 3.9747188
  vertex -1.5056963 2.0087054 3.6591315
 endloop
endfacet
facet normal -0.49111903 0.79465777 -0.35682106
 outer loop
  vertex -1.9788569 1.7162793 3.65913
  vertex -1.5056963 2.0087054 3.6591315
  vertex -1.65191 1.7162818 3.2091346
 endloop
endfacet
facet normal -0.72404206 0.66169554 -0.19473591
 outer loop
  vertex -1.65191 1.7162818 3.2091346
  vertex -1.5056963 2.0087054 3.6591315
  vertex -1.3200831 2.079374 3.2091346
 endloop
endfacet
facet normal -0.72404206 0.66169554 0.19473594
 outer loop
  vertex -1.65191 1.7162818 3.2091346
  vertex -1.3200831 2.079374 3.2091346
  vertex -1.5056963 2.0087054 2.7591376
 endloop
endfacet
facet normal -0.49111903 0.79465777 0.35682106
 outer loop
  vertex -1.65191 1.7162818 3.2091346
  vertex -1.5056963 2.0087054 2.7591376
  vertex -1.9788569 1.7162793 2.759139
 endloop
endfacet
facet normal -0.4089459 0.6616988 0.62842494
 outer loop
  vertex -1.9788569 1.7162793 2.759139
  vertex -1.5056963 2.0087054 2.7591376
  vertex -1.8763176 2.0793703 2.4435503
 endloop
endfacet
facet normal 0.70022386 0.66169906 -0.26803163
 outer loop
  vertex -2.8906498 2.0087059 3.2091346
  vertex -2.7763133 2.0793705 3.6822872
  vertex -2.507857 1.7162794 3.4872446
 endloop
endfacet
facet normal 0.6070605 0.7946556 -0
 outer loop
  vertex -2.8906498 2.0087059 3.2091346
  vertex -2.507857 1.7162794 3.4872446
  vertex -2.507857 1.7162794 2.9310246
 endloop
endfacet
facet normal 0.33130452 0.9435239 0
 outer loop
  vertex -2.507857 1.7162794 2.9310246
  vertex -2.507857 1.7162794 3.4872446
  vertex -2.125067 1.5818683 3.2091346
 endloop
endfacet
facet normal -0.038530424 0.6616992 0.74877876
 outer loop
  vertex -1.9788569 1.7162793 2.759139
  vertex -1.8763176 2.0793703 2.4435503
  vertex -2.3616486 2.0087042 2.4810243
 endloop
endfacet
facet normal 0.18759418 0.79465777 0.5773452
 outer loop
  vertex -1.9788569 1.7162793 2.759139
  vertex -2.3616486 2.0087042 2.4810243
  vertex -2.507857 1.7162794 2.9310246
 endloop
endfacet
facet normal 0.47129953 0.6616988 0.58312213
 outer loop
  vertex -2.507857 1.7162794 2.9310246
  vertex -2.3616486 2.0087042 2.4810243
  vertex -2.7763133 2.0793705 2.735982
 endloop
endfacet
facet normal 0.35455114 -0.3763267 -0.85596246
 outer loop
  vertex 3.390952 1.2768484 -0.029775381
  vertex 2.4311981 1.2768484 -0.42731833
  vertex 3.390952 4.3640475 -1.3870726
 endloop
endfacet
facet normal 0.85596234 -0.37632668 -0.35455137
 outer loop
  vertex 2.4311981 1.2768484 -0.42731833
  vertex 2.0336547 1.2768484 -1.3870726
  vertex 3.390952 4.3640475 -1.3870726
 endloop
endfacet
facet normal 0.8559624 -0.3763267 0.35455132
 outer loop
  vertex 2.0336547 1.2768484 -1.3870726
  vertex 2.4311981 1.2768484 -2.346827
  vertex 3.390952 4.3640475 -1.3870726
 endloop
endfacet
facet normal 0.35455114 -0.37632677 0.85596246
 outer loop
  vertex 2.4311981 1.2768484 -2.346827
  vertex 3.390952 1.2768484 -2.74437
  vertex 3.390952 4.3640475 -1.3870726
 endloop
endfacet
facet normal -0.35455114 -0.37632674 0.85596246
 outer loop
  vertex 3.390952 1.2768484 -2.74437
  vertex 4.350706 1.2768484 -2.346827
  vertex 3.390952 4.3640475 -1.3870726
 endloop
endfacet
facet normal -0.8559624 -0.3763267 0.35455132
 outer loop
  vertex 4.350706 1.2768484 -2.346827
  vertex 4.7482495 1.2768484 -1.3870726
  vertex 3.390952 4.3640475 -1.3870726
 endloop
endfacet
facet normal -0.85596234 -0.37632668 -0.35455137
 outer loop
  vertex 4.7482495 1.2768484 -1.3870726
  vertex 4.350706 1.2768484 -0.42731833
  vertex 3.390952 4.3640475 -1.3870726
 endloop
endfacet
facet normal -0.35455114 -0.3763267 -0.85596246
 outer loop
  vertex 4.350706 1.2768484 -0.42731833
  vertex 3.390952 1.2768484 -0.029775381
  vertex 3.390952 4.3640475 -1.3870726
 endloop
endfacet
facet normal 0.72156805 -0.37349182 -0.58296096
 outer loop
  vertex 2.848361 2.1414542 -0.39044118
  vertex 2.3025575 2.1414542 -1.0660172
  vertex 3.390952 4.745296 -1.3870726
 endloop
endfacet
facet normal 0.92244136 -0.37349188 0.09800956
 outer loop
  vertex 2.3025575 2.1414542 -1.0660172
  vertex 2.39432 2.1414542 -1.9296632
  vertex 3.390952 4.745296 -1.3870726
 endloop
endfacet
facet normal 0.58296084 -0.37349182 0.72156817
 outer loop
  vertex 2.39432 2.1414542 -1.9296632
  vertex 3.0698962 2.1414542 -2.4754667
  vertex 3.390952 4.745296 -1.3870726
 endloop
endfacet
facet normal -0.0980095 -0.37349167 0.9224413
 outer loop
  vertex 3.0698962 2.1414542 -2.4754667
  vertex 3.9335427 2.1414542 -2.3837042
  vertex 3.390952 4.745296 -1.3870726
 endloop
endfacet
facet normal -0.72156817 -0.3734917 0.58296084
 outer loop
  vertex 3.9335427 2.1414542 -2.3837042
  vertex 4.4793463 2.1414542 -1.708128
  vertex 3.390952 4.745296 -1.3870726
 endloop
endfacet
facet normal -0.92244136 -0.3734917 -0.09800956
 outer loop
  vertex 4.4793463 2.1414542 -1.708128
  vertex 4.3875837 2.1414542 -0.84448195
  vertex 3.390952 4.745296 -1.3870726
 endloop
endfacet
facet normal -0.58296084 -0.3734917 -0.72156817
 outer loop
  vertex 4.3875837 2.1414542 -0.84448195
  vertex 3.7120075 2.1414542 -0.2986784
  vertex 3.390952 4.745296 -1.3870726
 endloop
endfacet
facet normal 0.09800976 -0.37349164 -0.9224413
 outer loop
  vertex 3.7120075 2.1414542 -0.2986784
  vertex 2.848361 2.1414542 -0.39044118
  vertex 3.390952 4.745296 -1.3870726
 endloop
endfacet
facet normal 0.913816 -0.37010315 -0.16722456
 outer loop
  vertex 2.5960512 2.873194 -0.8734169
  vertex 2.465662 2.873194 -1.5859423
  vertex 3.3909516 5.0679564 -1.3870726
 endloop
endfacet
facet normal 0.7644104 -0.37010312 0.52792084
 outer loop
  vertex 2.465662 2.873194 -1.5859423
  vertex 2.877296 2.873194 -2.1819735
  vertex 3.3909516 5.0679564 -1.3870726
 endloop
endfacet
facet normal 0.16722396 -0.37010327 0.91381603
 outer loop
  vertex 2.877296 2.873194 -2.1819735
  vertex 3.5898213 2.873194 -2.3123622
  vertex 3.3909516 5.0679564 -1.3870726
 endloop
endfacet
facet normal -0.5279204 -0.3701032 0.7644107
 outer loop
  vertex 3.5898213 2.873194 -2.3123622
  vertex 4.1858525 2.873194 -1.9007287
  vertex 3.3909516 5.0679564 -1.3870726
 endloop
endfacet
facet normal -0.91381603 -0.37010324 0.16722384
 outer loop
  vertex 4.1858525 2.873194 -1.9007287
  vertex 4.3162413 2.873194 -1.1882029
  vertex 3.3909516 5.0679564 -1.3870726
 endloop
endfacet
facet normal -0.76441056 -0.37010318 -0.52792054
 outer loop
  vertex 4.3162413 2.873194 -1.1882029
  vertex 3.9046078 2.873194 -0.5921719
  vertex 3.3909516 5.0679564 -1.3870726
 endloop
endfacet
facet normal -0.16722386 -0.37010318 -0.9138161
 outer loop
  vertex 3.9046078 2.873194 -0.5921719
  vertex 3.192082 2.873194 -0.46178317
  vertex 3.3909516 5.0679564 -1.3870726
 endloop
endfacet
facet normal 0.5279209 -0.37010306 -0.7644104
 outer loop
  vertex 3.192082 2.873194 -0.46178317
  vertex 2.5960512 2.873194 -0.8734169
  vertex 3.3909516 5.0679564 -1.3870726
 endloop
endfacet
facet normal 0.8840676 -0.36604422 0.2905788
 outer loop
  vertex 2.6061502 3.4924855 -1.3279924
  vertex 2.7942371 3.4924855 -1.9002352
  vertex 3.3909516 5.341033 -1.3870726
 endloop
endfacet
facet normal 0.4196599 -0.3660443 0.8306005
 outer loop
  vertex 2.7942371 3.4924855 -1.9002352
  vertex 3.331871 3.4924855 -2.171874
  vertex 3.3909516 5.341033 -1.3870726
 endloop
endfacet
facet normal -0.29057816 -0.36604428 0.88406783
 outer loop
  vertex 3.331871 3.4924855 -2.171874
  vertex 3.9041138 3.4924855 -1.9837875
  vertex 3.3909516 5.341033 -1.3870726
 endloop
endfacet
facet normal -0.8306007 -0.36604413 0.4196596
 outer loop
  vertex 3.9041138 3.4924855 -1.9837875
  vertex 4.1757526 3.4924855 -1.4461532
  vertex 3.3909516 5.341033 -1.3870726
 endloop
endfacet
facet normal -0.8840679 -0.36604407 -0.2905784
 outer loop
  vertex 4.1757526 3.4924855 -1.4461532
  vertex 3.9876661 3.4924855 -0.8739109
  vertex 3.3909516 5.341033 -1.3870726
 endloop
endfacet
facet normal -0.4196605 -0.36604404 -0.8306003
 outer loop
  vertex 3.9876661 3.4924855 -0.8739109
  vertex 3.4500322 3.4924855 -0.60227156
  vertex 3.3909516 5.341033 -1.3870726
 endloop
endfacet
facet normal 0.29057884 -0.36604398 -0.8840677
 outer loop
  vertex 3.4500322 3.4924855 -0.60227156
  vertex 2.8777895 3.4924855 -0.79035854
  vertex 3.3909516 5.341033 -1.3870726
 endloop
endfacet
facet normal 0.83060026 -0.3660441 -0.41966048
 outer loop
  vertex 2.8777895 3.4924855 -0.79035854
  vertex 2.6061502 3.4924855 -1.3279924
  vertex 3.3909516 5.341033 -1.3870726
 endloop
endfacet
facet normal 0.3545513 -0.3763267 -0.85596234
 outer loop
  vertex 3.356937 1.2768484 2.9790409
  vertex 2.3971825 1.2768484 2.5814974
  vertex 3.356937 4.3640475 1.6217433
 endloop
endfacet
facet normal 0.85596246 -0.37632674 -0.35455108
 outer loop
  vertex 2.3971825 1.2768484 2.5814974
  vertex 1.9996395 1.2768484 1.6217433
  vertex 3.356937 4.3640475 1.6217433
 endloop
endfacet
facet normal 0.85596246 -0.37632674 0.35455108
 outer loop
  vertex 1.9996395 1.2768484 1.6217433
  vertex 2.3971825 1.2768484 0.6619892
  vertex 3.356937 4.3640475 1.6217433
 endloop
endfacet
facet normal 0.35455096 -0.37632665 0.8559625
 outer loop
  vertex 2.3971825 1.2768484 0.6619892
  vertex 3.356937 1.2768484 0.26444626
  vertex 3.356937 4.3640475 1.6217433
 endloop
endfacet
facet normal -0.35455114 -0.37632665 0.85596246
 outer loop
  vertex 3.356937 1.2768484 0.26444626
  vertex 4.316691 1.2768484 0.6619892
  vertex 3.356937 4.3640475 1.6217433
 endloop
endfacet
facet normal -0.85596234 -0.3763267 0.35455143
 outer loop
  vertex 4.316691 1.2768484 0.6619892
  vertex 4.7142344 1.2768484 1.6217433
  vertex 3.356937 4.3640475 1.6217433
 endloop
endfacet
facet normal -0.85596234 -0.3763267 -0.35455143
 outer loop
  vertex 4.7142344 1.2768484 1.6217433
  vertex 4.316691 1.2768484 2.5814974
  vertex 3.356937 4.3640475 1.6217433
 endloop
endfacet
facet normal -0.3545515 -0.3763267 -0.85596234
 outer loop
  vertex 4.316691 1.2768484 2.5814974
  vertex 3.356937 1.2768484 2.9790409
  vertex 3.356937 4.3640475 1.6217433
 endloop
endfacet
facet normal 0.7215681 -0.3734917 -0.5829609
 outer loop
  vertex 2.8143463 2.1414542 2.6183748
  vertex 2.2685428 2.1414542 1.9427987
  vertex 3.356937 4.745296 1.6217433
 endloop
endfacet
facet normal 0.9224414 -0.37349173 0.0980096
 outer loop
  vertex 2.2685428 2.1414542 1.9427987
  vertex 2.3603053 2.1414542 1.0791531
  vertex 3.356937 4.745296 1.6217433
 endloop
endfacet
facet normal 0.582961 -0.37349167 0.7215681
 outer loop
  vertex 2.3603053 2.1414542 1.0791531
  vertex 3.0358815 2.1414542 0.5333493
  vertex 3.356937 4.745296 1.6217433
 endloop
endfacet
facet normal -0.09800981 -0.37349162 0.92244136
 outer loop
  vertex 3.0358815 2.1414542 0.5333493
  vertex 3.8995275 2.1414542 0.62511206
  vertex 3.356937 4.745296 1.6217433
 endloop
endfacet
facet normal -0.72156805 -0.37349164 0.582961
 outer loop
  vertex 3.8995275 2.1414542 0.62511206
  vertex 4.445331 2.1414542 1.3006879
  vertex 3.356937 4.745296 1.6217433
 endloop
endfacet
facet normal -0.92244136 -0.3734917 -0.098009564
 outer loop
  vertex 4.445331 2.1414542 1.3006879
  vertex 4.3535686 2.1414542 2.1643338
  vertex 3.356937 4.745296 1.6217433
 endloop
endfacet
facet normal -0.5829612 -0.37349173 -0.7215678
 outer loop
  vertex 4.3535686 2.1414542 2.1643338
  vertex 3.6779928 2.1414542 2.7101376
  vertex 3.356937 4.745296 1.6217433
 endloop
endfacet
facet normal 0.09800976 -0.37349167 -0.9224413
 outer loop
  vertex 3.6779928 2.1414542 2.7101376
  vertex 2.8143463 2.1414542 2.6183748
  vertex 3.356937 4.745296 1.6217433
 endloop
endfacet
facet normal 0.91381603 -0.37010324 -0.1672238
 outer loop
  vertex 2.562036 2.873194 2.1353993
  vertex 2.4316473 2.873194 1.4228733
  vertex 3.356937 5.0679564 1.6217433
 endloop
endfacet
facet normal 0.7644105 -0.37010327 0.52792066
 outer loop
  vertex 2.4316473 2.873194 1.4228733
  vertex 2.8432808 2.873194 0.82684255
  vertex 3.356937 5.0679564 1.6217433
 endloop
endfacet
facet normal 0.16722384 -0.3701032 0.91381603
 outer loop
  vertex 2.8432808 2.873194 0.82684255
  vertex 3.5558066 2.873194 0.6964538
  vertex 3.356937 5.0679564 1.6217433
 endloop
endfacet
facet normal -0.5279207 -0.37010315 0.76441056
 outer loop
  vertex 3.5558066 2.873194 0.6964538
  vertex 4.1518373 2.873194 1.1080873
  vertex 3.356937 5.0679564 1.6217433
 endloop
endfacet
facet normal -0.913816 -0.37010315 0.16722439
 outer loop
  vertex 4.1518373 2.873194 1.1080873
  vertex 4.2822266 2.873194 1.8206134
  vertex 3.356937 5.0679564 1.6217433
 endloop
endfacet
facet normal -0.7644105 -0.37010327 -0.52792066
 outer loop
  vertex 4.2822266 2.873194 1.8206134
  vertex 3.870593 2.873194 2.416644
  vertex 3.356937 5.0679564 1.6217433
 endloop
endfacet
facet normal -0.16722384 -0.3701032 -0.91381603
 outer loop
  vertex 3.870593 2.873194 2.416644
  vertex 3.1580672 2.873194 2.5470328
  vertex 3.356937 5.0679564 1.6217433
 endloop
endfacet
facet normal 0.5279204 -0.37010318 -0.7644107
 outer loop
  vertex 3.1580672 2.873194 2.5470328
  vertex 2.562036 2.873194 2.1353993
  vertex 3.356937 5.0679564 1.6217433
 endloop
endfacet
facet normal 0.8840676 -0.3660442 0.29057887
 outer loop
  vertex 2.5721354 3.4924855 1.6808237
  vertex 2.7602224 3.4924855 1.1085811
  vertex 3.356937 5.341033 1.6217433
 endloop
endfacet
facet normal 0.41965994 -0.36604416 0.83060056
 outer loop
  vertex 2.7602224 3.4924855 1.1085811
  vertex 3.2978563 3.4924855 0.8369422
  vertex 3.356937 5.341033 1.6217433
 endloop
endfacet
facet normal -0.2905785 -0.36604407 0.8840678
 outer loop
  vertex 3.2978563 3.4924855 0.8369422
  vertex 3.870099 3.4924855 1.025029
  vertex 3.356937 5.341033 1.6217433
 endloop
endfacet
facet normal -0.83060026 -0.36604413 0.4196603
 outer loop
  vertex 3.870099 3.4924855 1.025029
  vertex 4.1417384 3.4924855 1.5626631
  vertex 3.356937 5.341033 1.6217433
 endloop
endfacet
facet normal -0.88406765 -0.3660442 -0.29057893
 outer loop
  vertex 4.1417384 3.4924855 1.5626631
  vertex 3.9536514 3.4924855 2.1349056
  vertex 3.356937 5.341033 1.6217433
 endloop
endfacet
facet normal -0.41966018 -0.3660442 -0.8306003
 outer loop
  vertex 3.9536514 3.4924855 2.1349056
  vertex 3.4160175 3.4924855 2.4065447
  vertex 3.356937 5.341033 1.6217433
 endloop
endfacet
facet normal 0.29057884 -0.36604413 -0.8840677
 outer loop
  vertex 3.4160175 3.4924855 2.4065447
  vertex 2.8437748 3.4924855 2.2184577
  vertex 3.356937 5.341033 1.6217433
 endloop
endfacet
facet normal 0.83060026 -0.36604416 -0.4196604
 outer loop
  vertex 2.8437748 3.4924855 2.2184577
  vertex 2.5721354 3.4924855 1.6808237
  vertex 3.356937 5.341033 1.6217433
 endloop
endfacet
facet normal -0.17068419 -0.89502335 0.41206822
 outer loop
  vertex 3.390952 1.318669 0.06105995
  vertex 2.3669677 1.318669 -0.36308813
  vertex 2.4311981 1.2768484 -0.42731833
 endloop
endfacet
facet normal -0.17068414 -0.89502335 0.41206816
 outer loop
  vertex 3.390952 1.318669 0.06105995
  vertex 2.4311981 1.2768484 -0.42731833
  vertex 3.390952 1.2768484 -0.029775381
 endloop
endfacet
facet normal -0.412069 -0.89502287 0.1706845
 outer loop
  vertex 2.3669677 1.318669 -0.36308813
  vertex 1.9428196 1.318669 -1.3870726
  vertex 2.0336547 1.2768484 -1.3870726
 endloop
endfacet
facet normal -0.41206756 -0.8950237 0.17068407
 outer loop
  vertex 2.3669677 1.318669 -0.36308813
  vertex 2.0336547 1.2768484 -1.3870726
  vertex 2.4311981 1.2768484 -0.42731833
 endloop
endfacet
facet normal -0.41206804 -0.89502335 -0.17068411
 outer loop
  vertex 1.9428196 1.318669 -1.3870726
  vertex 2.3669677 1.318669 -2.411057
  vertex 2.4311981 1.2768484 -2.346827
 endloop
endfacet
facet normal -0.412069 -0.89502287 -0.1706846
 outer loop
  vertex 1.9428196 1.318669 -1.3870726
  vertex 2.4311981 1.2768484 -2.346827
  vertex 2.0336547 1.2768484 -1.3870726
 endloop
endfacet
facet normal -0.1706845 -0.89502287 -0.412069
 outer loop
  vertex 2.3669677 1.318669 -2.411057
  vertex 3.390952 1.318669 -2.835205
  vertex 3.390952 1.2768484 -2.74437
 endloop
endfacet
facet normal -0.1706845 -0.8950228 -0.41206905
 outer loop
  vertex 2.3669677 1.318669 -2.411057
  vertex 3.390952 1.2768484 -2.74437
  vertex 2.4311981 1.2768484 -2.346827
 endloop
endfacet
facet normal 0.17068453 -0.8950228 -0.41206908
 outer loop
  vertex 3.390952 1.318669 -2.835205
  vertex 4.4149365 1.318669 -2.411057
  vertex 4.350706 1.2768484 -2.346827
 endloop
endfacet
facet normal 0.17068447 -0.8950229 -0.41206896
 outer loop
  vertex 3.390952 1.318669 -2.835205
  vertex 4.350706 1.2768484 -2.346827
  vertex 3.390952 1.2768484 -2.74437
 endloop
endfacet
facet normal 0.412069 -0.89502287 -0.1706845
 outer loop
  vertex 4.4149365 1.318669 -2.411057
  vertex 4.8390846 1.318669 -1.3870726
  vertex 4.7482495 1.2768484 -1.3870726
 endloop
endfacet
facet normal 0.41206798 -0.89502347 -0.17068419
 outer loop
  vertex 4.4149365 1.318669 -2.411057
  vertex 4.7482495 1.2768484 -1.3870726
  vertex 4.350706 1.2768484 -2.346827
 endloop
endfacet
facet normal 0.4120677 -0.8950236 0.17068398
 outer loop
  vertex 4.8390846 1.318669 -1.3870726
  vertex 4.4149365 1.318669 -0.36308813
  vertex 4.350706 1.2768484 -0.42731833
 endloop
endfacet
facet normal 0.412069 -0.89502287 0.17068467
 outer loop
  vertex 4.8390846 1.318669 -1.3870726
  vertex 4.350706 1.2768484 -0.42731833
  vertex 4.7482495 1.2768484 -1.3870726
 endloop
endfacet
facet normal 0.17068416 -0.89502335 0.41206816
 outer loop
  vertex 4.4149365 1.318669 -0.36308813
  vertex 3.390952 1.318669 0.06105995
  vertex 3.390952 1.2768484 -0.029775381
 endloop
endfacet
facet normal 0.17068417 -0.8950232 0.41206825
 outer loop
  vertex 4.4149365 1.318669 -0.36308813
  vertex 3.390952 1.2768484 -0.029775381
  vertex 4.350706 1.2768484 -0.42731833
 endloop
endfacet
facet normal -0.3469397 -0.8950235 0.2802957
 outer loop
  vertex 2.8049278 2.1832747 -0.31066275
  vertex 2.2154336 2.1832747 -1.040317
  vertex 2.3025575 2.1414542 -1.0660172
 endloop
endfacet
facet normal -0.3469407 -0.895023 0.2802963
 outer loop
  vertex 2.8049278 2.1832747 -0.31066275
  vertex 2.3025575 2.1414542 -1.0660172
  vertex 2.848361 2.1414542 -0.39044118
 endloop
endfacet
facet normal -0.44352403 -0.8950227 -0.047124628
 outer loop
  vertex 2.2154336 2.1832747 -1.040317
  vertex 2.3145418 2.1832747 -1.9730964
  vertex 2.39432 2.1414542 -1.9296632
 endloop
endfacet
facet normal -0.44352305 -0.8950232 -0.0471244
 outer loop
  vertex 2.2154336 2.1832747 -1.040317
  vertex 2.39432 2.1414542 -1.9296632
  vertex 2.3025575 2.1414542 -1.0660172
 endloop
endfacet
facet normal -0.28029633 -0.89502287 -0.34694076
 outer loop
  vertex 2.3145418 2.1832747 -1.9730964
  vertex 3.0441966 2.1832747 -2.5625906
  vertex 3.0698962 2.1414542 -2.4754667
 endloop
endfacet
facet normal -0.28029665 -0.8950227 -0.34694123
 outer loop
  vertex 2.3145418 2.1832747 -1.9730964
  vertex 3.0698962 2.1414542 -2.4754667
  vertex 2.39432 2.1414542 -1.9296632
 endloop
endfacet
facet normal 0.047124628 -0.8950227 -0.44352403
 outer loop
  vertex 3.0441966 2.1832747 -2.5625906
  vertex 3.976976 2.1832747 -2.4634824
  vertex 3.9335427 2.1414542 -2.3837042
 endloop
endfacet
facet normal 0.04712435 -0.89502335 -0.44352278
 outer loop
  vertex 3.0441966 2.1832747 -2.5625906
  vertex 3.9335427 2.1414542 -2.3837042
  vertex 3.0698962 2.1414542 -2.4754667
 endloop
endfacet
facet normal 0.3469397 -0.8950235 -0.2802957
 outer loop
  vertex 3.976976 2.1832747 -2.4634824
  vertex 4.56647 2.1832747 -1.7338281
  vertex 4.4793463 2.1414542 -1.708128
 endloop
endfacet
facet normal 0.34694123 -0.8950227 -0.28029665
 outer loop
  vertex 3.976976 2.1832747 -2.4634824
  vertex 4.4793463 2.1414542 -1.708128
  vertex 3.9335427 2.1414542 -2.3837042
 endloop
endfacet
facet normal 0.44352403 -0.8950227 0.047124628
 outer loop
  vertex 4.56647 2.1832747 -1.7338281
  vertex 4.467362 2.1832747 -0.80104876
  vertex 4.3875837 2.1414542 -0.84448195
 endloop
endfacet
facet normal 0.44352305 -0.8950232 0.0471244
 outer loop
  vertex 4.56647 2.1832747 -1.7338281
  vertex 4.3875837 2.1414542 -0.84448195
  vertex 4.4793463 2.1414542 -1.708128
 endloop
endfacet
facet normal 0.28029633 -0.89502287 0.34694076
 outer loop
  vertex 4.467362 2.1832747 -0.80104876
  vertex 3.7377071 2.1832747 -0.21155453
  vertex 3.7120075 2.1414542 -0.2986784
 endloop
endfacet
facet normal 0.28029665 -0.8950227 0.34694123
 outer loop
  vertex 4.467362 2.1832747 -0.80104876
  vertex 3.7120075 2.1414542 -0.2986784
  vertex 4.3875837 2.1414542 -0.84448195
 endloop
endfacet
facet normal -0.047124524 -0.8950232 0.44352305
 outer loop
  vertex 3.7377071 2.1832747 -0.21155453
  vertex 2.8049278 2.1832747 -0.31066275
  vertex 2.848361 2.1414542 -0.39044118
 endloop
endfacet
facet normal -0.047124475 -0.89502335 0.4435228
 outer loop
  vertex 3.7377071 2.1832747 -0.21155453
  vertex 2.848361 2.1414542 -0.39044118
  vertex 3.7120075 2.1414542 -0.2986784
 endloop
endfacet
facet normal -0.43873692 -0.89502174 0.08028681
 outer loop
  vertex 2.5197582 2.9150147 -0.8241172
  vertex 2.376855 2.9150147 -1.6050296
  vertex 2.465662 2.873194 -1.5859423
 endloop
endfacet
facet normal -0.43873516 -0.8950226 0.080286734
 outer loop
  vertex 2.5197582 2.9150147 -0.8241172
  vertex 2.465662 2.873194 -1.5859423
  vertex 2.5960512 2.873194 -0.8734169
 endloop
endfacet
facet normal -0.36700368 -0.8950226 -0.25346172
 outer loop
  vertex 2.376855 2.9150147 -1.6050296
  vertex 2.8279963 2.9150147 -2.2582664
  vertex 2.877296 2.873194 -2.1819735
 endloop
endfacet
facet normal -0.36700442 -0.8950221 -0.25346237
 outer loop
  vertex 2.376855 2.9150147 -1.6050296
  vertex 2.877296 2.873194 -2.1819735
  vertex 2.465662 2.873194 -1.5859423
 endloop
endfacet
facet normal -0.080286525 -0.8950218 -0.43873686
 outer loop
  vertex 2.8279963 2.9150147 -2.2582664
  vertex 3.6089087 2.9150147 -2.4011693
  vertex 3.5898213 2.873194 -2.3123622
 endloop
endfacet
facet normal -0.08028646 -0.89502263 -0.4387353
 outer loop
  vertex 2.8279963 2.9150147 -2.2582664
  vertex 3.5898213 2.873194 -2.3123622
  vertex 2.877296 2.873194 -2.1819735
 endloop
endfacet
facet normal 0.25346157 -0.89502263 -0.36700386
 outer loop
  vertex 3.6089087 2.9150147 -2.4011693
  vertex 4.2621455 2.9150147 -1.9500284
  vertex 4.1858525 2.873194 -1.9007287
 endloop
endfacet
facet normal 0.25346205 -0.8950222 -0.36700436
 outer loop
  vertex 3.6089087 2.9150147 -2.4011693
  vertex 4.1858525 2.873194 -1.9007287
  vertex 3.5898213 2.873194 -2.3123622
 endloop
endfacet
facet normal 0.43873686 -0.89502186 -0.08028648
 outer loop
  vertex 4.2621455 2.9150147 -1.9500284
  vertex 4.4050484 2.9150147 -1.1691155
  vertex 4.3162413 2.873194 -1.1882029
 endloop
endfacet
facet normal 0.4387353 -0.8950225 -0.080286406
 outer loop
  vertex 4.2621455 2.9150147 -1.9500284
  vertex 4.3162413 2.873194 -1.1882029
  vertex 4.1858525 2.873194 -1.9007287
 endloop
endfacet
facet normal 0.3670042 -0.89502233 0.25346202
 outer loop
  vertex 4.4050484 2.9150147 -1.1691155
  vertex 3.9539075 2.9150147 -0.51587915
  vertex 3.9046078 2.873194 -0.5921719
 endloop
endfacet
facet normal 0.3670044 -0.89502215 0.25346217
 outer loop
  vertex 4.4050484 2.9150147 -1.1691155
  vertex 3.9046078 2.873194 -0.5921719
  vertex 4.3162413 2.873194 -1.1882029
 endloop
endfacet
facet normal 0.080286615 -0.89502186 0.43873686
 outer loop
  vertex 3.9539075 2.9150147 -0.51587915
  vertex 3.1729946 2.9150147 -0.37297606
  vertex 3.192082 2.873194 -0.46178317
 endloop
endfacet
facet normal 0.08028659 -0.8950221 0.43873632
 outer loop
  vertex 3.9539075 2.9150147 -0.51587915
  vertex 3.192082 2.873194 -0.46178317
  vertex 3.9046078 2.873194 -0.5921719
 endloop
endfacet
facet normal -0.25346172 -0.89502263 0.36700362
 outer loop
  vertex 3.1729946 2.9150147 -0.37297606
  vertex 2.5197582 2.9150147 -0.8241172
  vertex 2.5960512 2.873194 -0.8734169
 endloop
endfacet
facet normal -0.2534624 -0.89502215 0.3670044
 outer loop
  vertex 3.1729946 2.9150147 -0.37297606
  vertex 2.5960512 2.873194 -0.8734169
  vertex 3.192082 2.873194 -0.46178317
 endloop
endfacet
facet normal -0.42371884 -0.8950231 -0.13926968
 outer loop
  vertex 2.515571 3.534306 -1.3211737
  vertex 2.7253666 3.534306 -1.9594626
  vertex 2.7942371 3.4924855 -1.9002352
 endloop
endfacet
facet normal -0.42371824 -0.89502335 -0.13926937
 outer loop
  vertex 2.515571 3.534306 -1.3211737
  vertex 2.7942371 3.4924855 -1.9002352
  vertex 2.6061502 3.4924855 -1.3279924
 endloop
endfacet
facet normal -0.20113578 -0.8950233 -0.3980926
 outer loop
  vertex 2.7253666 3.534306 -1.9594626
  vertex 3.3250523 3.534306 -2.262453
  vertex 3.331871 3.4924855 -2.171874
 endloop
endfacet
facet normal -0.20113581 -0.8950233 -0.39809263
 outer loop
  vertex 2.7253666 3.534306 -1.9594626
  vertex 3.331871 3.4924855 -2.171874
  vertex 2.7942371 3.4924855 -1.9002352
 endloop
endfacet
facet normal 0.13926941 -0.895023 -0.423719
 outer loop
  vertex 3.3250523 3.534306 -2.262453
  vertex 3.9633412 3.534306 -2.052658
  vertex 3.9041138 3.4924855 -1.9837875
 endloop
endfacet
facet normal 0.13926905 -0.8950234 -0.42371833
 outer loop
  vertex 3.3250523 3.534306 -2.262453
  vertex 3.9041138 3.4924855 -1.9837875
  vertex 3.331871 3.4924855 -2.171874
 endloop
endfacet
facet normal 0.39809266 -0.8950233 -0.20113565
 outer loop
  vertex 3.9633412 3.534306 -2.052658
  vertex 4.2663317 3.534306 -1.4529719
  vertex 4.1757526 3.4924855 -1.4461532
 endloop
endfacet
facet normal 0.39809266 -0.8950233 -0.20113567
 outer loop
  vertex 3.9633412 3.534306 -2.052658
  vertex 4.1757526 3.4924855 -1.4461532
  vertex 3.9041138 3.4924855 -1.9837875
 endloop
endfacet
facet normal 0.42371896 -0.8950231 0.13926952
 outer loop
  vertex 4.2663317 3.534306 -1.4529719
  vertex 4.0565367 3.534306 -0.81468344
  vertex 3.9876661 3.4924855 -0.8739109
 endloop
endfacet
facet normal 0.42371833 -0.89502335 0.13926917
 outer loop
  vertex 4.2663317 3.534306 -1.4529719
  vertex 3.9876661 3.4924855 -0.8739109
  vertex 4.1757526 3.4924855 -1.4461532
 endloop
endfacet
facet normal 0.20113608 -0.8950232 0.39809257
 outer loop
  vertex 4.0565367 3.534306 -0.81468344
  vertex 3.456851 3.534306 -0.5116925
  vertex 3.4500322 3.4924855 -0.60227156
 endloop
endfacet
facet normal 0.201136 -0.8950233 0.3980923
 outer loop
  vertex 4.0565367 3.534306 -0.81468344
  vertex 3.4500322 3.4924855 -0.60227156
  vertex 3.9876661 3.4924855 -0.8739109
 endloop
endfacet
facet normal -0.13926923 -0.89502347 0.423718
 outer loop
  vertex 3.456851 3.534306 -0.5116925
  vertex 2.818562 3.534306 -0.72148776
  vertex 2.8777895 3.4924855 -0.79035854
 endloop
endfacet
facet normal -0.13926937 -0.89502335 0.42371824
 outer loop
  vertex 3.456851 3.534306 -0.5116925
  vertex 2.8777895 3.4924855 -0.79035854
  vertex 3.4500322 3.4924855 -0.60227156
 endloop
endfacet
facet normal -0.39809257 -0.8950232 0.20113602
 outer loop
  vertex 2.818562 3.534306 -0.72148776
  vertex 2.515571 3.534306 -1.3211737
  vertex 2.6061502 3.4924855 -1.3279924
 endloop
endfacet
facet normal -0.3980919 -0.8950235 0.2011358
 outer loop
  vertex 2.818562 3.534306 -0.72148776
  vertex 2.6061502 3.4924855 -1.3279924
  vertex 2.8777895 3.4924855 -0.79035854
 endloop
endfacet
facet normal -0.17068453 -0.89502287 0.41206884
 outer loop
  vertex 3.356937 1.318669 3.069876
  vertex 2.3329525 1.318669 2.6457276
  vertex 2.3971825 1.2768484 2.5814974
 endloop
endfacet
facet normal -0.1706846 -0.8950228 0.41206896
 outer loop
  vertex 3.356937 1.318669 3.069876
  vertex 2.3971825 1.2768484 2.5814974
  vertex 3.356937 1.2768484 2.9790409
 endloop
endfacet
facet normal -0.412069 -0.8950228 0.17068453
 outer loop
  vertex 2.3329525 1.318669 2.6457276
  vertex 1.9088044 1.318669 1.6217433
  vertex 1.9996395 1.2768484 1.6217433
 endloop
endfacet
facet normal -0.41206944 -0.8950227 0.17068465
 outer loop
  vertex 2.3329525 1.318669 2.6457276
  vertex 1.9996395 1.2768484 1.6217433
  vertex 2.3971825 1.2768484 2.5814974
 endloop
endfacet
facet normal -0.41206944 -0.89502263 -0.17068471
 outer loop
  vertex 1.9088044 1.318669 1.6217433
  vertex 2.3329525 1.318669 0.597759
  vertex 2.3971825 1.2768484 0.6619892
 endloop
endfacet
facet normal -0.41206896 -0.89502287 -0.17068446
 outer loop
  vertex 1.9088044 1.318669 1.6217433
  vertex 2.3971825 1.2768484 0.6619892
  vertex 1.9996395 1.2768484 1.6217433
 endloop
endfacet
facet normal -0.17068416 -0.89502335 -0.41206816
 outer loop
  vertex 2.3329525 1.318669 0.597759
  vertex 3.356937 1.318669 0.17361093
  vertex 3.356937 1.2768484 0.26444626
 endloop
endfacet
facet normal -0.1706844 -0.89502287 -0.412069
 outer loop
  vertex 2.3329525 1.318669 0.597759
  vertex 3.356937 1.2768484 0.26444626
  vertex 2.3971825 1.2768484 0.6619892
 endloop
endfacet
facet normal 0.17068419 -0.89502335 -0.41206822
 outer loop
  vertex 3.356937 1.318669 0.17361093
  vertex 4.3809214 1.318669 0.597759
  vertex 4.316691 1.2768484 0.6619892
 endloop
endfacet
facet normal 0.17068414 -0.89502335 -0.41206816
 outer loop
  vertex 3.356937 1.318669 0.17361093
  vertex 4.316691 1.2768484 0.6619892
  vertex 3.356937 1.2768484 0.26444626
 endloop
endfacet
facet normal 0.412069 -0.8950228 -0.17068453
 outer loop
  vertex 4.3809214 1.318669 0.597759
  vertex 4.8050694 1.318669 1.6217433
  vertex 4.7142344 1.2768484 1.6217433
 endloop
endfacet
facet normal 0.41206762 -0.8950236 -0.1706841
 outer loop
  vertex 4.3809214 1.318669 0.597759
  vertex 4.7142344 1.2768484 1.6217433
  vertex 4.316691 1.2768484 0.6619892
 endloop
endfacet
facet normal 0.4120677 -0.8950236 0.170684
 outer loop
  vertex 4.8050694 1.318669 1.6217433
  vertex 4.3809214 1.318669 2.6457276
  vertex 4.316691 1.2768484 2.5814974
 endloop
endfacet
facet normal 0.41206896 -0.89502287 0.17068467
 outer loop
  vertex 4.8050694 1.318669 1.6217433
  vertex 4.316691 1.2768484 2.5814974
  vertex 4.7142344 1.2768484 1.6217433
 endloop
endfacet
facet normal 0.17068459 -0.89502287 0.412069
 outer loop
  vertex 4.3809214 1.318669 2.6457276
  vertex 3.356937 1.318669 3.069876
  vertex 3.356937 1.2768484 2.9790409
 endloop
endfacet
facet normal 0.1706843 -0.8950234 0.41206804
 outer loop
  vertex 4.3809214 1.318669 2.6457276
  vertex 3.356937 1.2768484 2.9790409
  vertex 4.316691 1.2768484 2.5814974
 endloop
endfacet
facet normal -0.34694028 -0.8950233 0.280296
 outer loop
  vertex 2.7709131 2.1832747 2.6981533
  vertex 2.181419 2.1832747 1.9684986
  vertex 2.2685428 2.1414542 1.9427987
 endloop
endfacet
facet normal -0.34694076 -0.895023 0.2802963
 outer loop
  vertex 2.7709131 2.1832747 2.6981533
  vertex 2.2685428 2.1414542 1.9427987
  vertex 2.8143463 2.1414542 2.6183748
 endloop
endfacet
facet normal -0.4435239 -0.8950228 -0.047124635
 outer loop
  vertex 2.181419 2.1832747 1.9684986
  vertex 2.280527 2.1832747 1.0357196
  vertex 2.3603053 2.1414542 1.0791531
 endloop
endfacet
facet normal -0.44352293 -0.8950233 -0.04712441
 outer loop
  vertex 2.181419 2.1832747 1.9684986
  vertex 2.3603053 2.1414542 1.0791531
  vertex 2.2685428 2.1414542 1.9427987
 endloop
endfacet
facet normal -0.2802957 -0.8950235 -0.3469397
 outer loop
  vertex 2.280527 2.1832747 1.0357196
  vertex 3.0101814 2.1832747 0.4462254
  vertex 3.0358815 2.1414542 0.5333493
 endloop
endfacet
facet normal -0.28029624 -0.89502305 -0.34694055
 outer loop
  vertex 2.280527 2.1832747 1.0357196
  vertex 3.0358815 2.1414542 0.5333493
  vertex 2.3603053 2.1414542 1.0791531
 endloop
endfacet
facet normal 0.047124524 -0.8950232 -0.44352305
 outer loop
  vertex 3.0101814 2.1832747 0.4462254
  vertex 3.9429607 2.1832747 0.5453336
  vertex 3.8995275 2.1414542 0.62511206
 endloop
endfacet
facet normal 0.047124527 -0.8950232 -0.44352308
 outer loop
  vertex 3.0101814 2.1832747 0.4462254
  vertex 3.8995275 2.1414542 0.62511206
  vertex 3.0358815 2.1414542 0.5333493
 endloop
endfacet
facet normal 0.34694022 -0.8950232 -0.28029606
 outer loop
  vertex 3.9429607 2.1832747 0.5453336
  vertex 4.532455 2.1832747 1.274988
  vertex 4.445331 2.1414542 1.3006879
 endloop
endfacet
facet normal 0.3469406 -0.895023 -0.2802963
 outer loop
  vertex 3.9429607 2.1832747 0.5453336
  vertex 4.445331 2.1414542 1.3006879
  vertex 3.8995275 2.1414542 0.62511206
 endloop
endfacet
facet normal 0.44352397 -0.8950228 0.047124628
 outer loop
  vertex 4.532455 2.1832747 1.274988
  vertex 4.4333467 2.1832747 2.2077672
  vertex 4.3535686 2.1414542 2.1643338
 endloop
endfacet
facet normal 0.4435229 -0.8950232 0.047124393
 outer loop
  vertex 4.532455 2.1832747 1.274988
  vertex 4.3535686 2.1414542 2.1643338
  vertex 4.445331 2.1414542 1.3006879
 endloop
endfacet
facet normal 0.2802965 -0.8950229 0.34694073
 outer loop
  vertex 4.4333467 2.1832747 2.2077672
  vertex 3.7036924 2.1832747 2.7972615
  vertex 3.6779928 2.1414542 2.7101376
 endloop
endfacet
facet normal 0.28029627 -0.89502317 0.34694034
 outer loop
  vertex 4.4333467 2.1832747 2.2077672
  vertex 3.6779928 2.1414542 2.7101376
  vertex 4.3535686 2.1414542 2.1643338
 endloop
endfacet
facet normal -0.047124524 -0.8950232 0.44352305
 outer loop
  vertex 3.7036924 2.1832747 2.7972615
  vertex 2.7709131 2.1832747 2.6981533
  vertex 2.8143463 2.1414542 2.6183748
 endloop
endfacet
facet normal -0.047124475 -0.89502335 0.4435228
 outer loop
  vertex 3.7036924 2.1832747 2.7972615
  vertex 2.8143463 2.1414542 2.6183748
  vertex 3.6779928 2.1414542 2.7101376
 endloop
endfacet
facet normal -0.43873662 -0.89502186 0.08028644
 outer loop
  vertex 2.485743 2.9150147 2.184699
  vertex 2.3428402 2.9150147 1.4037862
  vertex 2.4316473 2.873194 1.4228733
 endloop
endfacet
facet normal -0.43873534 -0.8950226 0.08028639
 outer loop
  vertex 2.485743 2.9150147 2.184699
  vertex 2.4316473 2.873194 1.4228733
  vertex 2.562036 2.873194 2.1353993
 endloop
endfacet
facet normal -0.3670042 -0.89502233 -0.25346202
 outer loop
  vertex 2.3428402 2.9150147 1.4037862
  vertex 2.793981 2.9150147 0.7505498
  vertex 2.8432808 2.873194 0.82684255
 endloop
endfacet
facet normal -0.36700484 -0.8950219 -0.25346258
 outer loop
  vertex 2.3428402 2.9150147 1.4037862
  vertex 2.8432808 2.873194 0.82684255
  vertex 2.4316473 2.873194 1.4228733
 endloop
endfacet
facet normal -0.080286615 -0.89502186 -0.43873686
 outer loop
  vertex 2.793981 2.9150147 0.7505498
  vertex 3.574894 2.9150147 0.6076467
  vertex 3.5558066 2.873194 0.6964538
 endloop
endfacet
facet normal -0.08028659 -0.8950221 -0.43873632
 outer loop
  vertex 2.793981 2.9150147 0.7505498
  vertex 3.5558066 2.873194 0.6964538
  vertex 2.8432808 2.873194 0.82684255
 endloop
endfacet
facet normal 0.2534622 -0.8950222 -0.3670043
 outer loop
  vertex 3.574894 2.9150147 0.6076467
  vertex 4.2281303 2.9150147 1.0587878
  vertex 4.1518373 2.873194 1.1080873
 endloop
endfacet
facet normal 0.25346226 -0.8950223 -0.36700433
 outer loop
  vertex 3.574894 2.9150147 0.6076467
  vertex 4.1518373 2.873194 1.1080873
  vertex 3.5558066 2.873194 0.6964538
 endloop
endfacet
facet normal 0.4387367 -0.89502186 -0.08028674
 outer loop
  vertex 4.2281303 2.9150147 1.0587878
  vertex 4.3710337 2.9150147 1.8397005
  vertex 4.2822266 2.873194 1.8206134
 endloop
endfacet
facet normal 0.43873534 -0.8950225 -0.08028669
 outer loop
  vertex 4.2281303 2.9150147 1.0587878
  vertex 4.2822266 2.873194 1.8206134
  vertex 4.1518373 2.873194 1.1080873
 endloop
endfacet
facet normal 0.3670038 -0.8950226 0.25346163
 outer loop
  vertex 4.3710337 2.9150147 1.8397005
  vertex 3.9198928 2.9150147 2.492937
  vertex 3.870593 2.873194 2.416644
 endloop
endfacet
facet normal 0.36700484 -0.8950219 0.25346258
 outer loop
  vertex 4.3710337 2.9150147 1.8397005
  vertex 3.870593 2.873194 2.416644
  vertex 4.2822266 2.873194 1.8206134
 endloop
endfacet
facet normal 0.08028648 -0.89502186 0.43873686
 outer loop
  vertex 3.9198928 2.9150147 2.492937
  vertex 3.13898 2.9150147 2.63584
  vertex 3.1580672 2.873194 2.5470328
 endloop
endfacet
facet normal 0.08028642 -0.89502263 0.43873537
 outer loop
  vertex 3.9198928 2.9150147 2.492937
  vertex 3.1580672 2.873194 2.5470328
  vertex 3.870593 2.873194 2.416644
 endloop
endfacet
facet normal -0.25346157 -0.89502263 0.36700386
 outer loop
  vertex 3.13898 2.9150147 2.63584
  vertex 2.485743 2.9150147 2.184699
  vertex 2.562036 2.873194 2.1353993
 endloop
endfacet
facet normal -0.25346205 -0.8950222 0.36700436
 outer loop
  vertex 3.13898 2.9150147 2.63584
  vertex 2.562036 2.873194 2.1353993
  vertex 3.1580672 2.873194 2.5470328
 endloop
endfacet
facet normal -0.42371905 -0.8950229 -0.13926983
 outer loop
  vertex 2.4815564 3.534306 1.6876425
  vertex 2.691352 3.534306 1.0493538
  vertex 2.7602224 3.4924855 1.1085811
 endloop
endfacet
facet normal -0.4237183 -0.8950233 -0.13926943
 outer loop
  vertex 2.4815564 3.534306 1.6876425
  vertex 2.7602224 3.4924855 1.1085811
  vertex 2.5721354 3.4924855 1.6808237
 endloop
endfacet
facet normal -0.20113595 -0.8950233 -0.3980926
 outer loop
  vertex 2.691352 3.534306 1.0493538
  vertex 3.2910376 3.534306 0.74636316
  vertex 3.2978563 3.4924855 0.8369422
 endloop
endfacet
facet normal -0.20113623 -0.89502287 -0.39809343
 outer loop
  vertex 2.691352 3.534306 1.0493538
  vertex 3.2978563 3.4924855 0.8369422
  vertex 2.7602224 3.4924855 1.1085811
 endloop
endfacet
facet normal 0.13926953 -0.89502305 -0.4237189
 outer loop
  vertex 3.2910376 3.534306 0.74636316
  vertex 3.9293265 3.534306 0.9561584
  vertex 3.870099 3.4924855 1.025029
 endloop
endfacet
facet normal 0.13926923 -0.8950234 -0.42371833
 outer loop
  vertex 3.2910376 3.534306 0.74636316
  vertex 3.870099 3.4924855 1.025029
  vertex 3.2978563 3.4924855 0.8369422
 endloop
endfacet
facet normal 0.39809242 -0.89502335 -0.20113598
 outer loop
  vertex 3.9293265 3.534306 0.9561584
  vertex 4.2323174 3.534306 1.5558442
  vertex 4.1417384 3.4924855 1.5626631
 endloop
endfacet
facet normal 0.3980924 -0.8950233 -0.20113596
 outer loop
  vertex 3.9293265 3.534306 0.9561584
  vertex 4.1417384 3.4924855 1.5626631
  vertex 3.870099 3.4924855 1.025029
 endloop
endfacet
facet normal 0.42371905 -0.8950229 0.13926983
 outer loop
  vertex 4.2323174 3.534306 1.5558442
  vertex 4.022522 3.534306 2.1941328
  vertex 3.9536514 3.4924855 2.1349056
 endloop
endfacet
facet normal 0.42371848 -0.8950232 0.1392695
 outer loop
  vertex 4.2323174 3.534306 1.5558442
  vertex 3.9536514 3.4924855 2.1349056
  vertex 4.1417384 3.4924855 1.5626631
 endloop
endfacet
facet normal 0.20113608 -0.8950232 0.39809257
 outer loop
  vertex 4.022522 3.534306 2.1941328
  vertex 3.4228363 3.534306 2.4971237
  vertex 3.4160175 3.4924855 2.4065447
 endloop
endfacet
facet normal 0.2011363 -0.89502287 0.39809325
 outer loop
  vertex 4.022522 3.534306 2.1941328
  vertex 3.4160175 3.4924855 2.4065447
  vertex 3.9536514 3.4924855 2.1349056
 endloop
endfacet
facet normal -0.13926968 -0.8950231 0.42371884
 outer loop
  vertex 3.4228363 3.534306 2.4971237
  vertex 2.7845473 3.534306 2.2873282
  vertex 2.8437748 3.4924855 2.2184577
 endloop
endfacet
facet normal -0.13926937 -0.89502335 0.42371824
 outer loop
  vertex 3.4228363 3.534306 2.4971237
  vertex 2.8437748 3.4924855 2.2184577
  vertex 3.4160175 3.4924855 2.4065447
 endloop
endfacet
facet normal -0.3980926 -0.8950232 0.20113607
 outer loop
  vertex 2.7845473 3.534306 2.2873282
  vertex 2.4815564 3.534306 1.6876425
  vertex 2.5721354 3.4924855 1.6808237
 endloop
endfacet
facet normal -0.39809236 -0.8950233 0.201136
 outer loop
  vertex 2.7845473 3.534306 2.2873282
  vertex 2.5721354 3.4924855 1.6808237
  vertex 2.8437748 3.4924855 2.2184577
 endloop
endfacet
endsolid 
