solid 
facet normal 1 0 0
 outer loop
  vertex 0.5 -1 -0.5
  vertex 0.5 1 -0.5
  vertex 0.5 1 0.5
 endloop
endfacet
facet normal 1 -0 0
 outer loop
  vertex 0.5 -1 -0.5
  vertex 0.5 1 0.5
  vertex 0.5 -1 0.5
 endloop
endfacet
facet normal -0 0 1
 outer loop
  vertex 0.5 -1 0.5
  vertex 0.5 1 0.5
  vertex -0.5 1 0.5
 endloop
endfacet
facet normal -0 0 1
 outer loop
  vertex 0.5 -1 0.5
  vertex -0.5 1 0.5
  vertex -0.5 -1 0.5
 endloop
endfacet
facet normal -1 0 0
 outer loop
  vertex -0.5 -1 0.5
  vertex -0.5 1 0.5
  vertex -0.5 1 -0.5
 endloop
endfacet
facet normal -1 0 0
 outer loop
  vertex -0.5 -1 0.5
  vertex -0.5 1 -0.5
  vertex -0.5 -1 -0.5
 endloop
endfacet
facet normal -0 -0 -1
 outer loop
  vertex -0.5 -1 -0.5
  vertex -0.5 1 -0.5
  vertex 0.5 1 -0.5
 endloop
endfacet
facet normal -0 0 -1
 outer loop
  vertex -0.5 -1 -0.5
  vertex 0.5 1 -0.5
  vertex 0.5 -1 -0.5
 endloop
endfacet
facet normal 0 -1 0
 outer loop
  vertex 0.5 -1 0.5
  vertex -0.5 -1 0.5
  vertex -0.5 -1 -0.5
 endloop
endfacet
facet normal 0 -1 0
 outer loop
  vertex 0.5 -1 0.5
  vertex -0.5 -1 -0.5
  vertex 0.5 -1 -0.5
 endloop
endfacet
facet normal -0.8944272 0.4472136 0
 outer loop
  vertex -0.5 1 -0.5
  vertex -0.5 1 0.5
  vertex 0 2 0
 endloop
endfacet
facet normal 0.8944272 0.4472136 -0
 outer loop
  vertex 0.5 1 0.5
  vertex 0.5 1 -0.5
  vertex 0 2 0
 endloop
endfacet
facet normal 0 0.4472136 -0.8944272
 outer loop
  vertex 0.5 1 -0.5
  vertex -0.5 1 -0.5
  vertex 0 2 0
 endloop
endfacet
facet normal 0 0.4472136 0.8944272
 outer loop
  vertex -0.5 1 0.5
  vertex 0.5 1 0.5
  vertex 0 2 0
 endloop
endfacet
end solid
