solid 
facet normal -0.5 0.5 -0.7071068
 outer loop
  vertex -1.7071068 0.2928932 0
  vertex -0.29289323 1.7071068 0
  vertex 0.7071068 0.7071067 -1.4142135
 endloop
endfacet
facet normal -0.49999997 0.5 -0.7071068
 outer loop
  vertex -1.7071068 0.2928932 0
  vertex 0.7071068 0.7071067 -1.4142135
  vertex -0.70710677 -0.7071068 -1.4142135
 endloop
endfacet
facet normal 0.49999997 -0.5 -0.7071068
 outer loop
  vertex 0.29289323 -1.7071068 0
  vertex -0.70710677 -0.7071068 -1.4142135
  vertex 0.7071068 0.7071067 -1.4142135
 endloop
endfacet
facet normal 0.50000006 -0.5 -0.7071068
 outer loop
  vertex 0.29289323 -1.7071068 0
  vertex 0.7071068 0.7071067 -1.4142135
  vertex 1.7071068 -0.2928932 0
 endloop
endfacet
facet normal 0.7071068 0.7071068 -5.960465e-08
 outer loop
  vertex 1.7071068 -0.2928932 0
  vertex 0.7071068 0.7071067 -1.4142135
  vertex -0.29289323 1.7071068 0
 endloop
endfacet
facet normal 0.7071068 0.7071068 0
 outer loop
  vertex 1.7071068 -0.2928932 0
  vertex -0.29289323 1.7071068 0
  vertex 0.70710677 0.7071068 1.4142135
 endloop
endfacet
facet normal 0.49999997 -0.5 0.7071068
 outer loop
  vertex 0.70710677 0.7071068 1.4142135
  vertex -0.7071068 -0.7071067 1.4142135
  vertex 0.29289323 -1.7071068 0
 endloop
endfacet
facet normal 0.5 -0.5 0.7071068
 outer loop
  vertex 0.70710677 0.7071068 1.4142135
  vertex 0.29289323 -1.7071068 0
  vertex 1.7071068 -0.2928932 0
 endloop
endfacet
facet normal -0.70710677 -0.7071068 2.9802326e-08
 outer loop
  vertex -0.7071068 -0.7071067 1.4142135
  vertex -1.7071068 0.2928932 0
  vertex -0.70710677 -0.7071068 -1.4142135
 endloop
endfacet
facet normal -0.7071068 -0.70710677 1.4901161e-08
 outer loop
  vertex -0.7071068 -0.7071067 1.4142135
  vertex -0.70710677 -0.7071068 -1.4142135
  vertex 0.29289323 -1.7071068 0
 endloop
endfacet
facet normal -0.5 0.5 0.7071068
 outer loop
  vertex 0.70710677 0.7071068 1.4142135
  vertex -0.29289323 1.7071068 0
  vertex -1.7071068 0.2928932 0
 endloop
endfacet
facet normal -0.5 0.5 0.70710677
 outer loop
  vertex 0.70710677 0.7071068 1.4142135
  vertex -1.7071068 0.2928932 0
  vertex -0.7071068 -0.7071067 1.4142135
 endloop
endfacet
endsolid 
